<?xml version="1.0" standalone="no"?>
<!DOCTYPE svg PUBLIC "-//W3C//DTD SVG 1.1//EN" "http://www.w3.org/Graphics/SVG/1.1/DTD/svg11.dtd" >
<svg>
<metadata>
Created by FontForge 20090914 at Tue Feb 27 20:10:28 2018
 By www-data
Yuliyan Ilev &#194;&#169; 2009. All Rights Reserved
</metadata>
<defs>
<font id="NeoTrash-Bold" horiz-adv-x="600" >
  <font-face 
    font-family="NeoTrashGEO"
    font-weight="700"
    font-stretch="normal"
    units-per-em="1000"
    panose-1="2 0 8 0 0 0 0 0 0 0"
    ascent="800"
    descent="-200"
    x-height="483"
    cap-height="749.999"
    bbox="-247.002 -398 1052 993.997"
    underline-thickness="50"
    underline-position="-50"
    unicode-range="U+0020-U+F002"
  />
<missing-glyph horiz-adv-x="500" 
d="M146 558c11.333 10 21.6621 17.667 30.9951 23c20.667 11.333 42.334 17 65.001 17c34.667 0 62 -8.5 82 -25.5s30 -37.833 30 -62.5c0 -15.333 -3.66699 -31 -11 -47s-21.666 -37 -42.999 -63c-20 -26 -36 -47.5 -48 -64.5s-18 -33.833 -18 -50.5
c0 -12 4.33301 -34.333 13 -67h-40c-12.667 34 -19 59 -19 75c0 24 13.333 59 40 105s40 81.667 40 107c0 20 -4.66699 34.5 -14 43.5s-20.666 13.5 -33.999 13.5c-9.33301 0 -17.666 -2 -24.999 -6s-23.666 -16.667 -48.999 -38v40zM185.996 162l27.999 27.998
c4.66699 4 9.33398 6 14.001 6s9.66699 -2.33301 15 -7l27 -29c2.66699 -3.33301 4 -6.33301 4 -9c0 -3.33301 -1.66699 -6.66602 -5 -9.99902l-27 -31c-6 -5.33301 -10.667 -8 -14 -8c-5.33301 0 -10 2 -14 6l-30 35c-2.66699 2.66699 -4 5.33398 -4 8.00098
c0 3.33301 2 7 6 11zM48.9951 -0.00195312v700h402v-700h-402zM72.9951 23.998h354v652h-354v-652z" />
    <glyph glyph-name=".notdef" horiz-adv-x="500" 
d="M146 558c11.333 10 21.6621 17.667 30.9951 23c20.667 11.333 42.334 17 65.001 17c34.667 0 62 -8.5 82 -25.5s30 -37.833 30 -62.5c0 -15.333 -3.66699 -31 -11 -47s-21.666 -37 -42.999 -63c-20 -26 -36 -47.5 -48 -64.5s-18 -33.833 -18 -50.5
c0 -12 4.33301 -34.333 13 -67h-40c-12.667 34 -19 59 -19 75c0 24 13.333 59 40 105s40 81.667 40 107c0 20 -4.66699 34.5 -14 43.5s-20.666 13.5 -33.999 13.5c-9.33301 0 -17.666 -2 -24.999 -6s-23.666 -16.667 -48.999 -38v40zM185.996 162l27.999 27.998
c4.66699 4 9.33398 6 14.001 6s9.66699 -2.33301 15 -7l27 -29c2.66699 -3.33301 4 -6.33301 4 -9c0 -3.33301 -1.66699 -6.66602 -5 -9.99902l-27 -31c-6 -5.33301 -10.667 -8 -14 -8c-5.33301 0 -10 2 -14 6l-30 35c-2.66699 2.66699 -4 5.33398 -4 8.00098
c0 3.33301 2 7 6 11zM48.9951 -0.00195312v700h402v-700h-402zM72.9951 23.998h354v652h-354v-652z" />
    <glyph glyph-name="space" unicode=" " horiz-adv-x="248" 
 />
    <glyph glyph-name="space" unicode="&#xa0;" horiz-adv-x="248" 
 />
    <glyph glyph-name="exclam" unicode="!" horiz-adv-x="337" 
d="M125 727l-6 -7l6 -27h133l6 -6h7c-12 -304.667 -25.333 -457 -40 -457h-99c-14.667 0 -28 154.333 -40 463l-33 -6c15.333 26.667 37.333 40 66 40zM26 693l-7 -6v-7h27v-7l-7 -6l-53 -100h-20l-13 14v20l6 6v7l-6 7h-7l-13 -14l-13 14c13.333 0 20 13 20 39l26 20h7
l6 -7h7c4.66699 13.333 18 20 40 20zM185 190c61.333 -14.667 92.001 -41 92.001 -79l-6 -7h-186v26c21.333 40 54.666 60 99.999 60zM85.001 84l186.001 -6l6 -7c0 -38 -35.333 -62.333 -106 -73c-32.667 0 -61.334 20 -86.001 60v26zM291.002 700h6v-13h-6v13z" />
    <glyph glyph-name="quotedbl" unicode="&#x22;" horiz-adv-x="271" 
d="M119 701l3 -2.99902c-10 -30.667 -19 -49.334 -27 -56.001l-36 47l-3 -3l-3 3v3l6 6h45zM215 701.001l3 -3l-24 -60h-3c-4 0 -8 8 -12 24h3c4 0 6 -3 6 -9h3v3l-12 42h6zM152 695.001l21 -74c4 0 6 -4.33301 6 -13l-3 -3h-3l-3 10h-3l3 -15v-6
c0 -11.333 -13 -18.333 -39 -21h-15l-3 3v3c4 12 8 18 12 18l6 -6v3l-6 9v5c1.33301 12 4.33301 18 9 18l-3 3v3c9.33301 42 16.333 63 21 63zM47 686.001h3c21.333 -22.667 35.333 -42.667 42 -60c-8.66699 -19.333 -16.667 -32.333 -24 -39
c-4.66699 2.66699 -12.667 14 -24 34h-2v-3c5.33301 -8 8 -15 8 -21l-18 24l15 56v9zM-27 621.001l34.999 -16l4 -2v-3l-4 -3c2.66699 -6.66699 7 -11 13 -13l8 27h3c16 -16 24 -27.667 24 -35h-3l-27 -6l-8 3v-15c-7.33301 6.66699 -19.666 10.667 -36.999 12l-5 12h-3
c0 -6 -2 -9 -6 -9h-7c-7.33301 3.33301 -11 10.333 -11 21l11 6l13 -6l3 11l-9 10zM22.999 552.001h3c16 -4 24 -12 24 -24h6v-6h-3l-3 3h-3l-5 -6l-7 6l4 3zM49.999 597.001h3v-6h-3v6zM34.999 477.001h7v-6zM14.999 471.001l3 -3v-15h-6l-4 15l4 3h3zM58.999 432.001l4 -3
v-3l-4 -3h-3l-3 3v3l3 3h3zM49.999 405.001h6v-3h-6v3zM64.999 405.001h6v-3h-6v3z" />
    <glyph glyph-name="numbersign" unicode="#" horiz-adv-x="729" 
d="M330 700h81l-69 -232h107l69 232h81l-69 -232h141l-15 -50h-141l-39 -138h150l-15 -51h-152l-68 -229h-81l68 229h-106l-69 -229h-81l68 229h-133l16 51h132l41 138h-144l15 50h144zM327 416l-40 -138h106l41 138h-107z" />
    <glyph glyph-name="dollar" unicode="$" horiz-adv-x="501" 
d="M186 775l50 -0.000976562l12 -12l-56 -56h7l68 62h12v-56l-142 -161h-19l-6 6h-7l-18 -18v6l43 56l-6 24l-112 -117l-6 6v12c0 68.667 49.667 118.334 149 149.001h12l-12 -18h6l19 25l-6 5v75zM310 687.999l37 -12l-31 -50h7l49 50
c33.333 -7.33301 50 -15.666 50 -24.999l-6 -43l18 12l13 -24c-23.333 0 -44 -20.667 -62 -62l6 -7v-6l-13 -25l13 -31l-25 -18c-12.667 0 -19 12.333 -19 37h-12v-12h-19v6l13 12l-6 6v25l37 31v6c-20.667 3.33301 -31 13.666 -31 30.999h-6l-7 -18l-31 6h-56l-43 -6
c62 65.333 103.333 104.333 124 117zM161 545.999c0 -30 20.666 -56.999 61.999 -80.999l-31 -31h7l37 31c96.667 -25.333 160.667 -60.333 192 -105l6 -19l-130 -80c-9.33301 0 -15.666 10.333 -18.999 31l13 12h-6l-25 -6c0 9.33301 -10.333 15.333 -31 18v19l12 19h-6
l-25 -25c-53.333 13.333 -80 25.666 -80 36.999l49 50v6l-56 -56h-6c-22 0 -49 16.667 -81 50c18 10 53.333 51.333 106 124l6 6h6zM439.999 323l13 -19v-43c0 -71.333 -47.667 -123.333 -143 -156c-24.667 0 -37 -14.333 -37 -43l-44 -6v-6l38 -7l6 -24v-7l-12 -12h-81
l-13 12v38l7 6c0 24.667 -16.667 37 -50 37c0 35.333 25 62.333 75 81zM36.999 242c48 -24.667 93.668 -36.999 137.001 -36.999h18v-6c-77.333 -58 -127 -87 -149 -87c-28.667 5.33301 -43 13.666 -43 24.999l12 12l-6 6c11.333 58 21.666 87 30.999 87zM527 583.001h19
v-12h-19v12zM87 490.001v-6l-50 -50h-6v6zM130 440.001v-12l13 12h-13z" />
    <glyph glyph-name="percent" unicode="%" horiz-adv-x="945" 
d="M208 690l80 -13v-7c-8 -13.333 -101.667 -71.333 -281 -174l-7 6c28 125.333 90.667 188 188 188h20zM623 690h67l7 -7h6c-261.333 -441.333 -399.666 -669 -414.999 -683h-67l-13 13c257.333 436 395.666 661.667 414.999 677zM315 656h6c54 -36 81 -105 81 -207
l-13 -40h6l21 7l6 -7v-7c0 -8.66699 -9 -13 -27 -13c0 -24.667 -20 -42.667 -60 -54c-34.667 -40.667 -81.667 -61 -141 -61c-74 0 -134.333 40.333 -181 121h-6v27l-7 47l134 73v-86c0 -39.333 15.667 -68.333 47 -87h40c25.333 0 41 35.667 47 107v13
c-2.66699 66.667 -16 100 -40 100v7c0 6.66699 29 26.667 87 60zM697 416l40.001 0.000976562c93.333 0 149 -58.333 167 -175c-35.333 -66.667 -53 -106.667 -53 -120l26 20h7c0 -68.667 -51.333 -113.334 -154 -134.001h-40c-98.667 0 -156.667 64.667 -174 194v13
c17.333 134.667 77.666 202 180.999 202zM643.001 208.001c0 -76 26.999 -114 80.999 -114c34.667 10 57 25.667 67 47v6h-14v94c-5.33301 58 -27.666 87 -66.999 87c-44.667 0 -67 -40 -67 -120zM884 261.001v-20h7v20h-7zM811 174.001v-13h6v13h-6zM656 81.001v-14l14 14
h-14zM650 60.001l-7 -20v-6h7l6 20v6h-6z" />
    <glyph glyph-name="ampersand" unicode="&#x26;" horiz-adv-x="753" 
d="M288 699l-0.00195312 -7.00098l-20 -26h6l26 20h7c8.66699 0 13 -6.66699 13 -20l20 20l-7 6h13v-26h7l32 20l27 -20c-41.333 -48 -69.666 -72 -84.999 -72l-7 7v6c-65.333 -9.33301 -98 -31 -98 -65c-18.667 0 -31.667 -30.333 -39 -91h-13v6l6 7v13h-6l-7 -20l7 -19h13
l39 45v-13c0 -18 -13 -42 -39 -72h26c0 14.667 19.667 32.334 59 53.001l26 -7l59 65v33l-7 33l78 71h27c26 -24 39 -45.667 39 -65l-13 -13l20 -6v-26l-53 -39l-13 12c-16.667 -28 -36.334 -47.333 -59.001 -58c-32.667 -68.667 -56.667 -108 -72 -118h-6l13 -13l-19 -32
v-7h12c0 11.333 11 22 33 32v7h-13v7c22 48 50.333 80.333 85 97l26 -6l-72 -59c43.333 -38 65 -68.333 65 -91l7 6h7l39 -32c22.667 47.333 42.334 101.666 59.001 162.999h130l13 -13c0 -64.667 -39 -147.334 -117 -248.001c76.667 -71.333 115.667 -112.666 117 -123.999
v-7h-176l-52 46c-60 -39.333 -127.667 -59 -203 -59c-139.333 20.667 -209 53.334 -209 98.001l13 39v13h-6c0 -22.667 -6.66699 -35.667 -20 -39h-6l-20 92c0 54.667 30.333 106.667 91 156h13v-6l-19 -59v-6h6c0 20 13.333 39.333 40 58l-7 7v32
c13.333 0 20 6.66699 20 20v7h-7v-14c-13.333 4.66699 -28.666 26.667 -45.999 66v19l40 72v7c-22 -18 -33 -35.667 -33 -53h-13v20c0 90 67.667 146.667 203 170zM312.998 659.999l-13 -46h13c0 10 11 20.667 33 32l7 7v7h-7l-26 -7zM117.998 456.999l19 0.000976562
c0 13.333 11 26.666 33 39.999l13 45h-20zM156.998 242c0 -42.667 15.333 -79.666 46 -110.999l-20 -33l6 -19h14l6 32v20l59 -13h6c34 0 66.667 8.66699 98 26l-124 130v7l7 7v6l-7 -6h-13l-20 19c-18 -0.666992 -37.333 -22.334 -58 -65.001zM214.998 601.001v-7h14l13 20
v7l-20 -20h-7zM228.998 483.001h13l13 -13l-20 -19l-6 6v26zM463.998 470.001h13v-6l-13 -13v19zM443.998 438.001l7 -7v-7l-7 -6h-13v6zM188.998 366.001v-13h7v13h-7zM97.998 242.001v-13h6v13h-6zM78.998 215.001v-6l12 13v7zM103.998 104.001v-13h7v13h-7z" />
    <glyph glyph-name="quotesingle" unicode="'" horiz-adv-x="198" 
d="M130 536l-53 -0.000976562l-26 184c-1.33301 6 -2 10 -2 12c0 10 4 19.667 12 29s22 14 42 14c19.333 0 33.333 -4.66699 42 -14s13 -18.666 13 -27.999c0 -2 -0.333008 -5.66699 -1 -11z" />
    <glyph glyph-name="parenleft" unicode="(" horiz-adv-x="284" 
d="M137 737h29.999c8.66699 0 14.334 -22 17.001 -66c-43.333 -100 -65 -198.667 -65 -296l12 -179l-18 -48c6 0 16 -13.667 30 -41l-6 -42h-12v18h-6v-29h-12v29h-6v-41l6 -18h-6c-67.333 90 -101 204.667 -101 344c16 202.667 51.667 311.667 107 327l-6 30zM153.999 113
h13l47 -113h-42c-7.33301 0 -17 27.667 -29 83c7.33301 0 11 10 11 30zM201.999 731h12v-6h-12v6zM106.999 576v-12h6v12h-6zM320.999 422v-12h-12zM243.999 404h6l5 -6h6l-6 -18h-11v24zM225.999 356h24l23 -47l-12 -12h-6l-5 6l-6 -6h-12l-12 24zM17.999 297v-12h6v12h-6z
M153.999 65v-11h7v11h-7z" />
    <glyph glyph-name="parenright" unicode=")" horiz-adv-x="422" 
d="M6 743l90 -0.000976562c84 -92 126 -215.667 126 -371c0 -142 -40 -266 -120 -372h-90l-12 12c64 93.333 96 203 96 329v49c0 118.667 -30 234.334 -90 347.001v6z" />
    <glyph glyph-name="asterisk" unicode="*" horiz-adv-x="533" 
d="M242 652c-0.666992 8.66699 -5.66895 20.9961 -15.002 36.9961c-13.333 24.667 -20 40.334 -20 47.001c0 13.333 5.33301 24.5 16 33.5s25 13.5 43 13.5c16.667 0 30.5 -4.16699 41.5 -12.5s16.5 -18.833 16.5 -31.5c0 -8 -6 -23.667 -18 -47
c-10 -18.667 -15.333 -32 -16 -40c2 0.666992 9.66699 8.33398 23 23.001c18.667 20 32.334 31.333 41.001 34c6 2 11.667 3 17 3c10 0 19 -2.33301 27 -7c12 -8 20.333 -19.333 25 -34c2 -6 3 -12.333 3 -19c0 -6 -0.666992 -11.333 -2 -16c-4.66699 -14 -14 -23 -28 -27
c-4 -1.33301 -9.33301 -2 -16 -2c-10 0 -23.667 1.33301 -41 4c-12 2.66699 -21.667 4 -29 4c-4.66699 0 -8 -0.333008 -10 -1c6.66699 -8.66699 18.667 -17 36 -25c25.333 -11.333 40.333 -20.333 45 -27c6 -8 9 -16 9 -24c0 -3.33301 -0.666992 -6.66602 -2 -9.99902
c-3.33301 -12 -11.333 -22.667 -24 -32c-12.667 -10 -26 -15 -40 -15c-11.333 0 -17 0.333008 -17 1c-6 0 -12.667 5.33301 -20 16c-6 8 -11 25.333 -15 52c-2.66699 20.667 -4.66699 32 -6 34c-1.33301 -2 -3.33301 -13.333 -6 -34c-3.33301 -25.333 -7 -41.333 -11 -48
c-10 -12 -22.667 -18.667 -38 -20h-3c-14 0 -27.333 4.66699 -40 14c-12 8.66699 -20 19.334 -24 32.001c-1.33301 3.33301 -2 7 -2 11c0 6.66699 3 14.334 9 23.001c4.66699 6 19.667 15 45 27c17.333 8.66699 29.333 16.667 36 24c-2 0.666992 -5 1 -9 1
c-7.33301 0 -16.666 -1 -27.999 -3c-18.667 -4 -32.667 -6 -42 -6c-6 0 -10.333 0.666992 -13 2c-14.667 4.66699 -24.667 13.667 -30 27c-2.66699 5.33301 -4 11 -4 17c0 6.66699 1.33301 13 4 19c4 14 11.667 25 23 33c8 6 17 9 27 9c5.33301 0 10.333 -1 15 -3
c9.33301 -2.66699 24 -14 44 -34c13.333 -14.667 21 -22.334 23 -23.001z" />
    <glyph glyph-name="plus" unicode="+" horiz-adv-x="541" 
d="M281 628h29l12 -11v-71h-6c-12 0 -23.667 27.333 -35 82zM222 541h12.001c0 -14.667 23.333 -79.334 70 -194.001c12 -19.333 18 -44.666 18 -75.999v-70l-12 -12l-6 29l-6 -6h-6c2 -15.333 8 -23 18 -23v-12l-12 -29h-17c-34.667 44 -54.334 87 -59.001 129v53h12l6 5
l6 -5l46 -82v-12h6v12c-26 78 -51.333 136.333 -76 175v118zM298.001 447h12l18 -24l-6 -6v-5c7.33301 -22 21 -41.667 41 -59v-6l-30 -6l-35 71l6 5v6zM128.001 435h6l6 -6c8 0 12 -11.667 12 -35l17 -6v6l-11 35l6 6h5c25.333 0 41 -15.667 47 -47l-6 -6l6 -29v-12h-64
l-41 59c4 23.333 9.66699 35 17 35zM386.001 435h71c15.333 -7.33301 23 -21 23 -41h6v18l-6 17l6 6h23l12 -12v-76h-12l-6 6h-5l-12 -12h-53c-8 0 -12 6 -12 18h-5c0 -12 -4 -18 -12 -18c-23.333 0 -35 27.333 -35 82zM263.001 277v-18l6 -17l-6 -24c8 0 12 -13.667 12 -41
h6v53l-12 47h-6zM275.001 482h12l11 -24l-11 -11h-6zM23.001 417h12l17 -70h-29l6 18l-6 29v23zM222.001 218h12l12 -35l-6 -6v-6l6 -23h-12l-12 12v58z" />
    <glyph glyph-name="comma" unicode="," horiz-adv-x="241" 
d="M165 93l4 -4c-10.667 -33.333 -19.667 -51.333 -27 -54l-4 4l-99 -36l-5 4c11.333 54.667 20.333 82 27 82zM111 17v-10h-9v-4h4l23 4l4 -4v-4c-29.333 -69.333 -54.666 -104 -75.999 -104l-46 -5l-4 5v4c7.33301 57.333 20.666 86 39.999 86l18 4l-4 5v5zM124 57v-4h9v4
h-9z" />
    <glyph glyph-name="hyphen" unicode="-" horiz-adv-x="394" 
d="M30 350h326l16 -15v-93l-16 -15h-326l-16 15v93z" />
    <glyph glyph-name="period" unicode="." horiz-adv-x="305" 
d="M78 86l46.999 44.001c5.33301 4.66699 10.666 7 15.999 7c4.66699 0 10.334 -2.66699 17.001 -8l45 -45c4 -5.33301 6 -10.333 6 -15s-2.33301 -9.66699 -7 -15l-45 -46c-7.33301 -6.66699 -12.666 -10 -15.999 -10c-6 0 -11.333 2.33301 -16 7l-50 52
c-3.33301 4.66699 -5 9 -5 13c0 5.33301 2.66699 10.666 8 15.999z" />
    <glyph glyph-name="slash" unicode="/" horiz-adv-x="313" 
d="M77 -29h-71l268 734h71z" />
    <glyph glyph-name="zero" unicode="0" horiz-adv-x="582" 
d="M251 699l14.001 -12.999l13 13h14c92.667 0 153.667 -40.667 183 -122c13.333 0 20 -11.333 20 -34l7 7h7c27.333 -54 41 -124.333 41 -211v-34l-21 -20c-4.66699 12 -27.334 30 -68.001 54v-6l41 -28v-13h-13v-14c14 0 29.667 -13.667 47 -41v-13l-14 -14
c-104 10.667 -156 22 -156 34c4.66699 60 11.667 94 21 102l-14 20v7l-13 116l34 -7l6 7v6c-40.667 12.667 -61 28.667 -61 48l-54 40c-72.667 -17.333 -109 -76 -109 -176v-74c0 -9.33301 -6.66699 -14 -20 -14c-12 1.33301 -21 12.666 -27 33.999
c-29.333 0 -56.666 20.333 -81.999 61c-12 0 -23 11.333 -33 34h-7c6 27.333 12.667 41 20 41l41 -21v7l-34 27l-7 -7v14c12 54 30.333 81 55 81h6l-6 7v14c51.333 58.667 107.666 88 168.999 88zM295.001 434.001v-4.99902c0 -6.66699 12.667 -24.334 38 -53.001h5z
M105.001 391.002v-15l23 -4c-1.33301 6 -9 12.333 -23 19zM14.001 400.002l54 -47l-7 -34l-27 7l-20 -7c17.333 -27.333 33 -41 47 -41v-13c-40.667 0 -61 15.667 -61 47l7 7l-7 34v34zM14.001 258.002l27 -0.000976562c31.333 0 60.666 -22.667 87.999 -68
c25.333 -34 52.333 -61.333 81 -82v-20h-13l13 -13l7 7c0 -9.33301 16 -27.666 48 -54.999l13 -13v-14h-20l-150 108h-13v-6c22 0 53.667 -27 95 -81v-7h-7c-61.333 25.333 -108.666 68.333 -141.999 129l-27 101v14zM500.001 162.001c10 0 15 -6.33301 15 -19h5
c0 9.33301 3 14 9 14l5 -5v-4l-5 -5l5 -5v-19l-14 -29c-19.333 2.66699 -29 25 -29 67l5 5h4zM366.001 210.001c104 -4 156 -13 156 -27l-13 -40h-7l-7 6h-6v-6l6 -28c-52 -62.667 -97 -94 -135 -94c0 8.66699 -25 37.667 -75 87v7c50 35.333 75 67 75 95h6z
M276.001 128.001v-4c6.66699 0 10 -5 10 -15h5v10zM496.001 76.001v-5c0 -16 -5 -25.333 -15 -28l-4 5v4zM338.001 415.001l10 -10v-5l-10 10v5zM86.001 396.001l-15 14h10l9 -10v-4h-4zM329.001 362.001l14 -19h-10zM109.001 348.001h-9v5h9v-5zM95.001 338.001l5 -5l-5 -4
l-19 9v5h5l9 -10zM102.001 339.001l74 -54v-7l-13 -13l-61 68v6zM100.001 333.001l19 -19h-10zM367.001 324.001h5v-10h-5v10zM329.001 300.001l9 -9v-5h-5l-14 5zM169.001 237.001l14 -13v-7h-14l-13 14v6h13zM424.001 57.001v-5l-5 -4h-14l14 14z" />
    <glyph glyph-name="one" unicode="1" horiz-adv-x="415" 
d="M191 699h78l6 -7h8c-23.333 -52 -40 -78 -50 -78l-7 8h-7v-8l14 -14l-14 -14c-10.667 0 -36.667 23.667 -78 71v-7l71 -92l-28 -63h-15v56l-141 -56h-7l-21 127l169 63c0 -12.667 19 -31.667 57 -57h7v8l-42 49v14zM318 699h14l14 -14v-35l-14 -14
c-10 18.667 -21.667 28 -35 28v14zM283 657h14l49 -50v-85h-7l-35 29h-7l49 -56v-481l-14 -14h-148l-15 14v403c29.333 84.667 53 127 71 127l35 -49l22 6l-57 64v7h29l-15 21z" />
    <glyph glyph-name="two" unicode="2" horiz-adv-x="541" 
d="M246 702l21 0.000976562l124 -111v7l-90 90v7c68 0 109.667 -25.333 125 -76c50.667 -38.667 76 -71 76 -97l-14 -14l-7 7v7l7 7l-21 41h-7l-6 -20l48 -77v-7c0 -10 -11.667 -16.667 -35 -20v-14l28 14l7 -8c-9.33301 -36.667 -25.333 -64.334 -48 -83.001
c-6 -22.667 -13 -34 -21 -34l-111 104l7 48v7c0 60 -44 90 -132 90l-28 -7l-34 28c-0.666992 11.333 -21.667 34.666 -63 69.999c10.667 22.667 68.667 36.334 174 41.001zM38 654.001h21c0 -18 27.667 -48.333 83 -91l6 7l7 -7v-6l-7 -35h-20l-7 28l-42 -21l-27 13v-13h-8
l-41 104zM3 397.001l14 0.000976562c9.33301 0 16.333 -14 21 -42h14c0 14 4.33301 21 13 21l7 -6v-8l-13 -20l13 -14c-4.66699 -18.667 -23 -44.334 -55 -77.001h-7v15h-7l-21 -8v8l14 27l-14 14l14 42c-9.33301 0 -14 7 -14 21c7.33301 18 14.333 27 21 27zM308 397.002
l6.99805 -0.000976562c48.667 -37.333 83.334 -69.666 104.001 -96.999v-7c0 -14 -9.33301 -21 -28 -21v-14h-14c-15.333 24 -47.666 56.333 -96.999 97v7zM251.998 328.001c14 -6 37.333 -31.666 70 -76.999v-13c-42 -33.333 -63 -54.333 -63 -63h8l69 63h14v-7l-98 -90
h125l21 -14l42 14l35 -35v-7c-23.333 -32.667 -49 -49 -77 -49l7 -7v-6l-42 -35h-69l-14 14l63 62h-14c-41.333 -50.667 -90 -76 -146 -76h-145l-7 7h-7c0 17.333 25.333 42.666 76 75.999v7h-7l-55 -21l-35 35l194 166l42 -41l-35 48zM-39.002 238.002h14
c0 -26.667 -13.667 -50 -41 -70l-14 28c0 9.33301 9.33301 14 28 14zM92.998 50.002h7l90 77v7h-7c-39.333 -29.333 -69.333 -57.333 -90 -84zM508.998 37.002l14 -21l-7 -7v-7c-32.667 4.66699 -49 11.667 -49 21zM349.998 674.002l6 -7v-13l-6 7h-7v-7l97 -84v7z
M127.998 501.002h7v-7l-14 -14h-7v7zM51.998 432.002v-14h-14zM397.998 397.002v-14h14v14h-14zM-191.002 231.002h7v-21l-35 -7h-7v14zM-170.002 182.002h14v-7h-14v7zM487.998 141.002h28v-21h-14l-14 14v7zM-247.002 120.002h14v-7h-14v7zM9.99805 85.002l21 -35h-7
l-28 28l7 7h7zM2.99805 58.002l21 -21l-7 -7h-7l-7 7v21zM425.998 16.002h34v-14h-34v14z" />
    <glyph glyph-name="three" unicode="3" horiz-adv-x="601" 
d="M613 707l7 -7v-6l-54 -21v7c0 9.33301 15.667 18.333 47 27zM291 694l46.999 -0.000976562l13 -14l-20 -7v-6h7c13.333 0 20 6.66699 20 20h34v-14h13c34.667 0 57 -11 67 -33l-141 -87l-54 13v14l14 13c36 22 60.667 42 74 60h7v7h-7
c-75.333 -41.333 -124.666 -63.666 -147.999 -66.999c-41.333 -40.667 -75 -61 -101 -61h-7l-6 48v6h13v14h-13l-40 -27v-7c13.333 0 20 -4.33301 20 -13l-7 -7h-7l-6 7h-7l-14 -14h-20c-15.333 18 -31 27 -47 27c0 22.667 11 34 33 34l48 13l7 7h6l20 -7l-6 7v20
c48 36 117.333 54 208 54zM512.999 605.999l6.99902 -6v-20c-45.333 -18 -94.666 -45 -147.999 -81l-7 6v7c0 28.667 22.333 46.667 67 54c0 8 27 21.333 81 40zM532.998 565.999l0.000976562 -13.002c0 -9.33301 -13.667 -16.333 -41 -21l7 -6v-7
c-62 -49.333 -97.667 -74 -107 -74c-42.667 -58 -85.334 -94 -128.001 -108v-13c74 34 118.667 58.667 134 74l27 -7l7 21l-7 20l95 33l6 -7v-6c-44 -49.333 -77.667 -74 -101 -74c90 -47.333 135 -92 135 -134l6 -34v-21c-17.333 -24.667 -51 -46.667 -101 -66l-6 -7v-7h6
l88 47v-7c-38.667 -98.667 -139.667 -148 -303 -148h-6l-34 27l-20 -7l-61 48l34 13v7h-13c0 8.66699 6.66699 13 20 13v14l-61 -20c-17.333 18 -26 33.667 -26 47h-7c0 -18 -11.333 -27 -34 -27l-6 7v6l53 47l27 -13l7 6c0 -15.333 42.333 -28.666 127 -39.999v-13l-6 -7
l-61 -20v-7h14v-7l-20 -27h13c31.333 36 58.333 54 81 54l74 -67l-48 67v14c0 6.66699 25 24.334 75 53.001l6 -6c40 26.667 69 40 87 40l-6 7v6l20 41c-37.333 -5.33301 -64.333 -14.333 -81 -27h-13c0 38.667 -38 65.667 -114 81v6l-7 -6h-81l-6 -7h-7l7 33v75l13 13h34
c76.667 0 128 22.333 154 67l142 74h13zM135.999 296.997c9.33301 0 14 -13.333 14 -40h6l21 14l6 -7c0 -45.333 -13.333 -68 -40 -68c0 -18 -6.66699 -27 -20 -27v14h-14l-6 -7h-7v7l13 20l-6 20l13 27l-7 27zM384.999 142.997l-7 6v7c-31.333 -15.333 -47 -26.333 -47 -33
h7l100 33v7h-20zM82.999 108.997l13 -19.999c0 -6.66699 -9 -13.334 -27 -20.001l-6 6c5.33301 22.667 12 34 20 34zM-5.00098 81.998v-27l-14 -13l-33 6v7c7.33301 18 23 27 47 27zM128.999 54.998l21 -20v-7l-7 7h-7l-13 -14c-18 7.33301 -27 14.333 -27 21v6z
M-92.001 747.998h13v-14h-13v14zM-79.001 639.998l34 -34h-27l-20 20zM162.999 605.998h7l13 14h-6zM552.999 585.998v-20l-13 14l6 6h7zM505.999 531.998h14v-13h-14v13zM337.999 417.998v-6h13v6h-13zM-52.001 175.998v-13l-33 -7v13zM196.999 122.998v-7h13v7h-13z
M-85.001 68.998h13v-14h-13v14z" />
    <glyph glyph-name="four" unicode="4" horiz-adv-x="582" 
d="M-9 859h6.99902c10 0 18.333 -17.333 25 -52h13c2.66699 17.333 9.33398 26 20.001 26l6 -6v-14l-13 -19l13 -19c0 -30 -15 -47.333 -45 -52l-19 -45h-13l6 7v19l-32 -7v7l13 32l-7 7h-6l19 58c-12.667 0 -19 4 -19 12v14zM281.999 710h12l7 -25
c-10.667 0 -17 -8.66699 -19 -26h-13v19zM-61.001 665v-32c-21.333 -20 -32 -35 -32 -45h-13v6l7 19h-20v7zM235.999 639c22 0 32.999 -8.66699 32.999 -26h13l77 26h91l12 -13v-25c0 -18 -51.333 -46 -154 -84c-23.333 -30 -55.666 -45 -96.999 -45l6 -7v-13l-65 -26v-13
c22.667 13.333 53 22 91 26v7h-13v12l52 14v-7l-116 -187v-7h142v84l77 20v6h-13l-64 -13v71l6 7l-6 6v32c8.66699 22 58 41.333 148 58h6v-25l-12 -20l12 -13v-213h72l12 -13v-96l-12 -14h-72v-135l-12 -13h-130l-12 13v135h-291l-13 14v90
c142 205.333 213 319.333 213 342c0 12.667 6.33301 19 19 19v26zM578.998 71l13 -13l6 6h26v-6l-20 -19c-25.333 4 -38 10.333 -38 19zM384.998 704h19l-12 -13h-7v13zM307.998 665h12v-6h-12v6zM287.998 639h6v-13h-6v13zM242.998 510v-6h13v6h-13zM500.998 116h7v-12h-7
v12zM591.998 110h6v-13h-6v13z" />
    <glyph glyph-name="five" unicode="5" horiz-adv-x="541" 
d="M94 698h239c23.333 0 76 -36.333 158 -109v-14l-14 -13h-260c-13.333 0 -20 -32 -20 -96l20 7c163.333 0 261.333 -55 294 -165l7 -55v-20c0 -110.667 -84.333 -183.667 -253 -219l-68 -7c-43.333 0 -107.333 11.667 -192 35l20 123h7l172 -28
c90.667 0 136 36.667 136 110c0 68 -73 102 -219 102l-75 -7l-7 7v7c26.667 228 45 342 55 342zM395 698h82l14 -13v-48l-14 -14c-22 26 -49.333 46.667 -82 62v13zM580 206h20.001l27 -28v-7l-6 7l-7 -7h-14c-10.667 0 -17.334 11.667 -20.001 35zM-69.999 178l13 -13
l-13 -48l7 7h13l14 -14c-20 -4.66699 -31.333 -16 -34 -34l-34 -14l-14 14l-41 -14v7l7 7v7c-14 0 -21 4.33301 -21 13c8.66699 0 36 27.333 82 82h21zM573.001 233h13v-14h-13v14zM-227.999 89h21v-6l-21 -21l-13 14z" />
    <glyph glyph-name="six" unicode="6" horiz-adv-x="580" 
d="M460 697l14 -14v-60c0 -34 -7 -52.333 -21 -55c-10 0 -21.333 25 -34 75h7l20 -7l-13 54l6 7h21zM358 690l14.0029 -27.002l7 7h14l13 -54l-34 -54c-9.33301 0 -14 6.66699 -14 20h-6c0 -22.667 -20.333 -34 -61 -34c-72 -49.333 -108 -90 -108 -122h6l48 27
c19.333 -45.333 39.666 -77 60.999 -95v35l-21 67l7 7h68c27.333 -3.33301 41 -10.333 41 -21l20 7c12 0 30 -20 54 -60c8 0 21.333 -16 40 -48v-13c-8.66699 0 -13 6.66699 -13 20h-7v-14c2 -12 13.333 -21 34 -27l7 27c12 0 21 -31.333 27 -94l-7 -7h-7l7 -7v-27
c0 -23.333 -6.66699 -37 -20 -41h-14l-40 68l-7 -7h-7c-10.667 0 -26.334 34 -47.001 102c-10 4.66699 -23.667 29.334 -41 74.001h-7v-6l135 -285v-6l-13 -14h-13c0 13.333 -4.66699 20 -14 20l-7 -6v-7l14 -21v-13h-14l-27 61h7l-54 108c0 81.333 -38.333 122 -115 122
c-18.667 0 -45.667 -13.667 -81 -41c-22.667 34.667 -36.334 66.334 -41.001 95.001h-7v-20l34 -109v-20h-7c-103.333 61.333 -155 99.666 -155 114.999c37.333 148.667 87 223 149 223l-7 7v7c43.333 36.667 95 59 155 67l7 -6c0 10.667 15.667 17.334 47 20.001z
M413.003 432.998l-7 -34l68 -128l6 6h7v-13h7v7l-34 47l7 7c0 28 -18 64 -54 108zM0.00292969 331.998l13.999 -0.000976562c112.667 -69.333 169 -114.666 169 -135.999c17.333 -49.333 51 -74 101 -74c10.667 0 24.334 -11.333 41.001 -34c0 18 4.33301 27 13 27
c34 -32.667 63.333 -53 88 -61v-20c-58.667 -22.667 -106 -34 -142 -34c-189.333 18 -284 112.667 -284 284v48zM365.002 182.997h7l47 -95l-6 -7h-7l-68 61c18 9.33301 27 23 27 41zM379.002 689.997h20l14 -14v-6h-20v13l-7 -7h-7v14zM162.002 554.997v-7l14 -14v7z
M264.002 459.997v-21l-14 14l7 7h7zM507.002 371.997h14v-20l-14 13v7zM203.002 141.997v-14h6v14h-6zM345.002 46.9971v-6l7 -20h6v6l-6 20h-7z" />
    <glyph glyph-name="seven" unicode="7" horiz-adv-x="582" 
d="M15 700h508.001l14 -14v-70c-96.667 -214.667 -162.334 -339.334 -197.001 -374.001h-14v14h-8v-7l8 -21l-8 -7h-6l-15 14v-22c14 0 21 -4.33301 21 -13v-8c0 -17.333 -32.667 -80.666 -98 -189.999h-177v7l297 550h-325l-14 14v113zM-19.999 475c9.33301 0 14 -7 14 -21
l7 6h7l7 -6v-29c0 -6.66699 -9.33301 -13.667 -28 -21v-14h-7l-14 14v28l7 7l-7 7v14zM530.001 425h14v-28h-14v28zM-54.999 383h7v-14l-15 -15h-20zM368.001 369v-7h14v7h-14zM523.001 369h14l43 -42v-8l-7 -6v-8l-8 8h-6l-22 -8l-14 22v42zM255.001 298v-14l14 14h-14z
M297.001 277h8l13 14h-6zM185.001 221l14 -14v14h14v-14h7l28 14v7h-14l-7 -7l-7 21h-7l-22 -21h-6zM227.001 143v-7h14v7h-14z" />
    <glyph glyph-name="eight" unicode="8" horiz-adv-x="541" 
d="M244 697h47.001c84 0 149.333 -29.333 196 -88v-7h-13c26.667 -18 40 -42.667 40 -74v-14c0 -60.667 -33.667 -105.667 -101 -135v-7c85.333 -32.667 128 -82.334 128 -149.001v-54c-40.667 -98.667 -94.667 -148 -162 -148c0 -9.33301 -20.333 -14 -61 -14l-20 7
c0 -9.33301 -7 -14 -21 -14c-36 0 -63 7 -81 21l-13 -14c-122 34.667 -183 95.334 -183 182.001v27c5.33301 36.667 14.333 55 27 55l20 -27h7l20 33l-20 21h7l-7 7v6c19.333 27.333 39.666 41 60.999 41v6c0 9.33301 -6.66699 14 -20 14l-7 7v7
c13.333 12.667 22.333 30.667 27 54c30 0 48 9 54 27v20h-13c0 -18 -4.66699 -27 -14 -27h-7c-13.333 4.66699 -20 18 -20 40l13 14c-16 36 -34 54 -54 54l7 -6v-34l-13 -14h-7l-7 27l7 27v7h-14v-54l7 -41l-7 -34l14 -13v-20c-26.667 17.333 -40 51 -40 101
c0 76 51.667 132.333 155 169h13c6 -22.667 13 -34 21 -34h6l-20 41h7zM169.001 535c26 -72.667 64.332 -109.001 114.999 -109.001c45.333 16.667 68 41.334 68 74.001v14c0 49.333 -29.333 74 -88 74c-33.333 -5.33301 -62.666 -23 -87.999 -53h-7zM156 222.999v-13.001
l7 6h13v-20l-7 -7v-6c27.333 -45.333 61.333 -68 102 -68h13c54 15.333 81 33.333 81 54v41c0 39.333 -36 71 -108 95c-33.333 -11.333 -67 -38.666 -101 -81.999zM68 243.998c8.66699 0 13 -7 13 -21h7c0 14 4.66699 21 14 21l6 -7v7l-6 27zM81 134.998
c9.33301 0 14.001 -6.66699 14.001 -20l7 -7h20v7l-14 20c5.33301 22.667 23.666 34 54.999 34v7c-14 0 -21 4.33301 -21 13l7 7v7h-7c-24 0 -44.333 -22.667 -61 -68zM730.001 141.998h14c9.33301 0 14 -6.66699 14 -20l-14 -27h27l-47 -48l-61 21v13
c10.667 0 33 20.333 67 61zM257.001 628.998l-7 -6v-7l27 -14h7zM433.001 628.998v-13l13 -14h21zM122.001 601.998v-14h6v14h-6zM832.001 506.998h14v-101h-14v101zM102.001 459.998h6v-14h-6v14zM142.001 364.998v-20h7v20h-7zM223.001 364.998v-13h7v13h-7z
M81.001 304.998v-7h14v7h-14zM74.001 182.998v-7h14v7h-14zM588.001 80.998l48 -7v-13l-34 -7h-20zM122.001 67.998v-7h13v7h-13zM149.001 53.998l14 -13v13h-14z" />
    <glyph glyph-name="nine" unicode="9" horiz-adv-x="580" 
d="M283 695c113.333 0 192.333 -56.333 237 -169v-13l-14 -14h-7l-61 81c-49.333 36 -87.333 54 -114 54l-54 54l6 7h7zM196 688l80.001 -60.999l-40 -6l-20 6l7 -6v-7l-7 -7c13.333 0 20 -4.33301 20 -13h-20c-16.667 28 -39.334 45.667 -68.001 53l-6 -6l-7 6v7
c0 9.33301 20.333 20.666 61 33.999zM108.001 647.001h7c56 -44.667 89.667 -67 101 -67v-14c-24.667 -20 -42.667 -58 -54 -114c-44 24 -66.667 39.667 -68 47l-6 -7h-7c-40.667 26 -61 46.333 -61 61c16.667 36.667 46 68 88 94zM276.001 607.001
c27.333 -7.33301 41 -18.666 41 -33.999c10.667 0 44.334 -24.667 101.001 -74l7 7h7c0 -9.33301 36 -25.333 108 -48v-114c0 -6.66699 -9 -13.334 -27 -20.001l-7 7v6h14v7h-14v20c13.333 0 20 4.66699 20 14c-20.667 0 -43.334 22.333 -68.001 67
c-13.333 0 -42.333 25 -87 75c-67.333 45.333 -101 72.333 -101 81zM41.001 520.001l141 -108c16.667 -36.667 46 -55 88 -55l27 7c13.333 0 53.666 -33.667 120.999 -101l20 -13h7l-7 6v20l48 -13l-54 47h6c58.667 -8.66699 88 -17.667 88 -27
c0 -68 -58.333 -144.333 -175 -229c-73.333 -31.333 -138.666 -47 -195.999 -47h-81l-13 13v102l6 6v7l21 -7c146.667 0 238.667 51.667 276 155v7c-36 -31.333 -81 -47 -135 -47c-152.667 14.667 -229 82 -229 202v54l14 14l6 -7h7zM371.001 499.001l121 -108v-13
c-16 0 -34 9 -54 27l-6 -7h-7l-61 67l-7 27l7 7h7zM364.001 405.001c20 -21.333 62.667 -39.333 128 -54l7 -7v-13h-7l-155 33v14zM412.001 196.001v-21l20 -20v13c-7.33301 18.667 -14 28 -20 28zM647.001 67.001c32 -5.33301 47.999 -12 47.999 -20l7 7h13l14 -13v-7
c0 -9.33301 -9 -14 -27 -14l6 -6v-7l-6 -7c-29.333 0 -49.666 15.667 -60.999 47zM168 654.001v-7h14v7h-14zM310 634.001v-13l-27 -7l-7 7v6zM101 540.001v-7l34 -7v7l-20 20zM155 513.001v-7h13v7h-13zM41 486.001v-7h13v7h-13zM520 458.001v-13h13zM331 310.001v-6h13v6
h-13zM391 229.001v-13h14zM641 189.001h13v-7h-13v7zM607 115.001l27 -34h-13l-14 13v21z" />
    <glyph glyph-name="colon" unicode=":" horiz-adv-x="305" 
d="M88 490h6v-12h-19v-7h7l56 7h7l31 -32c0 -12.667 -44 -25 -132 -37l-19 6l-19 -6l-6 6v6c0 12.667 25 19 75 19l-6 6v7h13v6h-7l-56 -13c0 24 23 38.667 69 44zM170 396h18c0 -42 -31.333 -71.333 -94 -88l-37 6v6l6 7v6h-13l-19 -6l-31 50l6 6h19v-12h6zM94 182
c62.667 -5.33301 94 -36.666 94 -93.999c0 -48 -31.333 -77.333 -94 -88c-62.667 7.33301 -94 36.666 -94 87.999v6c-0 52.667 31.333 82 94 88zM57 471v-6h12v6h-12zM38 465v-6h12v6h-12zM69 339v-6h13v6h-13z" />
    <glyph glyph-name="semicolon" unicode=";" horiz-adv-x="305" 
d="M132 488c28.667 0 49.666 -22.667 62.999 -68v-5c-5.33301 -52.667 -31.666 -79 -78.999 -79c-48.667 10 -73 31 -73 63v6h11v5c-10.667 0 -16 3.33301 -16 10c0 40 31.333 62.667 94 68zM173.999 232h5l6 -5h4c-10 -42 -29 -63 -57 -63v-5h11l15 5l6 -5
c-44 -104.667 -77.333 -157 -100 -157l-63 -5l-5 5v5l58 183l26 5v6h-26v15c0 10.667 40 16 120 16zM84.999 211v-10l37 5v5h-37zM32.999 96v-5h10v5h-10z" />
    <glyph glyph-name="semicolon" unicode="&#x37e;" horiz-adv-x="305" 
d="M132 488c28.667 0 49.666 -22.667 62.999 -68v-5c-5.33301 -52.667 -31.666 -79 -78.999 -79c-48.667 10 -73 31 -73 63v6h11v5c-10.667 0 -16 3.33301 -16 10c0 40 31.333 62.667 94 68zM173.999 232h5l6 -5h4c-10 -42 -29 -63 -57 -63v-5h11l15 5l6 -5
c-44 -104.667 -77.333 -157 -100 -157l-63 -5l-5 5v5l58 183l26 5v6h-26v15c0 10.667 40 16 120 16zM84.999 211v-10l37 5v5h-37zM32.999 96v-5h10v5h-10z" />
    <glyph glyph-name="less" unicode="&#x3c;" horiz-adv-x="541" 
d="M478 490l5.99902 -6v-86c-12.667 -16 -125 -63 -337 -141h-6l-25 74c24.667 16 145.334 69 362.001 159zM91.999 325c8.66699 -9.33301 23 -48.334 43 -117.001v-37h-12v19h-7v-37c-77.333 16.667 -116 49.334 -116 98.001v24c0 10 30.667 26.667 92 50zM158.999 220.999
h7c126 -44 189 -70.667 189 -80l-98 -49l-55 18l-6 -6l6 -6v-12l-12 -12h-24l-13 12l37 30zM403.999 127.999c53.333 -20 80 -34 80 -42v-25l-80 -37l-129 56v12zM97.999 238.999v-12h6v12h-6zM103.999 220.999v-7l6 -18h6v6l-6 19h-6zM146.999 152.999h12v-18l-12 12v6z
M134.999 85.999l6 -6v-6h-18zM471.999 42.999h6v-12h-19zM471.999 18.999l12 -13v-6h-19l-12 12l6 7h13z" />
    <glyph glyph-name="equal" unicode="=" horiz-adv-x="541" 
d="M15 476h509l13 -13v-69l-13 -13h-509l-13 13v69zM15 280h509l13 -12v-69l-13 -13h-509l-13 13v69z" />
    <glyph glyph-name="greater" unicode="&#x3e;" horiz-adv-x="541" 
d="M12 489c28.667 -7.33301 42.999 -19.667 42.999 -37l18 12c0 -8 10.333 -12 31 -12l6 -6v-7l-6 -5h12l6 5h6c44.667 -18 67 -30 67 -36c-20 -5.33301 -30 -11.333 -30 -18h6l55 12c82.667 -34 129.334 -56.333 140.001 -67l-140 -31c-132.667 50 -208 82.667 -226 98
c-0 36.667 14.333 55 43 55v6h-24l-7 -6h-6l-6 6v18zM384.999 329.999l97 -49v-73c0 -16 -126 -71 -378 -165l-49 -12l-6 6h-6l-24 -6v-7h36v-12l-55 -12v6l12 18l-12 13v30l6 6l-6 7v5c0 11.333 122 62.333 366 153v6c-60.667 22 -91 36.333 -91 43v6zM72.999 433.999v-7
h25v7h-25zM414.999 280.999v-6h12v6h-12zM18.999 84.999v-5h18l36 12v6h-24z" />
    <glyph glyph-name="question" unicode="?" horiz-adv-x="410" 
d="M55 701h11c11.333 -10.667 24.333 -16 39 -16l-5 -6v-6l5 -16h-5l-6 6h-6c0 -8 -12.667 -12 -38 -12l-11 -10h-6l-16 16c0 7.33301 5.33301 11 16 11l6 5v6h-11v17h5l6 -6h5zM144 663l16 -17.0029l-5 -5c69.333 -13.333 113.333 -30 132 -50l11 -17
c0 -7.33301 -7.33301 -11 -22 -11v-17h-5l-6 6h-6v-28h17c7.33301 0 14.666 11.333 21.999 34h17l5 -17c0 -49.333 -9.33301 -78.666 -28 -87.999c11.333 0 17 -5.66699 17 -17c-16 -33.333 -36 -53.666 -60 -60.999l-6 -16l6 -5v-17h-6l-6 5h-5l-33 -77l5 -6v-10l-5 -6v-6
h5l17 12h6l-6 -28v-6c10.667 0 16 -3.66699 16 -11v-38c11.333 0 17 -3.66699 17 -11v-17c0 -6.66699 -11 -16 -33 -28c0 -15.333 -9.33301 -31.666 -28 -48.999l22 -6l34 6l10 -17v-5c0 -7.33301 -9 -11 -27 -11v-6l11 -17l-6 -5h-5l-5 5l-28 -5h-6l-11 11v11
c-18 2.66699 -27 8.33398 -27 17.001v5h11v6l-22 11h-6l-16 -11c-40.667 7.33301 -61 25.666 -61 54.999v22h11c7.33301 0 11 -5.66699 11 -17l5 -5h6l6 5v6l-6 16h6l22 -5h49v11h-44l-5 6h-6l6 5v22l-17 6c0 -7.33301 -5.66699 -11 -17 -11l6 -6v-5l-11 -11h-11l-11 11
c12 25.333 26.667 38 44 38l5 -5l17 16h5c0 -10.667 7.66699 -16 23 -16l27 27v28l-5 -6h-89l-11 12l6 5l-6 5v6l11 22h6c7.33301 0 11 -5.33301 11 -16h17v5l-22 39l-12 -11v5l12 17l-6 5v6l88 127v33c-4 10.667 -22.333 23.667 -55 39v5h-5
c-14 -11.333 -41.667 -20.333 -83 -27l-6 -6h-5l-11 33c10.667 0 16 9.33301 16 28l28 27l-6 17h6c18.667 14.667 46.334 22 83.001 22v11c-11.333 0 -17 3.66699 -17 11l5 6h12zM17 606.997l21.999 -11c-9.33301 -25.333 -16.666 -38 -21.999 -38h-6l-11 38z
M226.999 418.997v-22l10 -11l28 6l-11 17l5 16h-10v6c0 10 9 15.333 27 16l-11 11c-17.333 -8 -30 -21 -38 -39zM148.999 380.997l-0.000976562 -17c2.66699 -18 8.33398 -27 17.001 -27v11h5l-16 27v6h-6zM242.998 330.997v-5.00098l6 5h5l11 -11
c-22 -17.333 -33 -33.666 -33 -48.999h-5l-6 44zM38.998 601.996h11v-6h-11v6zM99.998 573.996v-11h5v11h-5zM198.998 568.996v-6h11v6h-11zM209.998 540.996v-11h5v11h-5zM242.998 518.996v-11h16v6zM258.998 474.996v-11l12 11h-12zM402.998 474.996h11v-6h-11v6z
M380.998 441.996l11 -11h-11v11zM325.998 369.996h11v-11h-11v11zM391.998 358.996l5 -5v-6l-27 -22l-11 11zM121.998 314.996l5 -17h5l12 39v5zM126.998 291.996v-10h11v10h-11zM143.998 181.996v-5h11v5h-11zM192.998 137.996v-11h22v11h-22z" />
    <glyph glyph-name="at" unicode="@" horiz-adv-x="780" 
d="M352 703h33l13 -13v-33c0 -14.667 -28.667 -23.667 -86 -27l-7 7v7l13 13v6c-26.667 -35.333 -50.667 -53 -72 -53c0 46 19.667 72.667 59 80zM424 703h27c57.333 -3.33301 86 -12.333 86 -27l-6 -19v-7h6l7 26h6c30 -0.666992 65.667 -22.667 107 -66v-6
c0 -58 -9 -87 -27 -87c-48.667 84.667 -121.667 127 -219 127v6l33 33zM232 670v-7.00098c-63.333 -65.333 -101 -122.666 -113 -171.999c-8.66699 0 -13 -11 -13 -33l-6 -7l-34 -13l7 -7v-20l-20 -20l-13 14l26 59h-13l-27 -59h-13v6c18 79.333 73.333 157 166 233z
M696 563.999c26.667 -43.333 40 -92.001 40 -146.001v-7c0 -91.333 -30.667 -159.666 -92 -204.999h-14v6c0 62 6.66699 93 20 93l-6 7v6c10 164 27.333 246 52 246zM418 543.998h40.001l13 -13v-7l-13 -53h-7v13h-7c-23.333 -20.667 -56.333 -34 -99 -40l13 34
c-9.33301 -2 -18 -13.333 -26 -34l6 -6l-119 -133l-33 -46h-7l-7 33c0 107.333 46.667 182.333 140 225c13.333 9.33301 48.666 18.333 105.999 27zM544.001 523.998l13 -26c-22 -108 -33 -183.333 -33 -226c0 -17.333 8.66699 -28.333 26 -33l-19 -33v-7h6
c0 18.667 24.333 43 73 73l7 -7v-6c0 -58 -20 -87 -60 -87h-33c-49.333 0 -78 24.667 -86 74h-7c-6 -18.667 -17 -32 -33 -40h-7l-6 6h-7c0 -17.333 -6.66699 -26 -20 -26h-6v6l66 106h6v7h-13v7l27 46l-7 7h-7l20 66h7l7 -7h6l7 7v27l-7 -7h-6v13l13 14
c0 -13.333 6.66699 -20 20 -20v-14h13l-6 7v7l13 26h-7l-20 -6l-6 6v7c0 11.333 13 20 39 26v-6zM796.001 450.998l7 -6.99902v-6c0 -10.667 -11 -17.334 -33 -20.001c8 20 16.667 31 26 33zM80.001 337.999l13.001 -12.999v-7l-13 -20c13.333 -16 20 -31.333 20 -46
c-10.667 0 -17.334 -15.333 -20.001 -46l6 -7h7l7 20h13l6 -20c-7.33301 0 -20.333 -24.333 -39 -73h-14l20 53h-13l-7 -27h-13c-26 37.333 -39.333 68.666 -40 93.999c7.33301 0 23 30.667 47 92h20zM272.002 305h6l14 -13l-40 -106h-13l-20 13c10.667 30 26 47.667 46 53
l-6 7v6zM358.002 259v-13c-24.667 -44 -42.334 -68.667 -53.001 -74h-27l-13 14v6l7 7l46 53h7v-6l-7 -20c6.66699 0 13.334 8.66699 20.001 26l7 7h13zM172.002 139l26.999 -33c-9.33301 -26.667 -33.666 -40 -72.999 -40v20l20 7l-7 7v6zM517.001 100l14 -20v-14h-14v-13
h20v-20l-99 -26c0 8.66699 -9 13 -27 13v13c-8.66699 0 -13 -8.66699 -13 -26l-7 -7h-66c-22.667 0 -36 6.66699 -40 20l-7 -7h-26c0 16 11 38.333 33 67l33 -7h73c44.667 0 86.667 9 126 27zM226.001 66l13 -13l-27 -20l-6 7h-7l-7 -7l-6 7v6c4 13.333 17.333 20 40 20z
M597.001 644v-14h7v14h-7zM670.001 577h13v-13h-13v13zM517.001 504v-13l14 13h-14zM60.001 491v-13h6v13h-6zM411.001 484v-13l20 20zM829.001 411h13v-6h-13v6zM478.001 405l-7 -7v-26l20 26l-7 7h-6zM40.001 378l6 -6v-7l-39 -53l-7 6zM484.001 325l-13 -33v-7h7l13 27
v13h-7zM756.001 298h14v-6h-14v6zM239.001 212h13v14zM206.001 100h26v-14h-26v14zM431.001 33h13v13z" />
    <glyph glyph-name="A" unicode="A" horiz-adv-x="741" 
d="M236 696h141.999v-13h14v13h47c16.667 0 48.334 -87.667 95.001 -263l-7 6h-6l-7 -6l-48 6h-13l-27 -6l-27 6h-14v-6c58.667 -12 88 -21.333 88 -28l7 7l34 -7h20l-7 7v7l14 14l101 -311l-34 -27c13.333 0 20 -7 20 -21h14v21h14l27 -88l-7 -7h-129l-6 7l-7 -7h-34v7
l21 27l-7 7v-14h-27c-27.333 99.333 -45.333 149 -54 149h-190l-135 155c18 63.333 31.667 95 41 95l-7 7v6l54 149l40 -20l41 13v7h-13v14h7l6 -7l34 7l41 -7l13 20l-94 20v-13c-41.333 3.33301 -62 10 -62 20c11.333 36 20.333 54 27 54zM330.999 561
c0 -36 -13.333 -54 -40 -54v-7c13.333 0 20 -6.66699 20 -20l-7 -7h-7l7 -7v-7c0 -8.66699 -9 -13 -27 -13v-7c13.333 0 20 -4.33301 20 -13l-40 -129h155l-47 169h13v7h-20l14 20c-22.667 0 -34 22.667 -34 68h-7zM94.999 291h7c44.667 -40 82.667 -89.667 114 -149v-7h-7
l-121 129v7zM73.999 236l21 0.00195312c29.333 -23.333 54 -57 74 -101l40 -40l-20 -68h-13c0 9.33301 -16 29.666 -48 60.999c0 9.33301 -22.333 38.666 -67 87.999v7zM46.999 122.002l114.999 -115v-7h-148l-7 7h-7c24.667 76.667 40.334 115 47.001 115zM594.998 81.002
v-27h7v13c13.333 0 20 4.66699 20 14l-7 7zM398.998 642.002v-7h13v7h-13zM310.998 581.002v-6h13v6h-13zM270.998 493.002v-6h20v6h-20zM438.998 493.002v-6h14v6h-14z" />
    <glyph glyph-name="B" unicode="B" horiz-adv-x="595" 
d="M693 854l7.00098 -7v-7c-6.66699 0 -13.334 -9 -20.001 -27l-7 -6h-13v13zM540.001 787l7.00195 -6.99902v-7c0 -8.66699 -6.66699 -13 -20 -13v-40h-7c-6.66699 0 -13.334 9 -20.001 27c3.33301 15.333 16.666 28.666 39.999 39.999zM140.003 693.001h120
c0 -22 -13.333 -37.333 -40 -46v-7l13 -13c-10 -31.333 -25.333 -47 -46 -47l-34 -13l-20 7l-20 -7c-75.333 7.33301 -113 16 -113 26v14c0 8.66699 6.66699 13 20 13l7 20c-18 0 -27 6.66699 -27 20v13c0 13.333 46.667 20 140 20zM293.003 693.001l106.998 -20.0029v-13
l-40 7h-6v-7l80 -27l20 7l20 -20l6 7v6l-6 34l6 6h7l13 -13l7 20h13c0 -15.333 11.333 -37.666 34 -66.999l-7 -20c22 -5.33301 33 -11.666 33 -18.999v-7c0 -23.333 -6.66699 -36.666 -20 -39.999h-6c-18 9.33301 -27 20.333 -27 33h-7l-6 -26l6 -20
c0 -64.667 -42 -111.334 -126 -140.001v6l-27 -6v-7c120 0 180 -55.667 180 -167c0 -114 -93.333 -180.667 -280 -200h-114l-7 7l-6 -7h-67c-48.667 0 -73 6.66699 -73 20v7l7 6l-7 7v67c0 8.66699 6.66699 13 20 13l-7 6v7c19.333 18 37.333 27 54 27l-7 20l-33 -7v7
c15.333 46.667 37.333 82.334 66 107.001l-6 6v7c10.667 44.667 37.334 67 80.001 67v7h-34v20l20 46h14v-20h20c102 0 153 15.667 153 47l74 -20h6l-6 7v6l33 20v7c-19.333 0 -32.666 6.66699 -39.999 20l-33 -7h-14c-8.66699 0 -13 11.333 -13 34
c-21.333 30.667 -57 46 -107 46l-7 7l20 46h67v7l-47 7v20h14l-7 6v7zM7.00098 559.998l40.001 -20.001l20 7l26 -13l33 6c27.333 -4 41 -10.667 41 -20v-6c-36.667 -93.333 -61.334 -140 -74.001 -140l-6 6l6 7v7c-2 8.66699 -13 17.334 -33 26.001
c0 -26.667 -4.33301 -40 -13 -40l-7 7h-7l-26 -7l-7 7v47l7 6l-7 7v100l7 7v6zM13.002 366.997l13.999 -13l-14 -21l14 -40l-14 -26l47 40v-14c-13.333 -35.333 -26.666 -53 -39.999 -53l7 -7v-13h-14l-13 13v121zM167.001 306.997v-167l-7 -7v-7l7 -6h93
c51.333 0 91.333 29 120 87h7c-30 66.667 -81.333 100 -154 100h-66zM400.001 226.997c0 -9.33301 6.66699 -14 20 -14h20v7zM673.001 993.997h14v-14zM653.001 946.997h14v-13h-14v13zM607.001 846.997h20l-14 -14l-6 7v7zM300.001 666.997v-7h40v7h-40zM80.001 639.997
v-13h46l7 -7h7v13h-14zM460.001 493.997v-7h14v7h-14zM534.001 493.997h13v-14zM73.001 486.997l14 -13h20v13h-34zM113.001 486.997v-7h13v7h-13zM340.001 439.997v-6h27v6h-27zM7.00098 419.997v-6h13v6h-13zM33.001 413.997v-20l14 13v7h-14zM327.001 393.997v-7h13v7
h-13zM60.001 346.997h13l7 -20h-7l-13 13v7zM107.001 292.997v-6h13v6h-13zM80.001 199.997l-7 -7v-6h7l7 6v7h-7zM27.001 79.9971h13v13zM60.001 72.9971v-13h13zM47.001 32.9971v-6h13v6h-13zM80.001 26.9971v-14h27v20zM293.001 26.9971v-7h14v7h-14z" />
    <glyph glyph-name="C" unicode="C" horiz-adv-x="660" 
d="M354 696h111.999c84 -6 128 -16.667 132 -32c-13.333 -79.333 -26.666 -119 -39.999 -119c-24.667 12 -66 20.667 -124 26l-40 -6h-26l-7 6c-32.667 -21.333 -56.667 -32 -72 -32v6l-7 -6l-32 6h-33l-13 -13l26 -39h6l-46 -132h-6l-7 7l-26 -14c-32.667 0 -72 22 -118 66
l39 112l-6 20l19 -13l7 6l-7 7v13c12 0 25.333 6.33301 40 19h13v-13h13v13h-13v14l26 26h86v6h-46v14c44.667 30 92.667 45 144 45zM45.999 657l26 -73.001l-6 7h-13l-7 -33l7 -19l-7 -7h-26v20l-7 -7h-7l-6 7c3.33301 24.667 14.333 44.334 33 59.001v6l-20 27v6l20 -13
c0 13.333 4.33301 20 13 20zM98.999 649.999l6 -6.00098v-7l-39 -13v6c0 10.667 11 17.334 33 20.001zM163.999 570.998c17.333 0 26 -4.33301 26 -13l60 13c-2 12 -13 21 -33 27c-35.333 -7.33301 -53 -16.333 -53 -27zM39.999 387.998l32 -27l-6 -7
c-26.667 6 -40 13 -40 21zM32.999 353.998l59 -18.999l7 6h6c87.333 -50 131 -91.333 131 -124c0 -30.667 61.333 -61.334 184 -92.001l132 -105c-26 -13.333 -72 -20 -138 -20h-20c-159.333 0 -271 61.333 -335 184c-22 44.667 -33 93 -33 145v12l7 7v6zM98.999 774.999h6
l13 -13v-13h-19v26zM52.999 748.999h6v-14h-6v14zM308.999 649.999v-6h20v6h-20zM472.999 616.999v-6h33v6h-33zM255.999 583.999v-6h20v6h-20zM157.999 551.999v-13h6v13h-6zM19.999 531.999v-13h-14zM170.999 478.999l19 -19h20l13 13zM150.999 347.999h39l14 -13v-20
l-14 -13l-39 39v7zM98.999 229.999v-7l32 -13h33v7l-52 13h-13zM564.999 150.999l26 -118l-7 -7l-131 99v6z" />
    <glyph glyph-name="D" unicode="D" horiz-adv-x="723" 
d="M250 693c197.333 -1.33301 327.332 -58.667 389.999 -172h-14l-6 7h-7l-26 -7c-57.333 17.333 -86 32.666 -86 45.999v14c30.667 0 46 8.66699 46 26h-6l-33 -7c0 8.66699 -17.667 15.334 -53 20.001l-72 -7l-27 7l-20 -7l-72 13l-20 -6l-20 6v-6l-6 -7v-6
c145.333 -10.667 218 -30.667 218 -60v-6h-7c-140 35.333 -226 53 -258 53l-19 -7v7l6 6v7h-6l-7 -7h-6l6 -6v-7l-6 -6v-7l39 -7v14h72v-14l-52 -6v-185l-13 -20l13 -13v-20l-13 -13h-14l-19 6l-33 -6h-33l-33 6c34 -24 67 -41.333 99 -52l39 13l7 -6v-47l-13 -19l13 -14
v-66h92c86 0 154.333 46.333 205 139h13l20 -14l6 27h-39v99c0 40 -15.333 86.333 -46 139v13l171 -33c30.667 -10 46 -29.667 46 -59l7 -7l-66 -7v-6c48 0 72 -15.333 72 -46c0 -49.333 -11 -104.333 -33 -165l-33 6h-6l-7 -20l33 -13
c-67.333 -118.667 -192.666 -178 -375.999 -178h-138c-57.333 0 -86 6.66699 -86 20v185l13 13h7l7 -7l19 7v6c-30.667 0 -46 4.33301 -46 13v7l7 6l-14 66l-6 -6h-7l-13 13v33h7l26 -20v324c0 22 72.333 33 217 33zM91.999 362.999v-7l27 -6c0 8.66699 -6.66699 13 -20 13
h-7zM586.999 256.999v-20.001h26l33 -6v6c0 8.66699 -19.667 15.334 -59 20.001zM197.999 665.998v-6h13v6h-13zM85.999 580.998v-7h33v13zM78.999 546.998v-6h13v6h-13zM678.999 520.998h7v-6l-20 -20l-6 6v7zM-0.000976562 388.998h13v-19h-13v19zM639.999 375.998v-6h13
v6h-13zM144.999 362.998v-7h13v7h-13zM59.999 283.998l13 -13l6 6v7h-19zM375.999 230.998h13v-13h-13v13zM553.999 223.998v-6h13v6h-13zM573.999 223.998v-6h13v6h-13zM573.999 204.998l13 -14v14h-13zM553.999 197.998v-7h13v7h-13zM98.999 111.998v-7l46 -6l-13 20l7 6
h-14zM65.999 104.998v-6h13v6h-13zM157.999 98.998v-7h20v7h-20zM514.999 91.998v-6h26v6h-26z" />
    <glyph glyph-name="E" unicode="E" horiz-adv-x="562" 
d="M539 709h7c-10.667 -26.667 -19.667 -40 -27 -40l-7 7c8.66699 20.667 17.667 31.667 27 33zM14 703l320 -0.000976562l21 -14l14 14h88l7 -7l7 7h13c-8.66699 -9.33301 -13 -29.666 -13 -60.999h-7l7 -7v-28l-14 -13l7 -7v-21h-48l-6 -6l-7 6h-178
c-9.33301 0 -16 16 -20 48h-7v-41h-7l-14 62l-7 -7l-6 7h-21v-14h27v-14l7 -102h-13v14h-7c0 -27.333 -6.66699 -41 -20 -41l-7 6v14l7 7v7c-18.667 0 -28 20.333 -28 61l-6 7h-14l-7 -27c9.33301 0 14 -23 14 -69l13 -20l-6 -7l-21 7l-20 -7v-7
c13.333 0 20 -4.33301 20 -13l-7 -7l34 -7l21 7l7 -7v-13l-14 -21c0 -38 9 -74.333 27 -109l7 -28l-7 -6v-7l20 -41v-7l-6 -7l6 -7v-7l-6 -6v-7l-55 20l-13 -13l-7 41h-7v-35h-68l-14 14v27c0 9.33301 9 14 27 14v7c-18 0 -27 4.66699 -27 14v157l55 7v6
c-36.667 9.33301 -55 18.333 -55 27v35l7 27l-7 27v41c0 9.33301 13.667 14 41 14v7c-27.333 0 -41 4.33301 -41 13v82zM259 688.999c0 -8.66699 13.667 -15.333 41 -20l7 7v7zM321 607v-6l75 -7c0 8.66699 -7 13 -21 13h-54zM410 553l33 -55c0 -13.333 7 -20 21 -20l14 -28
c-7.33301 -18 -14.333 -27 -21 -27l-41 20v-13c22.667 0 34 -4.66699 34 -14v-27h-7c-36 0 -54 4.66699 -54 14l-27 -7v-7c58.667 -2 88 -11 88 -27v-55l-13 -14h-267v7l7 7l-7 7v7l7 7v6l-34 41v41h14v-13h7v34h13v-27h7c0 13.333 4.66699 20 14 20l20 -7l34 7h144v7
l-27 34v13l13 14l-7 34v14h14v-14h7c0 14 4.66699 21 14 21zM471 137l13 -14l-13 -14h-14c-23.333 0 -37 7 -41 21l7 7h48zM34 123l-7 -7v-7h28v-13h-14c-24 0 -37.667 6.66699 -41 20l7 7h27zM191 96l20.001 -21h62l14 -13l6 6h7l62 -13v-14
c-16.667 0 -53.334 -13.667 -110.001 -41h-109l-13 14v13c18 0 27 7 27 21c-13.333 0 -22.333 11.333 -27 34l7 7h6l34 -7zM0.000976562 55h7l7 -7l7 7c54.667 0 82 -11.333 82 -34l6 -7v-7l-6 -7h-89l-14 14v41zM416.001 34c45.333 -2.66699 68 -9.33301 68 -20l-13 -14
h-75v21c0 8.66699 6.66699 13 20 13zM498.001 792.001h14v-7h-14v7zM341.001 683.001l14 -41h7v34l-7 7h-14zM164.001 676.001v-34h6v34h-6zM14.001 635.001v-7h27v7h-27zM62.001 628.001v-7h20v7h-20zM410.001 614.001v-34h6l27 14v7zM82.001 607.001v-20h7v20h-7z
M150.001 573.001v-20h7v20h-7zM14.001 512.001v-7h20v7h-20zM239.001 416.001v-6h34v6h-34zM280.001 410.001v-7h13v7h-13zM232.001 375.001v-6h14v6h-14zM252.001 375.001v-6h21v6h-21zM266.001 355.001v-14h7l14 14h-21zM68.001 266.001v-7l69 -7v14l-7 -7l-34 7h-28z
M75.001 239.001v-28h7v28h-7zM103.001 218.001v-13h6v13h-6zM109.001 116.001h48l13 -13h-61v13zM62.001 82.001h41v-14h-41v14zM116.001 68.001h14v-6h-14v6zM225.001 55.001l21 -21v7l-14 14h-7z" />
    <glyph glyph-name="F" unicode="F" horiz-adv-x="507" 
d="M264 745h14v-47h169l14 -14v-81c0 -9.33301 -9 -14 -27 -14v-6c18 0 27 -4.66699 27 -14l-7 -6h-278l7 -42c-4.66699 -17.333 -13.667 -26 -27 -26c-14.667 13.333 -41.667 20 -81 20l-7 6v7l20 7v7h-6l-35 -7l-13 21v40h13l-13 88l7 7l108 -20
c0 8.66699 -11.333 13 -34 13v14h75l6 7l7 -7h54zM156 678l7 -21l6 7h7c0 -10 24.667 -23.333 74 -40l48 6v7c-54 0 -81 11.333 -81 34h-27zM244 678c0 -10 20.333 -17 61 -21h7v7zM325 630v-6l109 -21c0 10.667 -34 19.667 -102 27h-7zM0 495l13.999 -0.000976562v-14h7v14
h6c58 0 101 -9.33301 129 -28l7 7h6l21 -7v28h6c14.667 -19.333 32.667 -30.666 54 -33.999l21 -41l21 14h6c20.667 -27.333 66 -41 136 -41l6 -7v-61l-13 -13l-27 13l-21 -7l-6 21h-27v-21c62.667 -2.66699 94 -13.667 94 -33l-6 -7h-184v-34l-13 -14h-13l-7 34l-7 -7h-14
v7l7 7v7h-27v-82h-13l-7 34h-7v-6c0 -50 9 -75 27 -75v-20c0 -10.667 -18 -17.667 -54 -21v-13h-7l-7 7l-6 -7h-14c-10 0 -21.333 24.667 -34 74c-22 0 -33 20.333 -33 61v14l6 6l-27 96l7 7h7l-14 54l14 13l7 -7h6l7 7c60.667 -4.66699 110.334 -16 149.001 -34v7l7 20
c0 12.667 -25 24 -75 34l-7 7l-6 -7l-88 14l-7 -7l-7 7v34zM168.999 81.999l7 -7.00098v-54l-20 -21h-7c-8.66699 0 -13 7 -13 21c-9.33301 0 -14 -7 -14 -21h-14c-13.333 4.66699 -20 18.334 -20 41.001v20h14l6 -7h7v21h7v-14h7l20 7l7 -7c0 14 4.33301 21 13 21z
M46.999 60.998l14 -20.001v-7c0 -8.66699 -6.66699 -13 -20 -13c-27.333 4 -41 10.667 -41 20c0 8.66699 15.667 15.334 47 20.001zM189.999 819.997h13v-7h-13v7zM358.999 649.997v-13h7v13h-7zM87.999 643.997v-20h7v20h-7zM168.999 643.997v-7l7 -20h14v7z
M94.999 616.997v-14h7v14h-7zM94.999 541.997v-7l34 -7h7v7l-34 7h-7zM141.999 534.997v-7l27 -7v14h-27zM67.999 439.997l27 -6v-14h-41v7zM155.999 426.997l13 -14l-6 -6h-14l-13 13l6 7h14zM399.999 358.997v-6h20v6h-20zM141.999 297.997v-6h14v6h-14z
M-0.000976562 243.997h14v-34h-14v34zM-0.000976562 195.997h7l14 -13v-14l-14 -13l-7 7v33zM13.999 148.997l13 -13h-6l6 -7v-7l-13 -14l-14 14h7l-7 7v7zM13.999 101.997l20 -20l-20 -14l-14 14v6zM6.99902 13.9971h7v-14h-7v14zM26.999 13.9971h14v-14h-14v14z" />
    <glyph glyph-name="G" unicode="G" horiz-adv-x="722" 
d="M437 695c121.333 0 187.665 -17.334 198.998 -52.001c-18 -70.667 -31.333 -106 -40 -106c-39.333 13.333 -101 24.333 -185 33l-93 46l-26 -7l-14 14h-53c12 -20.667 56.333 -40.667 133 -60v-13c-70 0 -127.333 -57.667 -172 -173h-7l-20 14v-7
c0 -7.33301 13.333 -16 40 -26v-60l-7 -6v-7l-20 7h-6v-7c8.66699 0 13 -6.66699 13 -20c72.667 -92.667 154.334 -139 245.001 -139l13 -20c-27.333 -17.333 -58.333 -26 -93 -26v-7c36 0 73.667 -15.667 113 -47h7l6 20h-13v14h20l33 6l60 -46v-7l-126 -13h-60l-99 7v13
l27 6l6 -6h40l33 6v7c-13.333 0 -20 4.33301 -20 13l-119 -26c-56.667 16 -103 42.333 -139 79l6 7v7c-34 0 -60.333 35.333 -79 106l6 6c-13.333 0 -28.666 13.333 -45.999 40c0 26.667 6.66699 40 20 40l-7 46l20 73l33 -7l14 14l-20 6l-7 -6h-7
c-8.66699 0 -13 6.33301 -13 19c31.333 80.667 80 140.334 146 179.001l27 -6h6v6h-20c0 21.333 59.667 41.333 179 60zM105.999 549.999c0 -6.66699 8.66699 -13.333 26 -20l7 7h7l33 -14v14c-26.667 0 -40 4.33301 -40 13l-7 -7h-6zM602.999 411h32.999
c0 -11.333 9 -18 27 -20l-7 -7l7 -33v-93h-14l-6 7h-7v-13c18 0 27 -4.66699 27 -14v-66h-7c-57.333 33.333 -86 53.333 -86 60l6 6c-23.333 0 -38.666 6.66699 -45.999 20c-92 36 -140.667 62.667 -146 80v46l13 13h186zM118.998 358v-7h13v-13l-6 6h-20v-6l40 -13l6 6
c-3.33301 13.333 -12 22.333 -26 27h-7zM575.998 265c0 -7.33301 13.333 -14 40 -20v13zM502.998 179h14c0 -19.333 22 -39.333 66 -60v-13h-26l-67 7zM622.998 99h6l14 -13l-7 -6v-7c18 0 27 -4.33301 27 -13v-14c0 -13.333 -24.667 -22 -74 -26v6
c0 15.333 -17.333 24.333 -52 27v7l6 6h-20v20h14c8.66699 0 13 -6.66699 13 -20h7c0 22 22 33 66 33zM569.998 80c0 -9.33301 6.33301 -14 19 -14h7v7zM642.998 431h13l13 -14h-6l-7 7h-7l-6 -7v14zM694.998 417h7v-6l-13 -14h-7v7zM396.998 292l14 -14l-7 -7h-7l-13 14
l7 7h6zM59.998 225l13 -13h13l-6 20zM92.998 232v-13h13v13h-13zM145.998 212l-7 -20h13l7 20h-13zM185.998 166l20 -20h26v6zM79.998 152v-6h13v6h-13zM218.998 132l13 -13h6v13h-19zM463.998 126h19v-13h-19v13zM482.998 113l14 -14h-14v14zM277.998 86v-6l34 -27h6z
M463.998 80h19v-14l-59 -13l-7 7v6l7 7h7l19 -7zM218.998 53v-7h13v7h-13zM396.998 40v-7h14v7h-14z" />
    <glyph glyph-name="H" unicode="H" horiz-adv-x="702" 
d="M466 674l104 -7.00195v-6l-7 -8v-7h28l-7 7v14h35l14 -14v-20l-8 -8l8 -6v-28l-8 -7l8 -7v-104l-21 -21h-35l-14 14l7 7c0 18 -9.33301 27 -28 27v7l-7 -7h-20l-8 7l-34 -7v-6c17.333 -2 31.333 -11.333 42 -28l-21 -35v-7l48 -21c40.667 23.333 71 35 91 35v-139l-8 -28
l8 -21h-8l8 -7v-104c0 -9.33301 -9.33301 -14 -28 -14v-7c18.667 0 28 -4.66699 28 -14v-90l-14 -14h-160v21h28l34 -7c0 9.33301 -23 16.333 -69 21v7l7 27l-7 28c83.333 12.667 125 24.334 125 35.001l-70 7l-55 -7v49l7 27l-7 28l7 7v7l-7 28l7 7v7
c-18.667 0 -28 4.66699 -28 14h-42l-20 -14h-77v14h35l48 7v7h-21c-92.667 -5.33301 -139 -14.666 -139 -27.999l-34 7h-7v-21l55 -55v-15l-14 -13l-20 13h-7c0 -13.333 -4.66699 -20 -14 -20v-56l-14 -14h-7l-139 -7l-14 21l14 14h69l-14 14l-62 -7l-7 7v118h14v-7l42 7
l69 -7l42 14v7h-90c-12 0 -19 9.33301 -21 28h-14c0 -14 -4.66699 -21 -14 -21h-14l-14 14v327c48 0 96.667 -21 146 -63l14 14l14 -14v-132h83l21 -7l35 7h139l14 70l-14 13v133zM494 624.998v-6l6 -7v-7l-6 -7l41 -7v7c0 7.33301 -13.667 16.333 -41 27zM730 416.998
c18.667 -4.66699 28 -18.667 28 -42l-7 -6v-8l7 -28l-7 -6h-21l-7 21l-7 -7h-14v41c0 9.33301 7 14 21 14zM167 715.998v-14h-49l-69 -7l-7 7v7l7 7h118zM466 715.998h153l14 -14v-14h-167l-14 14zM7 687.998h153l14 -14v-49h-21l-146 49v14zM577 562.998v-7h14v7h-14z
M786 472.998l6 -7v-7l-21 -21v-7h-13v14zM153 430.998v-7h14v7h-14zM521 430.998h21v-14h-21v14zM69 347.998v-7h14v7h-14zM167 326.998v-14l21 7v13zM236 332.998v-6h21v6h-21zM494 332.998v-6h13v6h-13zM97 326.998v-7h49v7h-49zM716 319.998l14 -14h-14v14zM473 298.998
v-7h42v7h-42zM528 263.998v-7h21v7h-21zM208 180.998h15v-7h-15v7zM167 103.998l7 -7v-14l-7 -6l7 -8v-55l-14 -14h-146l-14 14l7 7h7l111 -7h7l14 14l-35 7l-76 -7v14h28v14h-7l-49 -7l-7 7v21l14 13h55zM83 55.998v-7h14l63 7l-14 13z" />
    <glyph glyph-name="I" unicode="I" horiz-adv-x="296" 
d="M14 653l48.001 -0.000976562l103 -7l7 7v-82l14 -14l-7 -7v-14h7l20 14l7 -69l-7 -21l14 -13v-21l-21 -20h-7c-8.66699 0 -13 6.66699 -13 20l-21 7v-7l21 -27l-7 -48v-83h-7c-18.667 5.33301 -55.334 33 -110.001 83h-7c60 -52.667 90 -85 90 -97l27 -34h7v-199l-14 -14
h-144l-14 14v350h7l20 -14h7v7c-12 0 -23.333 11.667 -34 35l14 14c8.66699 0 13 -11.667 13 -35l21 -7v7l-7 7l7 7h7c41.333 -36.667 62 -62 62 -76h7l14 14l-35 34l7 28l-27 14v13h13v7c-30 0 -62 23 -96 69v21l14 13c28 -33.333 55.333 -53.666 82 -60.999v7l-62 61h7
c12.667 0 45 -32 97 -96l7 7v7c-9.33301 0 -14 9 -14 27l-14 14l-28 21c0 13.333 -9 20 -27 20c-22 10.667 -42.667 29 -62 55v49zM248.001 639.999l12.999 -28c-13.333 0 -24.666 -13.667 -33.999 -41h-14c0 26 11.667 49 35 69zM440 749.999h14v-7h-14v7zM14 714.999h48
l7 -7l7 7h82l14 -14v-13l-14 -14l-151 7l-7 7v13zM406 714.999h13v-7h-13v7zM337 652.999h14v-7h-14v7zM392 624.999h14v-13l-28 -14h-7v7zM41 583.999l14 -13l14 13h-28zM124 535.999l14 -14h13l14 14v7h-7zM488 137.999h7l14 -14l-7 -7h-7l-7 7v14zM495 116.999l14 -21
v-82l-7 -7v-7l-34 14l20 89l-7 7l7 7h7z" />
    <glyph glyph-name="J" unicode="J" horiz-adv-x="425" 
d="M230 718l150 -0.000976562l14 -13v-7l-14 -13h-54c-45.333 0 -68 -7 -68 -21h-21c-13.333 4.66699 -20 18.334 -20 41.001zM271 670.999l102.998 -7h6l14 -14v-34l-14 -13l-102 6c4.66699 -13.333 18.334 -20 41.001 -20h55l20 -21v-149l-7 -7l7 -7v-61h-14
c0 13.333 -4.33301 20 -13 20v-20l27 -34v-7h-7l-54 54v28h13v7l-54 67c0 9.33301 -7 14 -21 14l-6 7v7l6 7v6c-13.333 0 -24.666 9.33301 -33.999 28l7 7v7l-27 33v69l13 13h41v14zM304.998 547.999v-20c16 0 32 -11.333 48 -34v6zM229.998 404.999l164 -184
c-32.667 -131.333 -80.334 -197 -143.001 -197l-21 20h-6v-6l6 -21c-20 -9.33301 -49.333 -14 -88 -14h-34c-43.333 0 -79.666 7 -108.999 21l21 88l-7 7l7 7h6l48 -48h7l-61 62v6l102 -6c56.667 0 90.667 38.333 102 115h13l-7 7v14h14v7l-20 7l6 20h-13v82z
M270.998 213.999l7 -6c18 -32 31.667 -48 41 -48v7l-41 47h-7zM161.998 77.999l-6 -27c4 -14.667 13 -23.667 27 -27l13 27c-8.66699 0 -13 6.66699 -13 20zM-28.002 751.999h13v-6h-13v6zM243.998 581.999v-14l41 -26v13zM270.998 527.999v-7h21v7h-21zM338.998 472.999v-7
h21v7h-21zM338.998 445.999v-13h7v13h-7zM270.998 139.999v-14h7v14h-7z" />
    <glyph glyph-name="K" unicode="K" horiz-adv-x="661" 
d="M409 713l145.002 0.000976562l7 -6l7 6h28l13 -13l-27 -14l-28 14c0 -23.333 -4.66699 -35 -14 -35h-7v7l7 20l-27 -41h-21v14h-14v-14h-111v-7l62 -14v-6l-7 -35l7 -7h8c12 0 21 16 27 48h35l14 -34v-7c-32.667 -32 -51.334 -57.333 -56.001 -76l-41 -42l27 -42v-7
l-14 -13v13l-7 -6h-6l-14 34l-42 -48c8 0 26.667 -28 56 -84h-7l-7 8h-7l-21 -8v15h-7c0 -28 -4.66699 -42 -14 -42c8.66699 -19.333 22.667 -33 42 -41v6l-14 21c6.66699 18.667 13.667 28 21 28l7 -7l7 7h6c12 0 23.667 -18.333 35 -55h-7l7 -8v-13l-7 -7l7 -7v-14
c-36.667 -23.333 -55 -58 -55 -104c-9.33301 0 -14 -11.333 -14 -34c-36.667 41.333 -55 73.333 -55 96v7h6l21 -14v14c0 26.667 -9 47.667 -27 63l-7 -7h-35l-49 69l14 14l-6 7h-21v-21h-14v21l27 27l21 -6v6l-7 21l14 42l-20 -14l-8 7h-7c0 -51.333 -18.333 -77 -55 -77
l-7 -6v-14l42 -14v-7l-42 -48v-49c-18 0 -27 -4.66699 -27 -14v-7l6 7h21v-62l-7 -7l7 -7v-42l-14 -20v-14l7 -7v-7h-152l-14 14v62l7 21l-7 35v83l7 7l-7 20l7 21l7 -7h7v14h-7l-7 -7h-7v374l14 14h145l14 -14v-124l-7 -8l7 -6v-7l-14 -14c-11.333 0 -18 9 -20 27l-28 -13
l7 -7v-7l-28 -62l-7 6h-14v-13l35 -21c0 18.667 7 28 21 28l-7 27l14 35h20v-28l7 7h14v-35l-7 -6v-7l7 -7h7c17.333 39.333 40.666 71.666 69.999 96.999v-14h6v7l-6 7v6c83.333 122 136.333 191.333 159 208zM471.002 208.001l14 -0.000976562c10 -4 56.333 -71 139 -201
l-8 -7h-27l-14 14l7 7l-21 14c0 -23.333 -7 -35 -21 -35l-14 14h-6l-21 -14h-14c-12 -0 -19 9.33301 -21 28h-14l-21 -14h-7v7l7 7v7c-27.333 4.66699 -41 11.334 -41 20.001v8h7l7 -8h7l41 14v21l-7 42l7 20l-7 21l7 7h7l28 -7v21h-14v14zM14.002 713h145l14 -13v-28
l-14 -14l-145 7l-14 14v21zM422.002 568l7 -35h8v35h-15zM284.002 492v-14h7v14h-7zM298.002 429h35v8l-7 20zM215.002 416v-7h14v7h-14zM63.002 388l-8 -42h8l27 28v7zM104.002 381v-28h14v28h-14zM132.002 333v-15h7v15h-7zM55.002 318v-13h8v13h-8zM346.002 312l-7 -7v-7
l21 7v7h-14zM326.002 270v-28h7l13 14l-13 14h-7zM422.002 270v-14h15zM374.002 180v-14h7v14h-7zM42.002 104v-7l13 -14v7zM118.002 97v-14h14z" />
    <glyph glyph-name="L" unicode="L" horiz-adv-x="551" 
d="M212 929l7.00098 -7v-7c-10.667 -2 -31.334 -27.667 -62.001 -77l-49 -34h-6v7c19.333 41.333 33 62 41 62zM25.001 817l14 0.000976562v-6l-14 -21v-21l56 14v-7l-42 -56h125l14 -13v-42l-7 -35h-21v14h-132v-7c37.333 0 56 -7 56 -21h90l14 -14v-458h271l34 -14v-111
l-13 -14h-202c-104 139.333 -187.333 266.666 -250 381.999v14l35 -7h7v14l-35 7l-14 -14l-7 35v118l-42 -14c-9.33301 2 -18.333 13.333 -27 34l14 21l-8 7v14h21v7l-48 14c0 -13.333 -9.33301 -25 -28 -35l-21 21c9.33301 18.667 21 28 35 28l-7 48
c14 37.333 32.667 56 56 56v-7c9.33301 0 30 18.667 62 56zM46.001 554.001v-6.99902c17.333 -34.667 31 -53.334 41 -56.001l-34 63h-7zM115.001 429.002v-8l21 -41h7v7c-10.667 28 -20 42 -28 42zM4.00098 317.002c33.333 0 84.333 -67 153 -201l76 -104l-6 -7h-209
l-14 14v298zM622.001 963.002v-6l-14 -15l-6 8v7l6 6h14zM539.001 936.002l14 -14l-21 -14h-7v14zM608.001 908.002h14v-7h-14v7zM185.001 880.002h21l13 -14l-20 -21h-7l-14 14zM372.001 866.002h14v-14zM358.001 859.002h14v-21l-14 14v7zM254.001 817.002h14v-6h-14v6z
M428.001 783.002h34l15 -14l-84 -14l-7 7v7zM-120.999 519.002h21v-14h-21v14zM74.001 470.002v-7l13 -14v8zM4.00098 352.002h7l14 -14v-14l-21 21v7z" />
    <glyph glyph-name="M" unicode="M" horiz-adv-x="878" 
d="M64 715h215c6.66699 0 18 -27.667 34 -83l-6 -7h-7l-56 14l-187 -7l-7 7v62zM591 715h97c13.333 -4.66699 20 -18.334 20 -41.001v-35l-13 -14h-132l-7 7h-7c16 52.667 30 80.334 42 83.001zM743 715l7.00098 -7.00195l35 7h7l21 -21l34 -686l-7 -7h-152l-14 14l-14 360
l14 119c-9.33301 0 -14 18.333 -14 55h-7c0 -26 -57.667 -206.333 -173 -541h-14c-9.33301 0 -14 7 -14 21l-28 -21h-69c-14 0 -21 25.333 -21 76c-16 0 -50.667 108.667 -104 326c-7.33301 0 -16.333 41.667 -27 125h-7l-21 -381h-14c0 16 -23 41.333 -69 76
c-14 31.333 -28 52 -42 62h-13v-21c0 -8.66699 9 -13 27 -13l21 -76h-7c-33.333 34.667 -56.333 71.334 -69 110.001h-7l35 83h13c40 -34.667 67.667 -76 83 -124h-7c6.66699 -28 13.667 -42 21 -42v21h7l7 -7h7v14c-42 68.667 -74.333 110.334 -97 125.001v20l7 8v6
c-27.333 28 -41 46.667 -41 56l6 152l7 7h257c12 0 25.667 -34.667 41 -104c23.333 -56 48.666 -146 75.999 -270h8c36.667 154 73.334 276.333 110.001 367h146v14h14v-14h6c11.333 9.33301 27.666 14 48.999 14v7c-22.667 0 -34 4.66699 -34 14
c3.33301 50.667 10 76 20 76zM-11.999 278.998c-9.33301 -18.667 -23.333 -28 -42 -28l-7 7v7zM22.001 194.998c28 -4.66699 42 -11.333 42 -20v-14h-7c-21.333 8.66699 -33 17.667 -35 27v7zM16.001 160.999h6c8.66699 0 39 -53.333 91 -160h-97l-14 14l7 21h13l7 -28h8
l6 35c-22.667 13.333 -34 27 -34 41zM133.001 160.999h14c0 -14 9.33301 -30.333 28 -49v-28h-7l-21 15l7 6v7l-21 28v21zM106.001 139.999c46 -45.333 69 -75.333 69 -90l-7 -42h-14l-62 125l7 7h7zM750.001 687.999v-14h7v14h-7zM230.001 534.999v-14h7v14h-7z
M736.001 527.999v-55h7l7 48l-7 7h-7zM99.001 513.999v-7l7 -21h14l-14 28h-7zM785.001 451.999v-14h7v14h-7zM729.001 416.999v-14h7v14h-7zM334.001 354.999v-7l14 -35h7v7l-14 35h-7zM729.001 305.999v-14h7v14h-7zM757.001 202.999l7 -56h7v62l-7 -6h-7zM64.001 160.999
l14 -14v-7l-14 14v7zM792.001 139.999v-97h7v97h-7zM424.001 83.999v-13h8v13h-8zM736.001 49.999v-21l7 -21h7v21l-7 21h-7z" />
    <glyph glyph-name="N" unicode="N" horiz-adv-x="695" 
d="M26 713l14 -13l-7 -7v-21h7c2.66699 27.333 9.66699 41 21 41h150c8 0 26.333 -27.333 55 -82l-7 -7h-226l-34 21c12.667 45.333 21.667 68 27 68zM493 713h13l14 -13l41 13h69l14 -13l-14 -42l14 -13v-7h-14v-7l7 -21h-7l-7 7h-7l-27 -7
c-73.333 3.33301 -110 10.333 -110 21v69zM33 604l28.001 -6.99902l6 7l48 -7h158l7 -21l21 7v-7l27 -48h-14v-14c28 0 51 -27.333 69 -82l-7 -7v-7l7 -20h-7c-28 -14.667 -44 -30.667 -48 -48h14c8.66699 0 13 6.66699 13 20l7 7h7l7 -7l7 28h27v-7l-27 -35v-13l13 -41
l-6 -21l34 21l-7 7v13h35l34 -89h7v7l-7 130v55l7 28l-14 27l7 7l-7 34v55c0 9.33301 7 14 21 14c96 0 144 -7 144 -21v-110c0 -10 -11.667 -16.667 -35 -20v-14l35 7v-27l-7 -7l7 -7v-7c-4.66699 -18.667 -16.334 -28 -35.001 -28l-6 7v7c8.66699 0 17.667 16 27 48l-7 -6
h-7l-34 20h-7c0 -13.333 -7 -20 -21 -20l-7 -28l7 7h7l7 -21l21 7l7 -7v-14l-7 -6v-7h7l27 7v-7l7 7h14v-96l-14 -21l14 -14v-198l-14 -14h-165c-27.333 28.667 -41 54 -41 76c14 0 21 4.33301 21 13l-14 21l14 13h7c0 -18 4.33301 -27 13 -27c0 15.333 11.667 36 35 62
l6 20l-27 7l-21 -7l7 -7v-7c0 -13.333 -9 -20 -27 -20l-48 27l-21 -20l-96 171l7 7l-7 7h7l34 -7l7 7v7h-20c0 24 16 44.667 48 62l-7 6v48h-14l-55 -68v-7l7 -28l-7 -20c-13.333 0 -36 38.667 -68 116c-8 1.33301 -17.333 19.666 -28 54.999h-7l7 -102v-234
c0 -8.66699 -9 -13 -27 -13c0 -14 -4.66699 -21 -14 -21l-14 14l35 41c-6 22.667 -13 34 -21 34l-28 -48l-6 -34l6 -7v-14h-13v28h-14c-9.33301 0 -14 -7 -14 -21l-6 -7h-14v28h-21v-14l-13 14l7 34l-7 48l13 55l-13 14v13l20 34c-13.333 0 -20 4.66699 -20 14l13 55l-13 14
v151c0 9.33301 6.66699 14 20 14zM-62.999 514.001l55 -61v-7l-13 -14h-8l-20 14h-7v-21h-14v14c-18 0 -27 9 -27 27l7 28l-7 20h20l7 7zM575.001 480.001l-7 -7v-7c23.333 0 35 -4.33301 35 -13h13v13zM115.001 350.001l7 -6.99902h7l14 20v7
c-18.667 -6.66699 -28 -13.334 -28 -20.001zM33.001 329.002v-7h7l14 41c-8 0 -15 -11.333 -21 -34zM164.001 144.002h13v-34l-7 -35l7 -41v-13l-13 -14h-56l-20 20h-7v28l34 48l-7 7l7 7h7c0 -14 4.66699 -21 14 -21l28 41v7zM500.001 610.002h13v-13h-13v13z
M534.001 610.002h20v-13h-20v13zM-96.999 604.002h7l20 -21l-7 -27h-13zM527.001 514.002v-7h14v7h-14zM26.001 507.002v-34h7v34h-7zM554.001 453.002v-14h7v14h-7zM95.001 432.002v-14h20l-13 14h-7zM513.001 432.002v-20l7 -7v-7l21 7v13l-14 14h-14zM520.001 363.002
v-34l21 21v13h-21zM74.001 343.002v-7h21v7h-21zM95.001 288.002v-14h7v14h-7zM623.001 281.002v-13h7v13h-7zM513.001 274.002v-13l14 13h-14zM390.001 254.002v-7l13 -14l14 21v7h-7zM493.001 226.002v-7l13 -13v6zM541.001 226.002l6 -48l14 14l21 7l-21 27h-20z
M396.001 192.002l7 -7h7l7 21h-7zM513.001 206.002v-14l14 14h-14zM575.001 185.002v-7h28v7h-28zM396.001 130.002h7l14 -13v-21h-14zM575.001 96.002v-13h7v13h-7zM603.001 27.002v-6h13v6h-13z" />
    <glyph glyph-name="O" unicode="O" horiz-adv-x="762" 
d="M334 709l60.999 -0.000976562c102.667 0 187.334 -47 254.001 -141l-7 -6l-154 -7v-7l181 -6c26.667 -59.333 40 -115 40 -167v-34l-20 -27h20c0 -102 -55.667 -191 -167 -267c-56 -31.333 -120.667 -47 -194 -47h-14c-166.667 0 -273.667 84.667 -321 254l-13 60v81
l13 13l67 -27c0 -24 9 -39.667 27 -47h27v7c0 8.66699 -9 13 -27 13l-7 7v14c0 8.66699 15.667 15.334 47 20.001l7 -7v-7l7 7h20v-20h-14v-7l7 -7v-6l-7 -20h7c23.333 -134 85.666 -201 186.999 -201c72 0 123.333 44.667 154 134l13 93v7
c-5.33301 82 -18.666 128.667 -39.999 140l-27 -6l-6 26h-14v-13h-20v7l7 6l-7 34v7l7 6v7l-80 7h-40l-214 6l-7 7v7c74 71.333 156.333 107 247 107zM53.999 554.999h40v-13h-20v-7c0 -8 20 -14.667 60 -20l13 13h20l7 -7h7v14c-13.333 0 -20 4.33301 -20 13l20 7l60 -7v-6
l-27 -34l-20 7l14 -27l-20 -60h-14l-13 13v7c18 0 27 4.33301 27 13l-41 7l-13 -13l-47 6c-25.333 -26.667 -50 -40 -74 -40l-6 7v7zM621.999 661.999h7v-7l-14 -13h-6v7zM113.999 554.999h13v-13h-13v13zM99.999 407.999v-13h-13z" />
    <glyph glyph-name="P" unicode="P" horiz-adv-x="574" 
d="M233 714c92 -4.66699 138 -13.667 138 -27l-7 -7h7l14 13c46 0 96.333 -41 151 -123v-21l-56 -41c-36 0 -54 9.33301 -54 28l-14 -14c-23.333 0 -53 16 -89 48c-18 8.66699 -43.333 13 -76 13h-61l-28 -20h-7l-55 14l-7 -7h-6l-42 7l-34 -7l-7 7v103
c0 22.667 77.667 34 233 34zM240 625l-0.000976562 -7l21 -7l48 55h-14c-27.333 -27.333 -45.666 -41 -54.999 -41zM535.999 536l13 -14v-7c0 -13.333 -9 -20 -27 -20l-21 6v7zM13.999 529h34l41 -7l7 7h7c50.667 -4 76 -11 76 -21v-41l-42 -48v-7l35 14l7 -7v-42l34 -6v-14
c-25.333 0 -94 -71 -206 -213l-7 7v28c12 22.667 28 34 48 34v14l-7 -7h-20v7l6 6v7c-18 0 -27 4.66699 -27 14v261zM397.999 501l35 0.000976562l20 -21c-158 -160 -249.333 -240 -274 -240c0 -20 -9.33301 -33.667 -28 -41l-14 14l76 96h-7
c0 -8.66699 -18.333 -22.334 -55 -41.001c0 -14 -4.66699 -21 -14 -21h-7v7c0 16 43.667 52.667 131 110v-7c73.333 35.333 110 67.333 110 96c6 32 15 48 27 48zM479.999 480.001l27.999 0.000976562v-6l-131 -138h8l7 7v7l6 -7h7c18.667 6.66699 28 20.667 28 42l96 54
c0 14 4.33301 21 13 21l7 -7c0 -30.667 -20.667 -60.334 -62 -89.001h-7l42 48v7c-46 -37.333 -69 -67 -69 -89h21l21 13v-7c-61.333 -59.333 -134.666 -89 -219.999 -89v7l61 76v6h-13c29.333 42 66 74.333 110 97c0 13.333 15.667 29 47 47zM75.998 165.002h7v-7l-76 -82
l-7 7v6c0 24 11.333 42.333 34 55l7 -7h7zM164.998 158.002h14v-62l-62 -82h-7v13l-69 -13c0 27.333 41.333 75.333 124 144zM109.998 151.002v-14l-34 -41h-7v14c11.333 0 18 11.333 20 34l7 7h14zM445.998 583.002v-13l14 13h-14zM54.998 336.002v-6l34 34h-6z
M116.998 247.002h13l-20 -20h-7v6zM116.998 172.002h13v-14h-13v14zM171.998 62.002l7 -7v-41l-14 -14h-48v7zM95.998 21.002v-14h-13z" />
    <glyph glyph-name="Q" unicode="Q" horiz-adv-x="759" 
d="M298 699l20.002 -27.001v-6l-6 -7v-7h13v-13c-64.667 -23.333 -120.334 -54.333 -167.001 -93h-7l7 7v13c-80.667 -71.333 -127.334 -107 -140.001 -107v7c0 62.667 60 131.334 180 206.001zM372.002 698.999l26 -7l34 7l6 -7v-13l-66 -40h-14l-6 7v6
c0 15.333 6.66699 31 20 47zM478.002 685.999c151.333 -64.667 227 -164.668 227 -300.001v-53c0 -52.667 -15.667 -110.667 -47 -174h-20c-75.333 136.667 -113 212.334 -113 227.001c0 80 -44.333 144.333 -133 193l-20 40zM332.002 625.998h6v-7
c0 -8.66699 -6.66699 -13 -20 -13v-7h7l27 13l20 -26c0 -10 -29 -16.667 -87 -20l7 6v7h-7l-7 -7v14c9.33301 0 27.333 13.333 54 40zM251.002 565.998l6.99805 -0.000976562v-7c-53.333 -75.333 -80 -135.333 -80 -180v-33c0 -112 42.333 -185.667 127 -221l47 -6
c94.667 0 152.334 64.667 173.001 194h13l94 -188c-8.66699 -14 -40 -40.667 -94 -80c111.333 -17.333 167 -32.666 167 -45.999v-7c-19.333 -48.667 -32.666 -73 -39.999 -73v7l-47 -27c-194 66.667 -309.667 100 -347 100c-78 0 -158 57.667 -240 173
c-22 62.667 -33 116.334 -33 161.001c10 0 23.333 22 40 66l7 7c0 8.66699 6.66699 13 20 13l20 -6v6c47.333 59.333 96 101.666 146 126.999zM332 698.997h20v-7l-14 -13l-6 7v13zM5 365.997h6v-13h-6v13z" />
    <glyph glyph-name="R" unicode="R" horiz-adv-x="615" 
d="M227 715c36.667 0 55 -38.999 55 -116.999h7v21h14l-7 -35l-48 7l-69 -7l-7 21h-7l-20 -124l-14 -13v-152h7l7 138h6l21 -28l-7 -62l7 -27l-7 -41v-7l7 -138l-7 -6h-7l-13 13c0 -30.667 -39.333 -60.334 -118 -89.001l-20 -14l-7 7v55h14v-14h7v172l13 14l-7 55l-6 254
l6 7l-13 14v69c0 13.333 71 22.333 213 27zM323 708.001l40.999 -6.00098v-28l14 -131l-6 -6h-8c-40.667 26.667 -61 65.334 -61 116.001c4.66699 36.667 11.334 55 20.001 55zM412.999 688c36.667 -12.667 55 -24.333 55 -35v-48h20v28h7c32 -28 48 -71.667 48 -131
c0 -76.667 -43.333 -131.667 -130 -165v-7c32 -12 48 -23.333 48 -34l-48 -28l-21 117h-7l-13 -48v-83c-5.33301 -13.333 -19.333 -20 -42 -20v14h-7v-14l7 -7h-7c-24.667 26.667 -59 45 -103 55v14l7 7l-7 7v27c0 34 7 52.333 21 55l7 -28l34 35h21v-14h7
c0 14 20.667 39.333 62 76c0 22.667 4.33301 34 13 34v131c0 35.333 9.33301 56 28 62zM474.999 275.001c16.667 -24.667 48.667 -114 96 -268l-7 -7h-165c-12.667 0 -35.667 66.333 -69 199c22 20 70.333 45.333 145 76zM123.999 96.001l14 -41
c-4.66699 -36.667 -11.667 -55 -21 -55h-103l-14 14v7c6 11.333 47.333 36.333 124 75zM137.999 681.001v-21h7v21h-7zM206.999 667.001v-27h6v27h-6zM130.999 571.001v-28h7v28h-7zM47.999 550.001v-13h7v13h-7zM157.999 543.001h14v-14h-14v14zM-0.000976562 475.001h14
v-56h-14v56zM178.999 357.001h13v-27h-13v27zM253.999 344.001v-14h7v14h-7zM391.999 289.001l7 -7v-14l-14 -14l-7 7v14zM322.999 254.001h14v14zM137.999 248.001v-35h7v35h-7zM432.999 151.001v-27h7v27h-7zM157.999 103.001h14v-69l-14 -13h-7v48zM432.999 76.001v-28h7
v28h-7z" />
    <glyph glyph-name="S" unicode="S" horiz-adv-x="542" 
d="M292 715l112.998 -12.999v-14c-98.667 -40.667 -178.667 -80.667 -240 -120l6 -6h7l274 126l27 -20c-16 -80 -29.667 -120 -41 -120c-34 16.667 -82.667 28 -146 34c-60 0 -95.667 -20.333 -107 -61c-0.666992 -42 72.333 -86.333 219 -133
c71.333 -36.667 107.333 -94.667 108 -174c0 -90 -51.333 -154.667 -154 -194c-46 -13.333 -92.667 -20 -140 -20c-111.333 0 -167 13.333 -167 40l-7 -7h-20l-20 14c16.667 74.667 30 117 40 127c56.667 -26.667 112.334 -40 167.001 -40h34c62 0 93 24.333 93 73
c0 40.667 -66.667 81 -200 121c-80.667 37.333 -121 88.333 -121 153l34 14v6l-7 7v7l-7 -7h-26l6 47l-6 20l6 -7h7c-2.66699 35.333 34 75 110 119c40.667 17.333 93.334 26.666 158.001 27.999zM-29.002 688.001l13.001 -13l-13 -20c13.333 0 26.666 -11 39.999 -33v-7h-7
c-28 7.33301 -50.333 27.333 -67 60h7l6 -7h7c0 13.333 4.66699 20 14 20zM-83.001 889.001h13v-7h-13v7zM16.999 842.001h14l6 -40l-6 -7h-7l-7 7v40zM-23.001 795.001l7 -6v-7l-7 -7h-6l-7 7v7l7 6h6zM36.999 94.001v-7h14v7h-14zM177.999 60.001v-6h13v6h-13z
M217.999 20.001v-13h7v13h-7z" />
    <glyph glyph-name="T" unicode="T" horiz-adv-x="621" 
d="M83 712h48.001l7 -6l8 6h166c8.66699 0 13 -6.66699 13 -20h7c0 13.333 4.66699 20 14 20h76l21 -20v-42h14c0.666992 41.333 7.66699 62 21 62h34c9.33301 0 14 -6.66699 14 -20l7 -7h7c2 18 9 27 21 27c8.66699 0 13 -6.66699 13 -20l-13 -28l6 -7h-6l-8 7h-7l-6 -27
c17.333 0 28.666 -18.667 33.999 -56l-21 -14l-7 28h-13c0 -18.667 -4.66699 -28 -14 -28h-56c-8.66699 0 -13 23.333 -13 70h-7c0 -28 -4.66699 -42 -14 -42l7 -7v-7l-14 -14h-55v-263l-14 -20l14 -14v-256l-14 -14h-145l-14 14v429l7 35l-7 6l14 14l-14 14v55h-14l-49 7v7
c0 9.33301 9.33301 14 28 14l-7 97c-14 0 -21 -7 -21 -21h-6v14h-7v-28h13c0 -23.333 -6.66699 -37 -20 -41l7 -7v-7c-6 -23.333 -13 -35 -21 -35h-34l-8 7h-7c6 92 17.667 138 35 138zM28.001 623l7 -7v-14l-7 -7v-7l7 -7l-7 -7h-14l-14 14c8.66699 21.333 18 33 28 35z
M208.001 699v-21h6v21h-6zM318.001 685v-7h14v7h-14zM533.001 678v-21h7v21h-7zM256.001 616v-21h7l7 21h-14zM353.001 602v-35h7l7 35h-14zM229.001 561v-15h6v15h-6zM208.001 546v-20h13v20h-13z" />
    <glyph glyph-name="U" unicode="U" horiz-adv-x="660" 
d="M14 711h141.999l13 -13v-352c0 -88.667 13.667 -147.667 41 -177c-29.333 -88.667 -49.666 -136 -60.999 -142c-99.333 49.333 -149 135.333 -149 258v413zM446.999 711l27 0.000976562l7 -6h7c-24 -44.667 -40 -67.334 -48 -68.001h-6v61zM521.999 711.001h74l14 -13
v-400c0 -132 -54.333 -222.333 -163 -271c-40 -18 -83 -27 -129 -27h-40c-46.667 0 -80.667 7 -102 21c28 85.333 46 128 54 128c25.333 -13.333 50.333 -20 75 -20c86 0 129 49.667 129 149v285c0 24 29.333 73.333 88 148z" />
    <glyph glyph-name="V" unicode="V" horiz-adv-x="734" 
d="M180 714c9.33301 0 32.667 -67.002 70 -201.002h-21l-7 7h-7v-7c15.333 0 34 -18.333 56 -55l-7 -7h-8l-20 20v-7c30 -16 55.333 -64.333 76 -145l35 -152h7c0 44 55.333 226.333 166 547h14l21 -14l13 14h56l42 -14l13 14h8l13 -14c-134 -380 -212.667 -588 -236 -624
l-13 -13l13 -15c-10.667 -32 -19.667 -48 -27 -48h-83c0 29.333 13.667 57 41 83v-14h14l7 35c-9.33301 0 -14 -7 -14 -21h-7v14h-28c0 -27.333 -18.333 -59.666 -55 -96.999h-62c-14 10.667 -67.333 156.334 -160 437.001l14 14c-18.667 0 -44 60 -76 180l20 -14h8
c0 9.33301 -7 14 -21 14l-7 7v7c13.333 0 20 7 20 21l-6 6h-21v-20h-7l-14 55l7 7h173zM589.001 602.998v-14h14v-6c0 -10 -6.66699 -15 -20 -15l13 -13h35v13zM513.001 470.998v-7c8.66699 -20.667 18 -32 28 -34h27c0 7.33301 -18.333 21 -55 41zM35.001 699.998v-7h13v7
h-13zM125.001 644.998l21 -35l-7 -7v-7l21 -13h7l-15 20l8 7v7zM173.001 574.998v-13h7v13h-7zM562.001 401.998v-7l13 -14v21h-13zM430.001 159.998l-14 -21v-7l21 28h-7z" />
    <glyph glyph-name="W" unicode="W" horiz-adv-x="1010" 
d="M14 716l27.998 -21.001h7v7h-14v14h34l8 -7h6l-27 -56h13c0 10.667 14 31.667 42 63h70v-14h-21v-7l14 -14c22.667 0 34 -18.667 34 -56l-6 -6v-7l6 -21l-41 -28v-7h14v-7l-35 -55v-7h7c18.667 22.667 42 34 70 34l6 -7v-27h-6l-8 7h-13v-7c14 0 21 -4.66699 21 -14
c-6.66699 -56 -20.667 -84 -42 -84h-7l7 -7v-14h-28v-7h14c0 -8.66699 -7 -13 -21 -13l-7 -21c9.33301 0 14 -9.33301 14 -28h7c4.66699 28 16.334 42 35.001 42l-7 7v6l7 7h7l13 -13l14 13c-14 0 -21 4.66699 -21 14v14l35 35h7l21 -132v-14
c0 -8.66699 -25.333 -25 -76 -49l-7 7h-14v-13h-14c0 8.66699 -11.667 13 -35 13c-14 26.667 -21 57 -21 91h7c8.66699 0 18 23 28 69c10.667 2.66699 24.667 21.334 42 56.001h-14c0 -12 -11.667 -28.333 -35 -49l-21 21v14h14v7c-14 0 -21 4.66699 -21 14
c6.66699 0 18.334 25.333 35.001 76l14 14v7l-21 -14l-35 7l28 -28l-48 -62v-14h-14l-56 229l7 21l-14 14l7 7h7zM409.998 715.999l20.9971 -0.000976562c14 0 21 -9.33301 21 -28h7c9.33301 0 14 7 14 21l6 7h98c18.667 0 28 -30.333 28 -91c-10.667 0 -20 -16 -28 -48
c-15.333 -7.33301 -38.666 -44.333 -69.999 -111h-13v34h-7c0 -18 -4.66699 -27 -14 -27l-28 6v8c0 8.66699 9.33301 13 28 13l-21 21c-40 -71.333 -65.667 -108.333 -77 -111h-7v42l7 7v7l7 -7h14v14c-15.333 0 -24.666 13.667 -27.999 41
c4.66699 62.667 16.334 125.334 35.001 188.001h7v14zM840.995 715.998h14l14 -14l-83 -70h-8c0 25.333 21 53.333 63 84zM937.995 715.998h21l14 -14c-62.667 -250 -99.667 -375 -111 -375l7 -7v-7c-6 -23.333 -13 -35 -21 -35l7 -7c-6.66699 -50.667 -20.667 -76 -42 -76
l-35 20l-28 -34l36 -35v-7l20 14l7 -7v-14c-9.33301 -64.667 -21 -97 -35 -97l8 -7v-14l-15 -14h-48v7l7 7v7c-24.667 28 -43.334 42 -56.001 42c0 13.333 -9.33301 20 -28 20l-6 7v7l6 7h-6l-21 -7l-21 42c36.667 50.667 55 85.334 55 104.001h21
c9.33301 0 14 -18.333 14 -55h7c0 41.333 7 62 21 62l7 -7h7l-21 42l14 83h7l83 -20c-27.333 36.667 -52.666 55 -75.999 55v7c0 90 37 159.667 111 209c0 11.333 30 43.666 90 96.999zM624.995 527.998l6.99805 -7v-7l-20 -20l7 -7v-14c-14 0 -25.667 -7 -35 -21l7 -7v-7
c-1.33301 -12 -24.666 -33 -69.999 -63v7c32.667 63.333 58.334 98.333 77.001 105c0 20 9 33.667 27 41zM444.993 472.998h14l20 -28c0 -35.333 -23 -61 -69 -77l-21 21zM631.993 465.998l14 -13.999v-21h-21l7 -35l-7 -28h-6l-7 7h-7c0 -14 -4.66699 -21 -14 -21h-7v7
l21 28v7h-7v-14h-14v21c0 9.33301 9.33301 14 28 14c0 29.333 6.66699 45.666 20 48.999zM652.993 381.999h7l7 -49c-14 0 -28 -13.667 -42 -41h15l27 21h7v-7l-62 -91c0 -13.333 -4.66699 -20 -14 -20h-14v7l14 21l-7 20c12 2 21.333 13.667 28 35v7h-7
c0 -10.667 -18.667 -34 -56 -70h-14l-7 28l7 21c-9.33301 0 -14 7 -14 21c12 37.333 35.333 56 70 56v-21h7zM340.993 332.999h7v-20l-7 -7l7 -7v-7c-2.66699 -46 -9.66699 -69 -21 -69l6 -21l-6 -7v-7l6 -28l-6 -7h-7l-21 28l14 21h-14v6c7.33301 83.333 21.333 125 42 125
zM402.993 242.999l14.001 -14v-21l-7 -6l7 -21l-7 -21h-7v14h-7l-7 -21h7l7 7v-14c-10.667 -28 -20 -42 -28 -42h-7v7l14 28h-7l-21 -7v28c15.333 55.333 31.666 83 48.999 83zM131.994 214.999h7c14 0 21 -9 21 -27l-7 -21h-7l-14 14v34zM777.994 201.999h8
c18 -7.33301 27 -14.333 27 -21v-7l-35 7v21zM222.994 152.999h6l14 -14v-7c0 -20 -9.33301 -34 -28 -42l-7 -7c-10 -13.333 -21.333 -20 -34 -20v-14h-7l-7 41c7.33301 0 19 16.333 35 49h7v-7l-28 -49v-6h7c0 16.667 14 32.667 42 48v28zM263.994 124.999l28 -7v-14
c-26.667 -27.333 -49.667 -62 -69 -104h-28v14h13l-6 7v7zM312.994 96.999h7l13 -14l-20 -34v-7l7 -7v-7h-7l-28 7v-14h14v-7l-14 -14h-35c24 64.667 45 97 63 97zM590.994 41.999c18.667 0 41.667 -11.667 69 -35l7 7h14v-14h-28l-62 28v14zM513.994 659.999v-7h7l35 49h-7
zM110.994 687.999l14 -14v14h-14zM478.994 639.999v-21l15 13v8h-15zM931.994 624.999l-15 -20v-7l21 21h7v6h-13zM548.994 611.999v-7h14v7h-14zM145.994 604.999v-7h14v7h-14zM41.9941 590.999l14 -14v14h-14zM152.994 583.999v-14h7v14h-7zM409.994 583.999l14 -14h7
l-14 14h-7zM437.994 569.999l14 -14h7v14h-21zM472.994 555.999v-21h27l-21 21h-6zM833.994 486.999v-8l14 15v6zM340.994 444.999h13v-14h-13v14zM729.994 395.999h14v-7h-14v7zM326.994 381.999h21v-28l-21 -21h-7zM381.994 353.999l7 -6v-7h-21zM826.994 332.999h14v15z
M562.994 305.999l-7 -7v-14l28 7v7zM785.994 298.999v-7l34 -14l7 7v14l-7 -7h-7l-21 7h-6zM207.994 284.999v-14h7v14h-7zM666.994 277.999h14v-21h-14v21zM562.994 270.999v-7h14v7h-14zM270.994 256.999h7v-14l-14 -14l-7 7v7zM187.994 228.999v-6l-14 -15v7z
M214.994 222.999h14v-15l-34 -6zM235.994 207.999l14 -13h-14v13zM166.994 173.999h14l-14 -63h-7l-14 14zM680.994 96.999v-7l21 -7h7v7l-21 7h-7zM381.994 62.999v-42l-21 -21l-13 14v14zM597.994 13.999h14v-14h-14v14zM694.994 13.999h14v-14h-14v14z" />
    <glyph glyph-name="X" unicode="X" horiz-adv-x="674" 
d="M98 719l6.00293 -6.99902l8 7h90c9.33301 0 46.666 -72.333 111.999 -217l-7 -6c14 0 21 -7 21 -21l21 -7l-7 7v6c21.333 72 40 109.333 56 112l7 -7v7l-7 21l20 49h8c24.667 0 41 -9.33301 49 -28l-7 -7v-7l20 -21l8 7h6l49 -42v-14l-34 -34l-42 20v-7l21 -28v-6
c-66.667 -66.667 -148.334 -139 -245.001 -217l-42 14h-14v-7c0 -14 9.33301 -21 28 -21v-7c-15.333 -22.667 -50 -53 -104 -91h-7v21l104 175c-12.667 31.333 -40.334 75.666 -83.001 132.999l-126 216l7 7h84zM468.003 719.001h174v-21c-42 -72.667 -67.667 -110 -77 -112
h-7c-8.66699 0 -22.334 18.667 -41.001 56c-9.33301 22.667 -25.666 46 -48.999 70v7zM77.0029 656.001v-7.00098l27 -21h-6l6 -7v-14h8l55 -28v21h7c0 -14 11.667 -21 35 -21c-58 44.667 -102 70.334 -132 77.001zM475.003 439v-13.001l-36 -63l182 -293l-7 -42
c14 0 21 -4.66699 21 -14v-14h-167c-33.333 28.667 -50 56.334 -50 83.001h15l-42 42v8l7 7v6c-24 14 -42.667 37.333 -56 70l7 7h7l7 -7v7l-35 28l-7 -7h-7l-35 14v21zM258.003 250.999l7 -0.000976562l28 -21l7 7l7 -21c-56 -117.333 -88.667 -177.666 -98 -180.999l-27 7
l20 -28h-7c-20.667 18.667 -37 28 -49 28l21 -35v-7h-48v14h-7l-21 -14h-77l-14 14c36 56 59.333 84 70 84l21 -7l-14 21l146 111l28 -7h7v7h-14v14zM509.003 103.998v-6l21 -21c-6.66699 18 -13.667 27 -21 27zM112.003 690.998v-21h13v7zM125.003 620.998h15v-7h-15v7z
M140.003 613.998h13v-7h-13v7zM363.003 459.998v-6l28 -15v8l-21 13h-7zM412.003 264.998v-7h14v7h-14zM468.003 208.998l13 -14v14h-13zM509.003 160.998v-15h8v15h-8zM565.003 90.998v-14h7v14h-7zM119.003 76.998v-7h21v7h-21zM447.003 76.998v-7h13v7h-13z
M481.003 62.998v-7h15v7h-15zM119.003 55.998v-14h6v14h-6zM517.003 41.998v-7h13v7h-13z" />
    <glyph glyph-name="Y" unicode="Y" horiz-adv-x="695" 
d="M14 713l61.999 -69.001l-34 69h97l69 -69v7l-35 55l7 7h7c20.667 -19.333 69.334 -118.333 146.001 -297h6c0 17.333 14 45 42 83l20 -15v8l-20 27c52 124.667 84.333 189.334 97 194.001h173l14 -14l-194 -298l-49 63h-6l6 -7v-21l-21 14v-7l56 -76l-41 -69v-250l-8 -6
l8 -7v-21l-15 -14h-13l-21 14l-7 -7l-21 28l7 7v6l-21 15l8 20l-28 14l7 7v7c-28 0 -42 13.667 -42 41c-14 0 -21 4.66699 -21 14l7 7v7c-14 0 -23 44 -27 132l-229 394l7 7h7zM241.999 62.999c22 -10.667 38.333 -27 49 -49v-14h-7l-42 48v15zM269.999 380.999l28 -48h7v13
zM317.999 82.999h7v-14h-7v14z" />
    <glyph glyph-name="Z" unicode="Z" horiz-adv-x="631" 
d="M49 715l55 -0.000976562l21 -7l35 7h312l14 -13l7 6h7l7 -6h7l14 13h14v-27h7c2 18 8.66699 27 20 27h8l13 -13v-84l-347 -479h340l14 -14v-111l-14 -14h-486c-9.33301 0 -14 7 -14 21h-7c0 -14 -4.33301 -21 -13 -21h-49l-14 14v55c-0 20.667 32.333 69.334 97 146.001
c14 0 21 9.33301 21 28l208 278h7l-14 -63v-34h7c0 70 11.667 121 35 153h-160c-8.66699 0 -13 6.66699 -13 20h-7c0 -13.333 -4.66699 -20 -14 -20h-118l-14 13v112zM486 687.999v-14h7v14h-7zM500 680.999l-7 -49l7 -35h7l7 56l-7 28h-7zM493 589.999v-27h7v27h-7z
M528 582.999v-20h7v20h-7zM465 541.999v-21h7v21h-7zM83 103.999v-21h7v21h-7zM118 34.999v-14h7v14h-7z" />
    <glyph glyph-name="bracketleft" unicode="[" horiz-adv-x="370" 
 />
    <glyph glyph-name="backslash" unicode="\" horiz-adv-x="278" 
 />
    <glyph glyph-name="bracketright" unicode="]" horiz-adv-x="370" 
 />
    <glyph glyph-name="asciicircum" unicode="^" horiz-adv-x="495" 
 />
    <glyph glyph-name="underscore" unicode="_" horiz-adv-x="500" 
d="M0 -49h500v-49h-500v49z" />
    <glyph glyph-name="grave" unicode="`" horiz-adv-x="500" 
d="M376 526h-47.001l-153 88c-12 7.33301 -21.333 14.333 -28 21s-10 16.667 -10 30c0 8.66699 3.33301 16.834 10 24.501s17.334 11.5 32.001 11.5c14 0 26.167 -2.83301 36.5 -8.5s21.833 -14.834 34.5 -27.501z" />
    <glyph glyph-name="a" unicode="a" horiz-adv-x="537" 
d="M194 505l7 -5.99902v-6l-7 -7v-7l7 -6h7c14 21.333 31 32 51 32h7v-6l-7 -20l26 20h20c48 -6 84.667 -23.333 110 -52h-7l-38 7c-49.333 -25.333 -82 -47 -98 -65c-21.333 5.33301 -32 11.666 -32 18.999l-169 -38h-6l-26 90c54 30 105.667 45 155 45zM402 434.001
l19 0.000976562l26 -26v-6l-13 -20v-6c22 0 33 -10.667 33 -32l-39 -13l6 -7v-7l-6 -6v-6l6 -7l7 7h26l6 -26l-6 -7l-7 7h-6c-11.333 0 -22.333 -11 -33 -33h7l19 7v-13l20 13h6v-13l-19 -20l-39 7c0 -12.667 -6.33301 -19 -19 -19v-7h19c30 0 45 6.33301 45 19l13 -12v-137
c0 -22.667 -10.667 -44.334 -32 -65.001h-97c-13.333 0 -20 15.333 -20 46h-7c-41.333 -34.667 -80 -52 -116 -52h-52c-83.333 0 -133 52 -149 156c0 99.333 82 157.666 246 174.999l59 6v7l-13 45c0 12.667 15 21.334 45 26.001c0 -6.66699 8.66699 -13 26 -19l-7 -7v-7
c0 -10 15.333 -16.333 46 -19v7c0 8 -6.66699 12 -20 12l-6 7v19c17.333 0 26 8.66699 26 26zM363 246.002h-7l-6 7h-6l-13 -20h6l19 7v-7c28 11.333 43.333 22.333 46 33v6h-26c-8.66699 0 -13 -8.66699 -13 -26zM168 168.002v-12c0 -22 11 -37.333 33 -46h39
c47.333 8 71 36 71 84v39h-32c-74 0 -111 -21.667 -111 -65zM305 447.002v-6l19 -7v13h-19zM240 421.002l13 -13l19 7v13l-13 13zM363 298.002v-6h13v6h-13zM408 285.002h13v13zM356 194.002l7 -6h7v20zM441 194.002v-6h13v6h-13z" />
    <glyph glyph-name="b" unicode="b" horiz-adv-x="537" 
d="M6 467l129 0.000976562l11 -11v-67c36.667 33.333 78 50 124 50h17c106.667 0 166.667 -67.667 180 -203v-28c0 -46 -15 -89 -45 -129c-43.333 -52.667 -88.333 -79 -135 -79l-28 34h-28v-23l-34 11l-6 -5v-6c-30 10.667 -45 27.667 -45 51l-5 5h-12l-27 -5v-11l5 5h6
l11 -11v-28l-11 -11h-102l-11 11v17l6 6l-6 5v22c0 82.667 5.66699 124 17 124l-17 29v16l6 17l-6 29v33l6 6l-6 6v5l6 68h5l6 -6l34 11l11 -11h5l6 6l29 -17c12 11.333 23 17 33 17v11l-62 17c0 -6.66699 -9.33301 -12.334 -28 -17.001c-30 4 -45 9.66699 -45 17v11z
M51 389.001l-0.000976562 -6.00195l28 -29l5 6c0 -7.33301 13.333 -16.666 40 -27.999v-5l-6 -6l-34 17c-16.667 -22.667 -29.667 -34 -39 -34v-6l11 -11h6l5 6h6l23 -23l28 6l17 -6v17h11v-5l-11 -23l5 -23l-5 -28l5 -22l-17 -12c0 -6.66699 24.667 -30.667 74 -72l5 5h6
l6 -5c35.333 0 67 18.667 95 56h6l-6 16l6 34c30 -2.66699 45 -17.667 45 -45h6l17 11l-23 34v28c15.333 12.667 23 24 23 34l-12 12l-5 -6h-18l-16 11l-17 -5l33 -40v-11l-11 -11h-5l-17 16l11 17l-45 62c-21.333 14.667 -40 22.334 -56 23.001
c-21.333 0 -47.666 -13.333 -78.999 -40c-18.667 0 -28 4 -28 12c0 14.667 9.33301 22 28 22v6c-11.333 0 -17 3.66699 -17 11c22.667 0 34 3.66699 34 11l-28 12l-39 -18l-35 23l-11 12h-5zM101.999 219.999l16 -6.00098l6 22c-14.667 -5.33301 -22 -10.666 -22 -15.999z
M10.999 618.998h124l11 -11v-124l-11 -11h-45l6 6v11l-40 11l6 -5v-12l-11 -11h-23l-28 6v39l6 5l-6 6v28l6 23l-6 23v5zM44.999 573.998v-5l11 -12v6zM10.999 528.998v-11h17l-11 11h-6zM258.999 404.998l-6 -5v-17l17 -6l6 6v6zM314.999 376.998l12 -11v11h-12z
M185.999 371.998l-12 -12l6 -17h11l6 23l-6 6h-5zM27.999 303.998v-6h12v6h-12zM16.999 286.998v-11h17l-12 11h-5zM438.999 269.998v-5h11v5h-11zM404.999 252.998v-11h6v11h-6zM421.999 241.998v-6h12v6h-12zM55.999 196.998h11v11zM27.999 202.998v-12h12z
M393.999 185.998v-17l11 11l-5 6h-6zM27.999 168.998v-17l-6 6h-5l-6 -6v-6l23 -5l-6 -17v-11h6l17 39l-6 17h-17zM427.999 162.998v-5h17v5h-17zM393.999 140.998v-12h6v12h-6zM342.999 117.998v-11l34 -5v27h-5zM388.999 123.998v-11l11 11h-11zM410.999 106.998v-11h6v11
h-6zM61.999 78.998v-12h5v12h-5zM33.999 61.998v-6h11v6h-11z" />
    <glyph glyph-name="c" unicode="c" horiz-adv-x="488" 
d="M474 600l12 0.000976562l13 -25c-16.667 -16.667 -25 -31.334 -25 -44.001h-13v32zM430 499.001l6 -5.99902h6l19 6v-6l32 -95c-6.66699 -16.667 -13 -25 -19 -25h-6c-10 0 -16.333 10.333 -19 31h-19c0 -16.667 -4.33301 -25 -13 -25l-6 6v7l6 19l-19 12l-13 -56l-82 12
c-62 0 -108.333 -29.333 -139 -88h-12v-7h12v-6l6 -89l-6 -19c8.66699 0 13 -6 13 -18l6 -6h6v12h7c29.333 -25.333 58.666 -38 87.999 -38h32c30 0 53 4.33301 69 13c8.66699 -7.33301 17.334 -43.333 26.001 -108c-25.333 -16.667 -63.333 -25 -114 -25h-57
c-160 20 -240 98 -240 234v6c-0 151.333 90.333 235.666 271 252.999h39c67.333 0 101 -10.667 101 -32c8 0 12 12.667 12 38h7zM613 695.002h12v-7h-12v7zM563 619.002h12v-6h-12v6zM619 606.002h13l-26 -25h-6v6zM442 348.002h13v-13zM38 303.002h13l31 19l-6 19h-7z
M101 329.002l-6 -26l6 -19h13v26h12v-13h13v13l-32 19h-6zM13 234.002v-6h12v19zM82 234.002v-6l13 -13v6z" />
    <glyph glyph-name="d" unicode="d" horiz-adv-x="537" 
d="M358 651c25.333 -16 61.333 -25.667 108 -29v-12h12l6 17l-6 7h18v-30l-12 -18l12 -12v-48l-12 -12l-30 18v-6c0 -8.66699 14 -16.667 42 -24v-12c0 -8 -12 -12 -36 -12v-6c24 0 36 -4 36 -12v-71h-12c-22.667 0 -44.667 8 -66 24h-5v-13h-7l-59 18l53 -36l30 7
c44 -9.33301 66 -17.333 66 -24v-102h-6c-8 0 -12 10 -12 30h-6v-30l-35 12l5 6v36h-5v-12h-13v24h-6v-18l6 -24l-6 -6l-5 6h-13c24 -22.667 50 -38.667 78 -48v-137l6 5h6l6 -5v-36h-12v-48l-12 -12h-42l-17 18v120l-7 35l7 30v12h-7c-8.66699 -39.333 -16.667 -59 -24 -59
l7 -31l-7 -29l18 -90l-5 -6h-19c-12 0 -18 22 -18 66h-5c0 -12.667 -10 -24.667 -30 -36l-6 6v12h12v29l-6 31h-6v-18l6 -30h-12v-36c0 -13.333 -30 -23.333 -90 -30l-12 12l-12 -12h-12c-29.333 0 -45 6 -47 18v12l11 12l-29 221l5 113h-11v-95h-12v24h-12v-54l-7 -6v-6
c6.66699 0 14.667 -38 24 -114h7v6l-7 108l7 6h6l5 -83h-5l11 -48l-6 -7v-5l6 -6v-6l-6 -54l6 -6v-6l-6 -6h-5c-15.333 0 -31.333 16 -48 48c-4 107.333 -10 161 -18 161l6 42v60l-12 47c30 44 55.667 66 77 66l37 -12l5 7v5c-12 0 -18 4 -18 12l48 12h6l6 -6l6 6h12
c44 0 82 -14 114 -42c0 16 4 24 12 24l-6 6v12h48v6c-36 0 -54 4 -54 12v90l12 12l5 -6v-6l7 6h17l7 -6h6v6l-6 18h-36l-12 12v30c0 7.33301 5.66699 11 17 11zM155 233c0 -69.333 30 -109 90 -119h24c20 0 41.667 13.667 65 41h7v120c0 52 -32 79.667 -96 83
c-48.667 0 -78.667 -41.667 -90 -125zM24 347h6l12 -13c0 -46 -4 -77.667 -12 -95c8 -15.333 12 -37.333 12 -66v-6h-12l-12 36l6 30l-12 36v24zM437 66l-0.000976562 -42c8.66699 0 14.334 14 17.001 42l-6 -6h-6zM453.999 658h36v-12h-6l-30 5v7zM357.999 634v-7h13v7h-13
zM423.999 574v-6h18v6h-18zM82.999 389v-24l7 -42h6v24l-6 42h-7zM453.999 371v-6h12v6h-12zM399.999 245v-12h6v12h-6zM-0.000976562 239h12v-24h-12v24zM5.99902 191h12l18 -71h-12zM477.999 83v-11h6v11h-6z" />
    <glyph glyph-name="e" unicode="e" horiz-adv-x="537" 
d="M212 485c138.667 0 220.999 -40 246.999 -120l13 -32l-7 -6h-6l-114 19l7 -19h12c76 -8 114 -18.667 114 -32l6 -31v-51h-25l-50 13l-7 -7v-6c21.333 0 32 -4 32 -12h-13l-44 6h-13v-6h32v-13h-203l-6 19l-6 -6h-6l-7 6h-12v-6h12l-12 -26
c22.667 -46.667 60.667 -70 114 -70c10 30 18.333 45 25 45l6 -6l-6 -32v-7h12l127 13l19 -95c-39.333 -20.667 -92 -31 -158 -31h-45c-114 0 -191.667 48.333 -233 145v7l6 19h-6c-10 0 -16.333 25 -19 75c8 0 12 6.33301 12 19l45 -6h6v13
c-12.667 0 -29.667 12.667 -51 38c24.667 71.333 45.667 107 63 107h7c33.333 0 50 -8.33301 50 -25l63 6l13 -13v-6c-12 0 -22.333 -8.33301 -31 -25l12 -13l-12 -12l-13 12l-13 -38h184v32l6 6v6c-39.333 34 -83.666 51 -132.999 51c-29.333 10 -44 18.667 -44 26l-6 -7
h-7l-57 13v6c47.333 38 87.333 57 120 57zM71.999 279c0 -8 5.66699 -12 17 -12l17 6v6h-34zM25.999 216v-6c10.667 0 31.667 -11.667 63 -35h35v6l-92 35h-6zM65.999 -31h6c42 -55.333 63 -99.333 63 -132c-34.667 32 -52 58.667 -52 80h6zM140.999 -180
l11.001 -0.000976562l23 -52l29 6c26.667 -28.667 40 -50 40 -64h6v12h29c19.333 -9.33301 29 -24.666 29 -45.999v-17l-18 -17h-5c-30.667 0 -46 9.33301 -46 28h-6l-17 -28c11.333 -4 17 -15.667 17 -35l-6 -5h-17c-8.66699 0 -14.334 9.33301 -17.001 28l5 6
c-49.333 0 -74 23 -74 69h11l-34 92l28 -23h12v46zM198 295.999h12v-11h-12v11zM55 249.999v-6l28 -5h23v5l-28 6h-23zM89 226.999v-11h17l12 11v6zM313 215.999v-6l29 -6h6v6l-29 6h-6zM170 -20.001h5v-11h-5v11zM112 -42.001l17 -18v-5l-11 -12h-6l-11 12v11z" />
    <glyph glyph-name="f" unicode="f" horiz-adv-x="391" 
d="M272 704l83 -13v-102l-13 -12h-57c-38 0 -57 -25.333 -57 -76v-32l-88 26l-38 -7v7l-7 -7h-12l-13 13v6c0 98 50.667 161.333 152 190zM89 469l13 -0.000976562c147.333 -15.333 221 -38.666 221 -69.999v-6h-19l-12 13l-32 -7h-13l-6 7l-7 -7h-6l-13 13l7 6v7h-26
c-8 -8.66699 -24.667 -13 -50 -13v-6l32 -7l6 7h6c44.667 -17.333 85 -26 121 -26h12v-12h-95c0 -17.333 -10.667 -26 -32 -26v-6c21.333 0 32 -4.33301 32 -13v-152l-57 7l-31 -7c0 12.667 -21.333 19 -64 19l-6 6v172h-57l-13 12v58l13 12l19 -6v6l6 7l95 -13h13v6l-57 7
v12zM76 158.999c101.333 -12.667 151.999 -25.333 151.999 -38v-70l-13 -13l-19 6h-6v-6c16.667 0 29.334 -8.33301 38.001 -25l-13 -13h-132l-13 13l6 6v6l32 -6h6v6c-29.333 4.66699 -44 11 -44 19v39l6 6l-6 6v19l6 7v6l19 -6h7v6l-32 13zM252.999 685v-7h13v7h-13z
M139.999 127v-6h19v6h-19zM113.999 57v-13h7v13h-7zM151.999 51v-7h13v7h-13z" />
    <glyph glyph-name="g" unicode="g" horiz-adv-x="537" 
d="M369 456c39.333 -2 59 -8 59 -18v-5h-11l-36 11l-24 -6l-6 6v6zM297 433c14.667 0 30.666 -8.00195 47.999 -24.002c0 12 4 18 12 18h113l12 -12v-18c0 -8 -8 -12 -24 -12v-6h18v-303c0 -8.66699 -6 -13 -18 -13l-36 7h-5v-7c11.333 0 17 -5.66699 17 -17h12l18 12
l12 -12v-42l-18 -18h-54c-51.333 0 -77 6 -77 18v59c-34 -35.333 -75.667 -53 -125 -53h-6c-58.667 0 -104 20 -136 60v6c19.333 -1.33301 29 -5.66602 29 -12.999l6 7h6l18 -7l-18 19h-36l-5 -6h-6c-36 38 -54 83.333 -54 136v6l12 12h12c87.333 0 131 -9.66699 131 -29
c14.667 -56 40.334 -84 77.001 -84h24c40.667 0 64.334 30 71.001 90v65l12 12h72v6h-84c-12 43.333 -41.667 65 -89 65c-44.667 0 -74.334 -37.667 -89.001 -113h-24l-18 12h-12l-89 -6l-6 18c0 24 14 39.667 42 47c0 6 -8 12.333 -24 19
c20 44.667 49.667 78.334 89 101.001h190zM326.999 -38.002c0 -7.33301 6 -11 18 -11l6 -6v-6l-12 -12l42 -6h41l12 -12v-6c-44.667 -55.333 -110 -83 -196 -83h-42c-94 4 -145.333 17.667 -154 41c13.333 64 25 96 35 96l54 -24v-6l-6 -6v-6l131 -24l24 6l17 -6
c0 8 -25.667 16 -77 24v12l48 12l35 -6h6l-12 18v6zM207.999 461.998h30l54 -12v-12h-12l-131 6v12zM451.999 455.998h18l12 -12l-12 -11h-30v11zM160.999 414.998v-6h29v6h-29zM106.999 390.998l-6 -6v-6l36 -6l6 6v6zM416.999 390.998v-6h17v6h-17zM70.999 324.998v-6h12
v6h-12zM94.999 318.998v-6l36 -11v11l-30 6h-6zM148.999 312.998v-5h12v5h-12zM421.999 283.998v-6h12v6h-12zM362.999 223.998v-6h18v6h-18zM386.999 217.998v-6h24l17 6v6h-6zM427.999 211.998v-5h12v5h-12zM362.999 187.998v-5l24 -6v11h-24zM397.999 182.998v-6h19v6
h-19zM397.999 164.998v-6l24 -6l6 6v6h-30zM154.999 99.998v-7h12v7h-12zM201.999 92.998v-6h12v6h-12zM219.999 92.998v-6l24 -5h6v5l-18 6h-12zM255.999 86.998v-5h12v5h-12zM326.999 81.998v-6l54 -13l6 7v6l-42 6h-18zM338.999 62.998v-5h12v5h-12zM368.999 -97.002
l18 -18v18h-18z" />
    <glyph glyph-name="h" unicode="h" horiz-adv-x="539" 
d="M12 678l137 -0.000976562l13 -12v-218c0 -8 -6.33301 -12 -19 -12v-7l19 -6l6 6l199 -6h62c16.667 0 33.334 -39.333 50.001 -118l-6 -6h-6c-26.667 0 -70.334 10.333 -131.001 31l-31 -7l-13 19l7 6h6l37 -6h12v6l-130 13c0 -16.667 -6.33301 -25 -19 -25h-25l7 6v6
l-31 6h-44c13.333 -23.333 32 -37.666 56 -42.999l-12 -43c-104 4 -156 12 -156 24v50l6 6l-6 6v13c0 12.667 16.667 19 50 19c0 6 -16.667 14.333 -50 25v12l6 6v7l6 -7h13v13h62v6h-81l-6 6v212zM292 478.999c59.333 0 99 -12.333 119 -37l-7 -6h-211v6
c23.333 24.667 56.333 37 99 37zM0 267.999l93 -7h38l31 -31v-155c0 -8.66699 -14.667 -13 -44 -13v-6c29.333 0 44 -4.33301 44 -13v-31l-13 -12h-99v12h-13v-12h-31l-6 62v31c-0 8.66699 6.33301 13 19 13l6 -6h12v6c-24.667 4 -37 10.333 -37 19v55l6 25l-6 25v38z
M62 391.999l-6 -6v-7h6l25 7v6h-25zM112 385.999v-7l44 -6l6 6v7h-50zM205 385.999v-7h13v7h-13zM68 366.999v-6l13 -13h25v13zM187 366.999v-6h12v6h-12zM367 347.999v-6l50 -6v12h-50zM330 304.999l93 -25l44 6l12 -18v-7l-6 -6l6 -6v-237l-12 -12h-137l-13 12l13 13
l-13 12v187l13 12l118 -25l6 7v6l-87 12v13h31v6l-68 19l-7 -6l-6 6v18zM404 254.999v-6l32 -6h31l-13 12h-50zM106 210.999v-6h12v6h-12zM19 198.999v-6l81 -6h6v6l-69 12zM386 130.999v-6h12v6h-12zM112 80.999v-6h19v6h-19z" />
    <glyph glyph-name="i" unicode="i" horiz-adv-x="195" 
d="M76 685l76 -102h7v7l-70 89l6 6h7c38.667 0 61.667 -27.333 69 -82c-8 -46.667 -31 -70 -69 -70h-32c-34.667 0 -58 23.333 -70 70c6.66699 54.667 32 82 76 82zM19 482l133 0.000976562l13 -13v-25l-13 -13l-31 7l-45 -7l-6 7h-7l-25 -7
c-21.333 3.33301 -32 9.66602 -32 18.999v19zM19 418.001h133l13 -12v-393l-13 -13h-133l-13 13v203c0 8.66699 8.66699 13 26 13v6c-17.333 0 -26 4.33301 -26 13v158zM44 368.001l13 -13l6 6v7h-19z" />
    <glyph glyph-name="j" unicode="j" horiz-adv-x="268" 
d="M161 643c31.333 0 53.999 -22.668 67.999 -68.001c-7.33301 -25.333 -19.666 -42.666 -36.999 -51.999h-5l-83 83v11c0 12 19 20.667 57 26zM87.999 600.999h16v-5l-5 -5l26 -57l-5 -6h-6c-17.333 9.33301 -26 23.333 -26 42v10l6 5l-6 6v10zM98.999 475.999h56.999
c7.33301 0 11 -5 11 -15c16.667 0 30.334 -8.66699 41.001 -26v-5l-21 5l-46 -11v6l-6 -6h-36l-11 11v31zM202.998 465.999c6.66699 0 11.667 -10.332 15 -30.999c-10 3.33301 -15 13.666 -15 30.999zM98.998 414l31 -0.000976562l57 -62l5 5h6l20 -21v-5l-15 10h-5v-15l5 5
h5c10.667 -3.33301 16 -13.666 16 -30.999v-167c0 -145.333 -73 -218 -219 -218c-6.66699 14 -11.667 45.333 -15 94c65.333 0 98 38 98 114v280zM145.998 631.999v-5l26 -36h5v10zM202.998 579.999v-5l10 -11v6zM150.998 413.999h21v-11h20v11h21l11 -11v-57h-6l-31 27
l-5 -6l-31 36v11zM140.998 351.999v-6l15 -15v5zM124.998 309.999h26l-10 10h-6zM186.998 293.999v-5l21 -20v4z" />
    <glyph glyph-name="k" unicode="k" horiz-adv-x="525" 
d="M97 658l24 -30c10.667 0 20.667 -10 30 -30v-12h-18c-6.66699 0 -14.667 14 -24 42c-16.667 0 -25 8 -25 24l7 6h6zM0 580h12c0 -20 14 -46.333 42 -79v-6l-6 -6l6 -6l-6 -6h-6l-42 24v79zM6 477c49.333 0 79.667 -18 91 -54v-6c-8 -18.667 -16.333 -28.667 -25 -30h-11
c-8.66699 0 -13 6 -13 18h-18l6 -7v-5l-6 -6h-6l-24 36v12h12l-12 36zM290.001 459h36c16 -2 34 -26 54 -72l-5 -7h-91l-30 37zM459.001 459l0.000976562 -12l-61 -60c-4.66699 0 -12.334 20 -23.001 60l-6 6l6 6h84zM12.002 375h36l6 -6l7 6h11v-6l-6 -7v-6l6 -6v-6
c-10 -32 -20 -48 -30 -48l-42 54v6h6l30 -24v6c0 8 -6 12 -18 12l-6 6v19zM103.002 375l30 -19v13h12v-13l6 -6l-6 -6h-6l12 -72l6 6h6c8 0 22.333 -22.333 43 -67c29.333 -30 57.333 -68 84 -114h12c-2 20.667 -28 63 -78 127l5 18c30.667 -22.667 63 -69 97 -139
c13.333 -8.66699 31.333 -31 54 -67v-6l-5 -6l5 -6v-6l-11 -12h-19c-20 12 -30 24 -30 36h-6v-6l6 -18h-6l-6 -6h-6c-40 70.667 -72 119 -96 145l-13 30h-6l-24 -18c-32 35.333 -48 57.333 -48 66l-24 -5l60 -79v-48h-12c0 19.333 -20 53.333 -60 102
c0 10.667 -6 22.667 -18 36c13.333 60.667 23.333 91 30 91l6 -6h6v6l-12 18v12zM242.002 369l24 0.000976562l48 -67v-6l-18 -24l193 -266l-6 -6h-54c-9.33301 0 -23.333 26.333 -42 79c-92.667 109.333 -139 169.666 -139 180.999l6 -6h12l-55 96v12h18
c0 -10 10.333 -24 31 -42l6 6v6zM308.002 369.001h67v-7c-2 -10.667 -18.333 -28.667 -49 -54l-30 42v6zM0.00195312 326.001h12c0 -8 10 -20 30 -36l6 -30h-12c0 10.667 -12 28.667 -36 54v12zM187.002 326.001h12l43 -54v-6c-20 9.33301 -38.333 25.333 -55 48v12z
M175.002 302.001c24 -10 36 -28 36 -54l-42 48zM42.002 127.001h6c8 0 18.333 -18.333 31 -55l5 -6l31 -60h-6l-25 -6h-36l-12 12zM145.002 658.001l6 -6v-12h-6l-12 12l6 6h6zM103.002 598.001h6v-12h-6v12zM115.002 580.001l12 -12v-12l-12 12v12zM133.002 550.001h6v-12
h-6v12zM121.002 405.001l6 -7v-11h-6l-12 11l6 7h6zM0.00195312 398.001h12v-5h-12v5zM248.002 398.001l6 -5v-6l-6 -7h-13v7zM0.00195312 199.001h12l18 -48l-6 -115v-24l-12 -12l-12 12v187z" />
    <glyph glyph-name="l" unicode="l" horiz-adv-x="197" 
d="M12 637h122l12 -12v-128l-6 -6l6 -6v-111l-12 -12h-122l-12 12v251zM94 625v-11h11v11h-11zM6 351l99 -6h29l12 -12v-321l-12 -12h-122l-12 12v327l6 6v6z" />
    <glyph glyph-name="m" unicode="m" horiz-adv-x="830" 
d="M280 501h25.998c64.667 0 114.667 -28 150 -84c26.667 56 74.334 84 143.001 84l13 -13h7v13h13c66 0 115.667 -41.333 149 -124v-6l-6 -6h-59c-18 0 -35.333 6.33301 -52 19l-52 -13l-13 26l-26 -6l-26 13l-20 -7l7 -6v-7l-7 -7h-110c-59.333 0 -113.666 22 -162.999 66
l-39 13v-19l52 -20v-13c0 -13.333 -8.66699 -20 -26 -20c-91.333 0 -137 4.33301 -137 13l-32 -6h-59l-13 13v52l20 20l6 -7l-6 -7v-6l13 -13l6 6v46h13c21.333 -30.667 45.333 -46 72 -46v7c17.333 -4.66699 26 -17.667 26 -39h13v6l-7 7v7h20l6 -7h7l13 26l-7 20l7 6l-7 6
h7l6 -6zM12.998 371h59l58 -6l7 6l32 -6h7l32 6v-6l-26 -27h-13l-6 7h-7v-7l13 -12l-6 -46v-267l-13 -13h-137l-13 13v286c0 9.33301 6.66699 14 20 14v6c-13.333 0 -20 4.33301 -20 13v26zM618.998 352h6l85 -14v14h13l26 -7l26 7c12.667 0 19 -28.333 19 -85v-7l-39 -97
v-7h7l19 59l13 -13v-189l-13 -13h-136l-13 13v208c0 8.66699 15 13 45 13v7c-30 0 -45 4.33301 -45 13v6c0 8.66699 6.33301 13 19 13v7c-21.333 0 -32 24 -32 72zM325.998 319l44.999 -39v-7l-33 7c0 -34.667 11 -52 33 -52l26 -13l20 6v7
c-17.333 0 -30.666 8.66699 -39.999 26v6l46 7c0 8.66699 -13 13 -39 13v13h39c9.33301 0 14 -11 14 -33c26 0 39 -4 39 -12v-46c0 -8.66699 -6.66699 -13 -20 -13v-7c13.333 0 20 -4.33301 20 -13v-156l-14 -13h-136l-13 13v293zM657.997 280v-20
c30 -1.33301 45 -5.33301 45 -12l20 6c0 8.66699 -15.333 13 -46 13l-13 13h-6zM644.997 476v-14h6v14h-6zM657.997 456l-7 -7v-6h20zM376.997 437v-7l33 -7h7v7l-26 7h-14zM689.997 437v-14h7v14h-7zM25.9971 423v-6l13 -13l6 6v7zM116.997 423v-6h13v6h-13zM468.997 423
l7 -26l32 13v7zM331.997 410l13 -13h13l-13 13h-13zM272.997 404h14l12 -13v-7h-12l-14 13v7zM331.997 358h13l143 -6v-7l-12 -13l-144 13v13zM631.997 332l13 -13l6 7v6h-19zM97.9971 326v-7h19v7h-19zM735.997 326v-13h-7l-19 6l13 -20l-7 -6l7 -6h6l13 32v7h-6z
M32.9971 299v-6h12v20zM689.997 241v-13h13zM657.997 195v-13h13v13h-13zM735.997 156v-13h6v13h-6z" />
    <glyph glyph-name="n" unicode="n" horiz-adv-x="541" 
d="M291 498h45l13 -13l-6 -6v-13h6c0 17.333 8.66699 26 26 26c30 0 66.667 -36.667 110 -110l7 -46c0 -8.66699 -6.66699 -13 -20 -13v-6c17.333 0 26 -4.33301 26 -13v-97l-6 -6l6 -7v-181l-13 -13h-142l-13 13c0 16 13 44 39 84h-13l-13 -39h-13v71l32 91l-6 19l13 26v6
h-7l-19 -51h-13v51l-7 59l39 71l-45 -58h-6c0 16 -19.667 26.667 -59 32l-45 -13v13c16 38 44 79 84 123zM13 492l26 -13.001l-19 -45l6 -20l58 78h45c13.333 -3.33301 20 -20.666 20 -51.999v-6c0 -22.667 -17.333 -53 -52 -91h-77l-20 13l6 6l-6 33v84zM168 419.999
l-0.000976562 -6l-13 -45h-13v6c10.667 30 19.334 45 26.001 45zM109.999 277.999v-13l-52 -103l6 -7h7l-7 -19l7 -7v-6c-8.66699 -26 -23.667 -47.667 -45 -65l6 -6v-7l-12 -39h-20v7l6 7l-6 32v52c21.333 0 32 12.667 32 38l-6 7v6l45 84l7 -6h6v6l-6 7v6
c12.667 0 19 6.33301 19 19l7 7h6zM180.999 458.999h7v-13h-7v13zM12.999 329.999h58l13 -13l-71 -175h-13v175zM154.999 284.999h13v-272l-13 -13h-32l-19 13l-14 -13h-38l-13 13z" />
    <glyph glyph-name="o" unicode="o" horiz-adv-x="564" 
d="M555 766h7c0 -8.66699 8.33301 -13 25 -13v-13c-12.667 0 -19 -8.33301 -19 -25c-21.333 -12.667 -32 -29.667 -32 -51l-19 -13h-6l-13 13v19l6 6v7l-6 6l-7 -6h-6l-13 12c12.667 0 19 10.667 19 32zM249 498h44.001c116.667 0 195.667 -59.667 237 -179l-7 -6h-102
c-46.667 0 -76.334 14.667 -89.001 44c0 18 -21.333 28.667 -64 32h-6c-35.333 0 -63 -23.333 -83 -70c-106.667 3.33301 -160 12 -160 26c48 102 124.667 153 230 153zM19.001 313h122l31 -7v-70c0 -85.333 30 -128 90 -128h6c68 0 102 51.333 102 154l-6 31l6 7h13
c102 0 153 -8.66699 153 -26v-31c0 -139.333 -83 -220.333 -249 -243h-44c-144.667 0 -225.667 85 -243 255c2.66699 38.667 9 58 19 58zM632.001 785h13l19 -19l-7 -7h-6l-19 7l-32 -13v13zM638.001 734h13v-13h-13v13zM721.001 702h13v-6h-13v6z" />
    <glyph glyph-name="p" unicode="p" horiz-adv-x="516" 
d="M278 473h28.999c86.667 0 145.667 -63 177 -189v-12l-6 -5h-124l-76 88l-89 94c22.667 16 52.334 24 89.001 24zM6.99902 467l106 0.00195312c12 0 18 -19.667 18 -59l35 30h6c8.66699 -0.666992 30.334 -24.334 65.001 -71.001c-44 0 -75.333 -33.333 -94 -100h-42v-6
c31.333 0 47 -4 47 -12v-36c0 -62.667 31.667 -94 95 -94c58.667 10 88 47.333 88 112c0 16 4 24 12 24l106 -130v-18c-48.667 -62.667 -100 -94 -154 -94h-46c-30.667 0 -64.334 13.667 -101.001 41v-200l-11 -12h-124l-12 12v424l6 6c-8 17.333 -12 48.666 -12 93.999v77z
M183.999 325.002c27.333 -13.333 41 -23 41 -29v-18l-18 12v-12h-6l-23 24v11l6 6v6zM23.999 272.002v-5h18v5h-18zM371.999 255.002l88 -6h12l12 -12v-6l-18 -88h-6l-88 100v12z" />
    <glyph glyph-name="q" unicode="q" horiz-adv-x="523" 
d="M162 494h59.002c37.333 0 75 -18 113 -54v42l61 6h5l24 -6l24 6h24l12 -12v-101l-12 -13l12 -41l-6 -6h-6l-36 24l-6 -6h-12l-23 23l-7 -5h-41l-18 18l-24 -7c-24 8.66699 -36 19 -36 31c-50.667 -11.333 -84.667 -25.333 -102 -42c-13.333 -52 -27.333 -78 -42 -78
c-62.667 0 -108.334 4 -137.001 12c8 56 20 84 36 84l-6 6v5c16 38.667 51.667 72.667 107 102h13v-12c11.333 0 17 -17.667 17 -53l31 -19v19l-13 17v18l6 6v6c-8.66699 0 -14.334 10 -17.001 30zM251.002 452l0.000976562 -42l30 7l6 -7v12h6l30 -24l17 6v6
c-12.667 0 -34.334 14 -65.001 42h-24zM221.003 428l6 -6v-12h-12v-6c12 0 18 -3.66699 18 -11l6 5h6l-6 30h-18zM406.003 417l-6 5v-29l36 -13l12 13l12 -13v13c-6 16 -12 24 -18 24l-12 -13l-6 24zM329.003 327l24.002 -18l-6 -42v-6c0 -8 11.667 -14 35 -18l24 6l6 -18h6
c0 12 4 18 12 18l6 -6h6l24 6c12 -4 18 -16 18 -36v-29c0 -8.66699 -18 -21 -54 -37v-11l42 24l12 -13v-280l-12 -12h-84l-12 12l12 12v6h-12c-5.33301 0 -11.333 -8 -18 -24l-5 -6h-13l-11 12v24c0 20 17.667 42 53 66h-6l-42 -30l-5 6v149
c-41.333 -36 -79.333 -54 -114 -54h-48c-74.667 0 -132.334 53.667 -173.001 161l-6 66l6 6h137c7.33301 0 17.666 -25.667 30.999 -77c20 -28 41.667 -42 65 -42h30c40 0 64 27.667 72 83v48l5 6l-5 6v42zM436.005 315h30v-12c12 0 18 -4 18 -12v-12l-6 -6v-6l6 -6l-6 -6
h-66c-20 0 -30 4 -30 12l-6 -6h-12v12l7 6v6c31.333 -4.66699 47 -12.667 47 -24l30 12l6 -6c0 8 6 12 18 12l6 6v6l-42 6v18zM-136.995 231l12 -12.001l-12 -18l30 -35v-6h-6c-17.333 6.66699 -35.333 28.334 -54 65.001h6l6 -6h6zM-94.9951 141.999h6l66 -36l5 -6v-6l6 6
h24l24 -24v-18l-12 -12c-20 0 -30 6 -30 18h-6l-6 -30l12 -12l-12 -12c-10 12 -25.667 18 -47 18c0 8 -6 12 -18 12l-6 6v12l6 6l-36 54h6l18 -6v30zM-154.995 475.999v-12h-12zM347.005 439.999v-6h11v6h-11zM376.005 433.999l12 -12v12h-12zM-148.995 421.999h12v-5h-12v5
zM311.005 392.999v-13h6v13h-6zM167.005 385.999v-24h6v24h-6zM102.005 374.999v-24h6v24h-6zM-70.9951 368.999h11l6 -42l-6 -6h-5l-6 6v42zM323.005 344.999h6v-18h-6v18zM-124.995 326.999h6l12 -12l-6 -6h-6l-6 6v12zM371.005 308.999h11v-12h-24zM42.0049 21.999h12
v-12h-12v12z" />
    <glyph glyph-name="r" unicode="r" horiz-adv-x="363" 
d="M277 497l33.001 -0.00292969l13 -13v-129h-32c-9.33301 0 -14 10.667 -14 32h-6c0 -25.333 -17.333 -40.333 -52 -45l-6 7v6l19 20c-16.667 0 -25 12.667 -25 38c-38 -33.333 -72.333 -52.666 -103 -57.999l-78 -64l58 38l6 -6h7l7 26l6 -7h6l32 13
c0 -13.333 -8.33301 -20 -25 -20v-6h13c34 22.667 51 44.334 51 65.001h7l6 -39l-26 -26h7l6 6h7v-12c-12 -13.333 -22.667 -43.666 -32 -90.999h-142l-14 13v123c77.333 56 124.666 84 141.999 84v-45h7c27.333 60 68 90 122 90zM13.001 490.997h65l32 -7v-13
c-58.667 -27.333 -91 -55.333 -97 -84h-7l-6 32v59zM13.001 212.997c103.333 -3.33301 155 -12 155 -26v-174l-13 -13h-39l-6 6l-6 -6h-84l-14 13l14 13h-14v174l7 7v6zM271.001 470.997v-26h6v26h-6zM265.001 425.997v-32h12l-6 32h-6zM148.001 296.997v-13h7v13h-7z" />
    <glyph glyph-name="s" unicode="s" horiz-adv-x="411" 
d="M183 492h63v-13c-18 0 -39 -8.33301 -63 -25h-13v25zM145 486h6.00098l13 -13v-25l-107 -82h-13v57c23.333 33.333 52.666 50 87.999 50zM284.001 486h12l13 -13l6 6h13v-6c0 -6.66699 -8.33301 -13 -25 -19l-19 6v-6c0 -8.66699 -14.667 -13 -44 -13h-7v13zM353.001 435
c-6 -46 -14.333 -69 -25 -69h-6c-8.66699 0 -13 12.667 -13 38h-6v-26h-13l-31 7v12l94 44v-6zM139.001 347l-0.000976562 -19c-29.333 -2.66699 -56.666 -19.667 -81.999 -51l-7 7v31l7 -6h12v6h-12v7c30 16.667 57.333 25 82 25zM164 328c46 -10.667 69 -23.333 69 -38
l-6 -25l6 -19h7c0 14 4 24.333 12 31v7h7l6 -7h6l6 7v6c39.333 -16.667 69 -39.667 89 -69v-13l-133 6v7l-6 -7h-6c-71.333 0 -107 8.66699 -107 26l-32 -13c-19.333 8 -30 16.333 -32 25c58 50.667 96 76 114 76zM259 202.001h12l25 -7l7 7h6l44 -7v-6
c-88 -64 -149 -99.667 -183 -107v13c0 8 14.667 14.333 44 19l13 18v19l-13 19zM372 183.001l13 -13.001v-25c0 -81.333 -63.333 -129.666 -190 -144.999h-50v6l88 70c0 32 40 61.333 120 88zM50 132l108.001 -31.001v-38c-12.667 0 -42.334 -19 -89.001 -57
c-16.667 4.66699 -25 13.334 -25 26.001l6 37l-6 57zM202.001 302.999v-7h12v7h-12zM195.001 276.999l-6 -31l19 6v13zM214.001 258.999v-13h7v13h-7zM296.001 251.999v-19h7v19h-7zM158.001 201.999h25l25 -7l19 7v-7l-19 -18l-50 12v13zM290.001 131.999l-6 -82h12v82h-6z
M13.001 100.999h12l7 -44v-19l-13 -13h-6l-13 13z" />
    <glyph glyph-name="t" unicode="t" horiz-adv-x="417" 
d="M230 702v-131c0 -10 -14.333 -19.667 -43 -29v-8h7l51 22l29 -14c0 14 5 21 15 21h51v-7c-82 -65.333 -152.667 -104.333 -212 -117l-73 -43l-7 7v7c0 10 17 17.333 51 22v7l-22 8l-14 -15h-73l-15 15v102l15 14h58v88c0 12 60.667 29 182 51zM121 468h7
c44 16 66 28.333 66 37l-7 7c-32.667 -13.333 -54.667 -28 -66 -44zM354 498l8 -8v-14l-8 -8v-7c34.667 -10.667 52 -27.667 52 -51c0 -14.667 7.33301 -22 22 -22l14 -29h-7l-7 7h-8v-36h-7l-22 22l-7 -8h-8c-26 0 -42.667 10 -50 30l-44 -15l-22 29v22
c0 10 19.333 15 58 15v7h-88l8 29h7v-14zM230 432v-44.001c0 -8 -14.333 -17.667 -43 -29v-7h7l22 14h14v-80l-14 -22l14 -22l-14 -14h-8l-21 14c0 -9.33301 -7.33301 -14 -22 -14c-78 0 -117 7.33301 -117 22v102c0 6.66699 24.333 21.334 73 44.001l7 7l22 7v-7l8 -7z
M435 307.999h7.00098c38.667 -10.667 58 -30 58 -58c14.667 0 22 -5 22 -15l-7 -7h-7l-15 14l-14 -14c-6.66699 0 -16.334 21.667 -29.001 65zM230.001 219.999c0 -48.667 19.666 -73 58.999 -73h58l15 -14v-103c0 -19.333 -29.333 -29 -88 -29h-66
c-93.333 0 -146.666 63.333 -159.999 190v15l7 7h29zM398 110.999h22v-51h-14zM508 15.999h14v-7h-14v7zM530 -42.001h14v-8h-14v8z" />
    <glyph glyph-name="u" unicode="u" horiz-adv-x="535" 
d="M13 498l65 -0.000976562l12 -13l46 7h6l13 -13v-7l-6 -6v-7c12.667 -2.66699 19 -19.667 19 -51l-13 -97l13 -33l-6 -7v-6l6 -58l-6 -6h-7c0 46.667 -17 85.334 -51 116.001l6 6v20h-6v-20h-7c-12.667 0 -19 13 -19 39h-7l-7 -32v-7l7 -6v-6l-13 -14h13l7 7h6l6 -7
l-12 -58l6 -26l-13 -12h-58l-13 12v272zM343 497.999l6 -6.00098l33 6h103l13 -13v-246l-6 -51l6 -52v-116l-13 -14h-58l-45 33v-13l-13 -13h-13v7l6 32c-8.66699 0 -13 6.33301 -13 19l-38 -32h-7l-19 45l-14 -13l20 -51l-45 -14v14h19v12l-19 20
c-8.66699 0 -15 -17.333 -19 -52h-65l-46 6c0 9.33301 6.66699 14 20 14v12c-13.333 16 -20 31.333 -20 46l-6 -7h-6l6 -7v-6l-13 -26l19 -19h-12c-65.333 42.667 -98 92.334 -98 149.001l7 6h84l19 -19v-20l-6 -6v-7l19 -26l7 7h6c10 0 16.667 -21.667 20 -65h13l-7 7v6
l7 7c-17.333 37.333 -26 65.333 -26 84v19l6 -6l7 6h13l6 -19l7 6h13l19 -52l-7 -19h14l6 33v19c64.667 0 97 26 97 78v174c-22 22 -33 39.333 -33 52l-6 -7h-6c-17.333 9.33301 -26 22.333 -26 39l26 13l32 -13v7l-6 19zM453 193.998c0 -8.66699 -8.66699 -13 -26 -13v-6
h39l6 19h-19zM369 96.998l-7 -19l7 -33l19 7l-6 6v13h13c0 -15.333 13 -28.333 39 -39v20c-19.333 30 -41 45 -65 45zM356 465.998v-13h6v13h-6zM20 419.998l12 -45h7l6 26l-6 19h-19zM58 407.998v-26h6v26h-6zM304 303.998h13v-7h-13v7zM252 219.998h13v-19l-13 -13h-6z
M297 206.998h14v-6h-14v6zM39 161.998l13 -58l19 6v6zM375 128.998v-6l13 -13l7 6v7l-7 6h-13zM259 103.998v-14h12zM58 89.998l13 -12v12h-13zM479 63.998v-6h13v6h-13zM78 51.998v-13h6v13h-6z" />
    <glyph glyph-name="v" unicode="v" horiz-adv-x="576" 
d="M52 499h13l-6 -7v-7l13 -13v7l-7 6v7l34 7h65c13.333 0 44 -94.333 92 -283l-7 -6h-138c-12.667 8 -30 47.333 -52 118l-19 6l6 7v7l-46 137v7h6l34 -7zM380 499l20.002 -0.000976562l20 -14l13 14h98l13 -14c-2.66699 -21.333 -13.334 -32 -32.001 -32v-7l13 -13
c-54.667 -137.333 -87.667 -211.666 -99 -222.999h-124l-13 13c45.333 160 75.666 252 90.999 276zM289.002 202.999l123.999 0.000976562l7 -6h6c-45.333 -130.667 -73.666 -196.334 -84.999 -197.001h-98c-30.667 24 -46 41.333 -46 52h-13l19 -52h-6
c-10 0 -38.667 63.333 -86 190l7 7h144l7 -27h6l40 14v6h-26v13zM380.001 485v-6h27v6h-27zM407.001 413v-6h13v19zM439.001 426v-6h14v6h-14zM79.001 413v-13h20v13h-20zM374.001 387v-7h20v7h-20zM13.001 380h13v-6h-13v6zM125.001 380l-7 -6v-7l33 -6v13zM348.001 334
v-26h13v13z" />
    <glyph glyph-name="w" unicode="w" horiz-adv-x="832" 
d="M85 500v-13h-19v-7l13 -20h-20v-6h33v13l20 -13v13h-13l6 26h7v-13h6v13h7l6 -6h7l7 6h6l20 -6v-13l-6 -7v-7l13 -13c0 -8.66699 -6.66699 -13 -20 -13v-7c22 0 37.333 -35 46 -105l20 -125l-46 7h-79c-14.667 0 -39 70 -73 210c-7.33301 0 -16 26.333 -26 79l6 7h79z
M776 500l13 -13c-70 -226.667 -111.667 -345.334 -125 -356.001h-6c-158 14.667 -237 34.667 -237 60l-26 118h-7c-9.33301 -83.333 -20.333 -125 -33 -125c-52.667 4.66699 -87.667 11.334 -105 20.001c36.667 142 60.667 216.333 72 223h7l26 -19l-13 -13v-14l13 -26l33 7
v-7l20 7v6c-22.667 0 -36 6.66699 -40 20l20 26l-7 7l-6 -7h-13v7l13 13h6c9.33301 0 14 -8.66699 14 -26h52v-13l33 6h13c35.333 -162 57.333 -243 66 -243c0 44.667 24 158.667 72 342h145zM184 178c35.333 0 53 -9 53 -27h6c0 13.333 4.33301 20 13 20
c62 -4 93 -12.667 93 -26c0 -70 -33 -105 -99 -105l-99 -34l-52 165l6 7h79zM598 99l-0.000976562 -7c-61.333 -57.333 -102.666 -86 -123.999 -86l-20 60c9.33301 8.66699 57.333 19.667 144 33zM657.999 99l-0.000976562 -7c-13.333 -61.333 -26.666 -92 -39.999 -92h-79
l-13 13zM341.998 500h112l13 -13l-13 -13l-20 13l-99 -20h-6v20zM111.998 427v-6h19v6h-19zM453.998 375v-13l13 13h-13zM164.998 329v-14h13zM439.998 145l125 -20v-13l-111 -20l-20 46zM308.998 33l6 -7l-19 -26h-66v13z" />
    <glyph glyph-name="x" unicode="x" horiz-adv-x="542" 
d="M42 488h121l18 -18c0 -6.66699 -32.333 -24.667 -97 -54v-6l19 -6l29 12l13 -12h5v6h-11v6c6 16 20 24 42 24c22.667 0 46.667 -30 72 -90h12c4.66699 28 14.667 42 30 42l6 -6h12v6c-12 0 -18 6 -18 18c22 44.667 40.333 70.667 55 78h72c14 0 30 -8 48 -24h6v6l-6 18
h18l12 -12l-150 -205v-6c100 -142.667 150 -221 150 -235h-157c-12 0 -42 48.333 -90 145c-40.667 -50.667 -66.667 -101 -78 -151l-25 -6l7 -18h-7c-40 5.33301 -60 17.333 -60 36l-6 6h-6l-12 -12h-54l-12 12l42 54l-12 18l6 7h12l6 -7h6c64.667 94 97 146.333 97 157
l-91 126l-42 55c4 24 10 36 18 36zM60 84v-6l18 -24h6v12c0 6 -8 12 -24 18zM132 470v-6h13v6h-13zM66 217h12v-24l-12 12v12zM181 18h12v-12z" />
    <glyph glyph-name="y" unicode="y" horiz-adv-x="509" 
d="M117 483c34 0 51.001 -18.999 51.001 -56.999c18.667 -40.667 28 -71.334 28 -92.001v-11h-11v-6c26 0 45 -42 57 -126h6c0 26.667 7.66699 40 23 40l-6 29l11 52l-5 5c10.667 0 22 34.333 34 103l17 51l17 6c23.333 -4 35 -9.66699 35 -17l-6 -6h6l5 6h6l52 -28l5 5h17
v-5c0 -14 -30.333 -94.333 -91 -241c0 -19.333 -5.66699 -30.666 -17 -33.999l-6 6h-6l-11 -17c15.333 0 23 -4 23 -12c-6.66699 0 -14.334 -13.333 -23.001 -40l-6 6h-11l11 -17c-58.667 -133.333 -115.667 -200 -171 -200c0 -10 -24.667 -19.667 -74 -29l-29 81l12 28h-6
l-6 -5l-6 5v6l35 11l17 -5v5c23.333 26.667 46 40 68 40l-5 17l11 35c-34 71.333 -51 113 -51 125l5 23v6h-5v-12h-6c-6 1.33301 -23 35.666 -51 102.999c-12 0 -18 4 -18 12l6 23h-17l29 34h-6l-17 -11l-23 51l6 6l22 -6h12v6c-30 0 -49 11.333 -57 34l11 11h86l17 -11z
M408.001 477.001h6l23 -6l22 6l6 -6l6 6l6 -6v-5c0 -8 -6 -12 -18 -12l-51 12v11zM374.001 386.001c0 -11.333 7.33301 -17 22 -17h12v6l-29 11h-5zM100.001 357.001v-11l74 -23h5v6c-11.333 0 -17 3.66699 -17 11l17 6v6l-57 11zM305.001 323.001
c0 -7.33301 13.333 -15 40 -23l6 6v6zM208.001 20.001l6 -5v-12c-12 0 -18 -3.66699 -18 -11v-6l6 6h12l5 -6h6v6l-6 17l6 6l-6 5h-11zM88.001 -64.999c0 -12 -7.66699 -18 -23 -18v-17l17 -5c2 18.667 8 28 18 28v12h-12zM391.001 477.001h5v-11h-17zM20.001 334.001h5v-11
h-5v11zM362.001 317.001v-5h12v5h-12zM248.001 83.001l-6 -23h11l6 23h-11zM179.001 37.001v-11h6v11h-6zM242.001 32.001v-12l11 12h-11zM134.001 -41.999v-12h5v12h-5z" />
    <glyph glyph-name="z" unicode="z" horiz-adv-x="487" 
d="M32 487l398.001 -0.00195312l12 -13v-6h-45l7 -7v-12l-51 -7l-33 7h-6v-7c47.333 -9.33301 71 -17.666 71 -24.999l32 13v-7l6 -6v-7l7 7h12c0 -31.333 -27.667 -70 -83 -116l-6 -6h-26l-64 -6l-7 25h-19l13 -19c0 -13.333 -8.66699 -20 -26 -20v-6h7l25 6
c38.667 0 58 -12.667 58 -38h-13v13h-38v-13c21.333 -1.33301 32 -5.66602 32 -12.999l-84 -96h225l13 -13v-102l-13 -13h-71l-32 19h-6v-6h13v-13h-327l-13 13v70c39.333 60 71.333 90 96 90l-13 19c51.333 60 87.666 90 108.999 90h13v7h-19v6c0 12 10.667 18.333 32 19
l-7 6v7c9.33301 2 18 12.667 26 32h-83c-34.667 0 -62.667 6.33301 -84 19l-25 -6l-26 19v83zM173.001 441.998v-12h7l89 -13c0 7.33301 -25.667 18 -77 32zM26.001 441.998c0 -10 17 -16.333 51 -19h19v7zM455.001 230.998l6.00098 -7v-6l-6 -7l19 -31v-7
c-16.667 0 -31.334 15 -44.001 45v6l6 -6h6zM487.002 159.998h7.00098c37.333 -11.333 58.666 -22 63.999 -32l6 7h19c10 0 16.667 -10.667 20 -32l-45 -13l12 -20l-12 -12c0 8 -17.333 14.333 -52 19c-4 20 -14.667 39.333 -32 58v6l7 -6h13l-7 6v19zM211.003 460.998v-6
l33 -6h6v6l-26 6h-13zM301.003 435.998v-6h13v6h-13zM487.003 339.998h13l6 -32h-6l-13 12v20zM256.003 332.998v-13h7l12 13h-19zM289.003 326.998v-7h38v7h-38zM487.003 223.998h13v-6h-13v6zM263.003 44.998v-6h12v6h-12zM282.003 38.998v-7h32v7h-32zM365.003 25.998v-7
h20v7h-20zM391.003 18.998v-6h26v6h-26z" />
    <glyph glyph-name="braceleft" unicode="{" horiz-adv-x="541" 
 />
    <glyph glyph-name="bar" unicode="|" horiz-adv-x="541" 
d="M208 773h125v-980h-125v980z" />
    <glyph glyph-name="braceright" unicode="}" horiz-adv-x="541" 
 />
    <glyph glyph-name="asciitilde" unicode="~" horiz-adv-x="541" 
d="M416 388c17.333 8.66699 40.998 30.334 70.998 65.001v-114c-20 -23.333 -40.167 -39.333 -60.5 -48s-40.5 -13 -60.5 -13c-20.667 0 -53.167 7.83301 -97.5 23.5s-75.833 23.5 -94.5 23.5c-15.333 0 -31.666 -4.33301 -48.999 -13s-41 -30.334 -71 -65.001v114
c20.667 23.333 41.167 39.5 61.5 48.5s39.833 13.5 58.5 13.5c22 0 55.333 -8 100 -24s75.334 -24 92.001 -24c16 0 32.667 4.33301 50 13z" />
    <glyph glyph-name="exclamdown" unicode="&#xa1;" horiz-adv-x="328" 
 />
    <glyph glyph-name="cent" unicode="&#xa2;" horiz-adv-x="556" 
 />
    <glyph glyph-name="sterling" unicode="&#xa3;" horiz-adv-x="541" 
d="M309 668c-36 0 -64.001 -15.002 -84.001 -45.002c-18.667 -27.333 -28 -64.666 -28 -111.999v-20c0 -45.333 8 -88 24 -128h178v-39h-162c16.667 -30 25 -61.333 25 -94c0 -55.333 -24 -114 -72 -176h192c30.667 0 56 21.667 76 65h44l-54 -124h-391l1 26
c57.333 74 86 143 86 207c0 33.333 -7.66699 65.333 -23 96h-82v39h65c-18.667 44.667 -28 84 -28 118c0 72 21.667 129 65 171c41.333 42 98.333 63 171 63c31.333 0 64.333 -2.66699 99 -8c43.333 -5.33301 65 -12 65 -20v-94h-34
c-1.33301 16.667 -14.666 33.334 -39.999 50.001s-55.333 25 -90 25h-3z" />
    <glyph glyph-name="currency" unicode="&#xa4;" horiz-adv-x="541" 
d="M212 282c11.333 -9.33301 24 -16.001 38 -20.001c7.33301 -1.33301 14.333 -2 21 -2s13.667 0.666992 21 2c14 4 26.333 10.667 37 20c12.667 10.667 21.667 24.667 27 42c3.33301 8.66699 5 17.334 5 26.001s-1.66699 17.334 -5 26.001
c-5.33301 17.333 -14.333 31.333 -27 42c-10.667 10 -23 16.667 -37 20c-7.33301 1.33301 -14.333 2 -21 2c-7.33301 0 -14.333 -0.666992 -21 -2c-14 -4 -26.667 -10.667 -38 -20c-12 -10.667 -20.667 -24.667 -26 -42c-3.33301 -8.66699 -5 -17.334 -5 -26.001
s1.33301 -17 4 -25c5.33301 -18 14.333 -32.333 27 -43zM123 440.999l-56.9971 58l56 56l61 -61c3.33301 2.66699 15.333 6.66699 36 12c17.333 6 34.666 9 51.999 9c16.667 0 33.334 -2.33301 50.001 -7c21.333 -6.66699 34 -11.334 38 -14.001l60 61l56 -56l-57 -57
c12 -16.667 20.667 -34 26 -52c3.33301 -13.333 5 -26.666 5 -39.999c0 -12.667 -1.66699 -25.667 -5 -39c-5.33301 -18 -14 -35.667 -26 -53l57 -56l-56 -56l-60 60c-4 -2.66699 -16.667 -7.33398 -38 -14.001c-16.667 -4 -33.334 -6 -50.001 -6s-33.334 2 -50.001 6
c-22 6.66699 -35 11.334 -39 14.001l-60 -60l-56 56l57 56c-12 17.333 -20.333 35 -25 53c-4 13.333 -6 26.333 -6 39c0 14 2 27.667 6 41c5.33301 17.333 13.666 34 24.999 50z" />
    <glyph glyph-name="yen" unicode="&#xa5;" horiz-adv-x="541" 
d="M341 269l-0.000976562 -127.001c0 -72 16 -108 48 -108h39v-34h-316v34h39c32 0 48 36 48 108v127h-111v39h111v30l-9 18h-102v40h82l-101 200c-27.333 47.333 -48.666 71 -63.999 71h-25v33h258v-33h-25c-16.667 0 -25 -6 -25 -18c0 -15.333 9 -37.666 27 -66.999
l86 -186l84 190c14.667 25.333 22 45.333 22 60c0 14 -8.33301 21 -25 21h-24v33h203v-33h-18c-25.333 0 -52 -25 -80 -75l-94 -196h84v-40h-103l-9 -19v-29h112v-39h-112z" />
    <glyph glyph-name="brokenbar" unicode="&#xa6;" horiz-adv-x="541" 
d="M208 700h125v-385h-125v385zM208 181h125v-385h-125v385z" />
    <glyph glyph-name="section" unicode="&#xa7;" horiz-adv-x="541" 
d="M292 162c40 24 60 57.667 60 101v3c0 29.333 -10.833 51.5 -32.5 66.5s-44.167 22.5 -67.5 22.5c-17.333 0 -32.5 -6.16699 -45.5 -18.5s-19.5 -31.5 -19.5 -57.5c0 -42 35 -81 105 -117zM171 -143.5c19.333 -13.667 45.6699 -21.166 79.0029 -22.499
c28.667 1.33301 53 10.666 73 27.999c22.667 20.667 34 48.334 34 83.001c0 42.667 -49.667 87.667 -149 135c-42.667 22.667 -72.667 46 -90 70s-26 51.667 -26 83c0 46 14.333 83.667 43 113c24.667 24 53.667 38.667 87 44c-50.667 22 -85.834 46.5 -105.501 73.5
s-29.5 56.5 -29.5 88.5c0 46 15 84.167 45 114.5s73.667 45.833 131 46.5c44 0 79.5 -3.16699 106.5 -9.5s40.5 -13.5 40.5 -21.5v-98h-37c-2 30.667 -12.667 53 -32 67s-48.333 21.333 -87 22c-22 0 -39.5 -6.16699 -52.5 -18.5s-19.5 -31.5 -19.5 -57.5
c0 -44.667 45 -88.334 135 -131.001c51.333 -23.333 86.166 -47.666 104.499 -72.999s27.5 -55 27.5 -89c0 -53.333 -16.333 -98 -49 -134c-16.667 -14.667 -34.334 -26.334 -53.001 -35.001c38 -20 65.333 -41.333 82 -64s25 -51 25 -85
c0 -53.333 -19.667 -98.666 -59 -135.999s-93.666 -56 -162.999 -56c-36 0 -67.5 3.16699 -94.5 9.5s-40.5 13.5 -40.5 21.5v98h43c1.33301 -30.667 11.666 -52.834 30.999 -66.501z" />
    <glyph glyph-name="dieresis" unicode="&#xa8;" horiz-adv-x="500" 
d="M119 630l42.001 40c4.66699 4 9.66699 6 15 6c4 0 9 -2.66699 15 -8l41 -40c4 -4.66699 6 -9 6 -13c0 -4.66699 -2.66699 -9.33398 -8 -14.001l-40 -42c-6.66699 -6 -11.334 -9 -14.001 -9c-6 0 -11 2 -15 6l-45 48c-3.33301 4 -5 8 -5 12
c0 4.66699 2.66699 9.33398 8 14.001zM297.001 630l42 40c5.33301 4 10.333 6 15 6c4 0 9 -2.66699 15 -8l41 -40c4 -4.66699 6 -9 6 -13c0 -4.66699 -2.33301 -9.33398 -7 -14.001l-40 -42c-7.33301 -6 -12.333 -9 -15 -9c-5.33301 0 -10.333 2 -15 6l-45 48
c-2.66699 4 -4 8 -4 12c0 4.66699 2.33301 9.33398 7 14.001z" />
    <glyph glyph-name="copyright" unicode="&#xa9;" horiz-adv-x="817" 
d="M527 168c22.667 13.333 34.335 33.001 35.002 59.001h33v-50c0 -12 -13 -24.833 -39 -38.5s-66.333 -20.834 -121 -21.501c-52 0 -98.5 11.5 -139.5 34.5s-71.5 52.667 -91.5 89s-30 73.166 -30 110.499s10.167 74.333 30.5 111s51.166 66.334 92.499 89.001
s85.333 34 132 34c21.333 0 39.166 -2.16699 53.499 -6.5s24.5 -6.5 30.5 -6.5c5.33301 0 8 4.33301 8 13h31l37 -101h-31c-34.667 31.333 -60 50.833 -76 58.5s-36.333 11.5 -61 11.5c-24.667 -2 -53.834 -18.833 -87.501 -50.5s-50.5 -80.167 -50.5 -145.5
c0 -54 15.167 -102.667 45.5 -146s65.833 -65 106.5 -65c38.667 0.666992 69.334 7.66699 92.001 21zM264.501 684.501c45.667 19.667 94.167 29.498 145.5 29.498c49.333 0 96.666 -9.83301 141.999 -29.5s85 -47.167 119 -82.5c32 -33.333 56.667 -72.166 74 -116.499
s26 -89.166 26 -134.499c0 -46.667 -8.66699 -91.667 -26 -135s-42.666 -82.333 -75.999 -117c-34 -36 -73.5 -63.5 -118.5 -82.5s-92.833 -28.5 -143.5 -28.5c-50 0 -97.167 9.66699 -141.5 29s-83.833 47 -118.5 83c-33.333 34 -58.5 72.5 -75.5 115.5
s-25.5 88.167 -25.5 135.5c0 46 8.5 90.833 25.5 134.5s41.833 82.5 74.5 116.5c33.333 35.333 72.833 62.833 118.5 82.5zM287.501 655.499c-39 -15.667 -76.167 -39.832 -111.5 -72.499c-28 -27.333 -50.833 -61.5 -68.5 -102.5s-26.5 -84.167 -26.5 -129.5
c0 -46.667 8.83301 -90 26.5 -130s42.834 -75.667 75.501 -107c32 -30 67 -52.667 105 -68s77.667 -23 119 -23c42.667 0 83.167 7.66699 121.5 23s73.166 37.666 104.499 66.999c32.667 31.333 58 67.333 76 108s27 84 27 130c0 44.667 -9 87.667 -27 129
s-42.667 77.333 -74 108c-31.333 29.333 -66.333 51.833 -105 67.5s-78.667 23.5 -120 23.5c-42.667 0 -83.5 -7.83301 -122.5 -23.5z" />
    <glyph glyph-name="ordfeminine" unicode="&#xaa;" horiz-adv-x="316" 
 />
    <glyph glyph-name="guillemotleft" unicode="&#xab;" horiz-adv-x="482" 
d="M85 234l172 153h24v-23l-100 -130l100 -130v-23h-24zM237 234l172 153h24v-23l-100 -130l100 -130v-23h-24z" />
    <glyph glyph-name="guillemotleft" unicode="&#xad;" horiz-adv-x="482" 
d="M85 234l172 153h24v-23l-100 -130l100 -130v-23h-24zM237 234l172 153h24v-23l-100 -130l100 -130v-23h-24z" />
    <glyph glyph-name="logicalnot" unicode="&#xac;" horiz-adv-x="541" 
d="M42 377h447v-246h-85v192h-362v54z" />
    <glyph glyph-name="registered" unicode="&#xae;" horiz-adv-x="817" 
 />
    <glyph glyph-name="macron" unicode="&#xaf;" horiz-adv-x="327" 
 />
    <glyph glyph-name="degree" unicode="&#xb0;" horiz-adv-x="353" 
d="M235 494c18 15.333 27 36 27 62c0 26.667 -9 47.667 -27 63s-37.333 23 -58 23c-20 0 -39.333 -7.66699 -58 -23s-28 -36.333 -28 -63c0 -26 9.33301 -46.667 28 -62s38 -23 58 -23c20.667 0 40 7.66699 58 23zM70 658.5c27.333 30.333 63.001 45.499 107.001 45.499
c43.333 0 78.666 -15.333 105.999 -46s41 -64.667 41 -102s-13.833 -71.166 -41.5 -101.499s-63.167 -45.5 -106.5 -45.5c-44 0 -79.5 15 -106.5 45s-40.5 64 -40.5 102s13.667 72.167 41 102.5z" />
    <glyph glyph-name="plusminus" unicode="&#xb1;" horiz-adv-x="495" 
 />
    <glyph glyph-name="uni00B2" unicode="&#xb2;" horiz-adv-x="495" 
 />
    <glyph glyph-name="uni00B3" unicode="&#xb3;" horiz-adv-x="495" 
 />
    <glyph glyph-name="acute" unicode="&#xb4;" horiz-adv-x="223" 
d="M28 799h5l13 -9l10 9h27c5.33301 0 10 -7.66699 14 -23c18.667 -2 28 -6.66699 28 -14h-14v-4l9 -14v-5h-5l-23 5l-4 -5v-4l-32 4h-5l-13 -9h-14l-19 19c0 7.33301 11 13.333 33 18v13c-12.667 0 -19 3.33301 -19 10zM134 735h32c8.66699 -12.667 17.667 -19 27 -19v-9
l-18 -9h-9c0 10 -10.667 22.333 -32 37zM161 693l5 -4v-4l-5 -5v-5l5 -5c-7.33301 -6 -27.333 -47 -60 -123c-16 -30.667 -29.667 -46 -41 -46l-32 -4h-18l-10 9l33 14v4h-5l-18 -4l50 169h27zM170 616l14 -33h-5c-12 6.66699 -18 16 -18 28l5 5h4zM193 639h9v-10h-9v10z
M248 583h4v-9h-4v9z" />
    <glyph glyph-name="uni00B5" unicode="&#xb5;" horiz-adv-x="576" 
 />
    <glyph glyph-name="paragraph" unicode="&#xb6;" horiz-adv-x="541" 
d="M493 704l0.000976562 -39.999h-62v-667h-57v667h-64v-667h-78v342c-52.667 2 -96.5 21 -131.5 57s-52.5 77.667 -52.5 125c0 55.333 18.667 99.666 56 132.999s88.666 50 153.999 50h235z" />
    <glyph glyph-name="periodcentered" unicode="&#xb7;" horiz-adv-x="270" 
d="M90.5 305.5c-12.333 12.333 -18.5 27.166 -18.5 44.499s6.16699 32.333 18.5 45s27.166 19 44.499 19c18 0 33.167 -6.33301 45.5 -19s18.5 -27.667 18.5 -45s-6.16699 -32.166 -18.5 -44.499s-27.5 -18.5 -45.5 -18.5c-17.333 0 -32.166 6.16699 -44.499 18.5z" />
    <glyph glyph-name="periodcentered" unicode="&#x2219;" horiz-adv-x="270" 
d="M90.5 305.5c-12.333 12.333 -18.5 27.166 -18.5 44.499s6.16699 32.333 18.5 45s27.166 19 44.499 19c18 0 33.167 -6.33301 45.5 -19s18.5 -27.667 18.5 -45s-6.16699 -32.166 -18.5 -44.499s-27.5 -18.5 -45.5 -18.5c-17.333 0 -32.166 6.16699 -44.499 18.5z" />
    <glyph glyph-name="cedilla" unicode="&#xb8;" horiz-adv-x="521" 
d="M173 -125c38 -23.333 66.332 -34.999 84.999 -34.999c18 0 30.833 2.66699 38.5 8s11.5 15.333 11.5 30c0 13.333 -6.66699 22.666 -20 27.999c-10 3.33301 -25.333 5 -46 5c-8 0 -16.667 -0.333008 -26 -1l26 90h52l-17 -42h17c32 0 56.667 -7.16699 74 -21.5
s26 -33.833 26 -58.5c0 -25.333 -10.333 -45.833 -31 -61.5s-49.667 -23.5 -87 -23.5s-71.666 6.33301 -102.999 19v63z" />
    <glyph glyph-name="uni00B9" unicode="&#xb9;" horiz-adv-x="495" 
 />
    <glyph glyph-name="ordmasculine" unicode="&#xba;" horiz-adv-x="351" 
 />
    <glyph glyph-name="guillemotright" unicode="&#xbb;" horiz-adv-x="482" 
d="M73 81h-24v23l100 130l-100 130v23h24l172 -153zM225 81h-24v23l100 130l-100 130v23h24l172 -153z" />
    <glyph glyph-name="onequarter" unicode="&#xbc;" horiz-adv-x="834" 
 />
    <glyph glyph-name="onehalf" unicode="&#xbd;" horiz-adv-x="959" 
 />
    <glyph glyph-name="threequarters" unicode="&#xbe;" horiz-adv-x="834" 
 />
    <glyph glyph-name="questiondown" unicode="&#xbf;" horiz-adv-x="365" 
 />
    <glyph glyph-name="Agrave" unicode="&#xc0;" horiz-adv-x="752" 
 />
    <glyph glyph-name="Aacute" unicode="&#xc1;" horiz-adv-x="752" 
 />
    <glyph glyph-name="Acircumflex" unicode="&#xc2;" horiz-adv-x="752" 
 />
    <glyph glyph-name="Atilde" unicode="&#xc3;" horiz-adv-x="752" 
 />
    <glyph glyph-name="Adieresis" unicode="&#xc4;" horiz-adv-x="729" 
d="M228 892h7c55.333 -4.66699 83 -30 83 -76c-12 -46 -35 -69 -69 -69h-21c-29.333 0 -52.333 16 -69 48v28c9.33301 46 32.333 69 69 69zM463 892l13.999 0.000976562c46 -6.66699 69 -27.334 69 -62.001v-21c-6 -41.333 -26.667 -62 -62 -62h-27
c-37.333 0 -60.666 25.333 -69.999 76c12 46 37.333 69 76 69zM241.999 712.001h206.999c12.667 0 61.334 -142.667 146.001 -428c-114 -28 -236.333 -65 -367 -111v-14l-20 7h-15v-7h21c0 -9.33301 -16 -16.333 -48 -21v-7h14l34 7l7 -7
c-12 -87.333 -62.667 -131 -152 -131h-55l-14 14l28 83l7 -7h13v7h-13v7c0 36.667 30 55 90 55v-7l48 14v7h-21v14c24 0 37.667 7 41 21h-6l-132 -49v7c110.667 364 173 546 187 546zM331.998 574.001c-24.667 -138.667 -47.667 -208 -69 -208l13 -13l-13 -49h117v-13
c-14 0 -27.667 -7 -41 -21h-7v-7h14l76 41l-83 270h-7zM601.998 256.001l13 -14v-14l-27 -41l34 6c12.667 0 24.334 -32 35.001 -96v-7c-32.667 0 -85.667 -14 -159 -42c-10.667 0 -22.334 30 -35.001 90l21 7v14l-7 -7h-14c-9.33301 0 -14 9.33301 -14 28h-62v13z
M421.998 429.001v-7h20l83 27v8h-13zM483.998 401.001v-7h7l28 7v7h-14zM524.998 380.001v-6l28 20h-14zM497.998 374.001v-8h14v8h-14zM456.998 359.001v-6h13l21 6v7h-7zM179.998 339.001v-7h7l69 21v6h-7zM165.998 353.001v-7h21v7h-21zM310.998 263.001v-7h14v7h-14z
M234.998 235.001v-7h14v7h-14zM241.998 221.001v-7h7l21 7v7h-7zM518.998 173.001v-7h13v7h-13zM124.998 138.001v-7h13v7h-13zM47.998 118.001v-7h14v7h-14zM511.998 35.001v-14h13l-6 7v7h48v-14l-62 -14v7l-7 7v7l7 7h7zM684.998 21.001l6 -7v-7l-6 -7h-35v14z" />
    <glyph glyph-name="Aring" unicode="&#xc5;" horiz-adv-x="752" 
 />
    <glyph glyph-name="AE" unicode="&#xc6;" horiz-adv-x="1034" 
 />
    <glyph glyph-name="Ccedilla" unicode="&#xc7;" horiz-adv-x="683" 
 />
    <glyph glyph-name="Egrave" unicode="&#xc8;" horiz-adv-x="562" 
 />
    <glyph glyph-name="Eacute" unicode="&#xc9;" horiz-adv-x="562" 
 />
    <glyph glyph-name="Ecircumflex" unicode="&#xca;" horiz-adv-x="562" 
 />
    <glyph glyph-name="Edieresis" unicode="&#xcb;" horiz-adv-x="562" 
 />
    <glyph glyph-name="Igrave" unicode="&#xcc;" horiz-adv-x="321" 
 />
    <glyph glyph-name="Iacute" unicode="&#xcd;" horiz-adv-x="321" 
 />
    <glyph glyph-name="Icircumflex" unicode="&#xce;" horiz-adv-x="321" 
 />
    <glyph glyph-name="Idieresis" unicode="&#xcf;" horiz-adv-x="321" 
 />
    <glyph glyph-name="Eth" unicode="&#xd0;" horiz-adv-x="741" 
 />
    <glyph glyph-name="Ntilde" unicode="&#xd1;" horiz-adv-x="759" 
 />
    <glyph glyph-name="Ograve" unicode="&#xd2;" horiz-adv-x="788" 
 />
    <glyph glyph-name="Oacute" unicode="&#xd3;" horiz-adv-x="788" 
 />
    <glyph glyph-name="Ocircumflex" unicode="&#xd4;" horiz-adv-x="788" 
 />
    <glyph glyph-name="Otilde" unicode="&#xd5;" horiz-adv-x="788" 
 />
    <glyph glyph-name="Odieresis" unicode="&#xd6;" horiz-adv-x="736" 
d="M455 884c47.333 -10 71.001 -31.667 71.001 -65v-26c-18.667 -34.667 -40.334 -52 -65.001 -52v7l-6 -7h-7c-39.333 0 -63 26 -71 78c16.667 43.333 42.667 65 78 65zM221.001 877l26.001 -0.000976562c39.333 -5.33301 59 -24.666 59 -57.999v-33
c-12.667 -23.333 -36.667 -40.666 -72 -51.999c-31.333 9.33301 -55 26.666 -71 51.999v33c5.33301 38.667 24.666 58 57.999 58zM325.002 714.999h58c43.333 0 71.666 -11 84.999 -33v13h13l97 -51l20 -27v-6l-13 -20c43.333 0 65 -15 65 -45c26 -46 39 -98 39 -156
c-7.33301 -160.667 -42 -241 -104 -241l-33 -13v-6h7l52 13c-28.667 -48 -93.667 -84.667 -195 -110l-33 -7v7c0 17.333 11 26 33 26v6h-20l-97 -39c-121.333 0 -216.666 73.667 -285.999 221l-13 104v32c0 91.333 30.333 167.333 91 228l-13 39c4 17.333 14.667 26 32 26
v-13l-12 -19v-27h6c49.333 65.333 123 98 221 98zM306.002 616.999c0 -18.667 -9 -31.667 -27 -39h-26l-6 26h-19l12 -19l-6 -7l13 -13c-40 -60 -64 -90 -72 -90l7 -7l-7 -117c0 -64.667 21.667 -119 65 -163c8.66699 0 13 6.66699 13 20h14v-13h6l19 13h7v-26l-7 -7v-6
c13.333 0 20 -6.66699 20 -20h26c77.333 0 131.333 41.333 162 124v13h-19v6c21.333 16.667 32 34 32 52v33c0 126 -52 197.333 -156 214l7 7v13l-58 13v-7zM338.002 324.999c0 -10.667 6.33301 -21.667 19 -33l-13 -13l-6 7h-6l-14 -46h-12v39zM228.002 733.999v-13
l-20 -19l-6 6v7zM163.002 727.999h12v-7h-12v7zM13.002 720.999h13v-6h-13v6zM6.00195 694.999h14l13 -39h-7l-6 7h-7l-7 -7l-6 20zM306.002 675.999v-13h19l-13 13h-6zM214.002 636.999v-13l33 -13l26 6l6 -6v13h-26zM377.002 636.999v-13h6v13h-6zM182.002 623.999v-13h6
v13h-6zM526.002 623.999v-13h14l12 13h-26zM494.002 525.999v-6h13v6h-13zM156.002 480.999v-6h13v6h-13zM578.002 428.999v-7h13l26 7v7h-13zM559.002 421.999v-6h13v6h-13zM624.002 331.999v-7h20l19 7v6h-7zM604.002 324.999v-7h13v7h-13zM546.002 291.999v-6h6l59 13v7
h-20zM526.002 285.999v-7h14v7h-14zM253.002 12.999h20v-13h-6z" />
    <glyph glyph-name="multiply" unicode="&#xd7;" horiz-adv-x="541" 
d="M271 295l-132 -132l-56 55l132 132l-132 132l56 55l132 -132l131 132l56 -55l-132 -132l132 -132l-56 -55z" />
    <glyph glyph-name="Oslash" unicode="&#xd8;" horiz-adv-x="788" 
 />
    <glyph glyph-name="Ugrave" unicode="&#xd9;" horiz-adv-x="733" 
 />
    <glyph glyph-name="Uacute" unicode="&#xda;" horiz-adv-x="733" 
 />
    <glyph glyph-name="Ucircumflex" unicode="&#xdb;" horiz-adv-x="733" 
 />
    <glyph glyph-name="Udieresis" unicode="&#xdc;" horiz-adv-x="672" 
d="M192 898h19.999c41.333 0 64.333 -27.333 69 -82c-14 -41.333 -39 -62 -75 -62v14h-14l-34 -7c-22.667 24 -34 44.667 -34 62v7c8.66699 45.333 31.334 68 68.001 68zM417.999 898h27.999c40.667 0 63.334 -27.333 68.001 -82c0 -21.333 -27.333 -37.333 -82 -48v-14
c-50.667 8 -76 31 -76 69v13c6 41.333 26.667 62 62 62zM13.998 720h151l13 -13v-49c0 -8 -31.667 -17 -95 -27l-8 -7h-7v-7h7l96 21l7 -7v-158c0 -16.667 -57 -37 -171 -61l-7 6v289zM458.998 720h151l14 -13v-193c0 -15.333 -41.333 -29 -124 -41v7l-47 -21l-7 7v241z
M13.998 507v-7h7c14 9.33301 36.667 14 68 14v7h-41zM157.998 439h7l13 -14v-13l-13 -14h-21l-7 7l-123 -55l-14 13v7c0 9.33301 13.667 16.333 41 21v-14h14l-7 7v7c46 14 82.667 30 110 48zM616.998 425l7 -7l-7 -6l7 -49v-54c0 -14 -25 -25.667 -75 -35l-103 -20l-7 7
c0 59.333 20.333 89 61 89l42 6l-7 21l-82 -21l-7 7v14c0 7.33301 20.333 19 61 35l35 -7h21c0 13.333 18 20 54 20zM177.998 336v-55l-7 -7c14.667 -54.667 33 -93.334 55 -116.001v-14l-109 -27v13h-21c0 -13.333 -9.33301 -24.666 -28 -33.999c-6.66699 0 -18 16 -34 48
l144 48h7v7h-20c-49.333 -8 -79.333 -17.333 -90 -28h-54l-21 124l27 20h21zM82.998 233h6c18.667 7.33301 28 14.333 28 21h-7c-18 -6.66699 -27 -13.667 -27 -21zM609.998 247l7 -7.00098v-7c-8.66699 -9.33301 -40.667 -20.666 -96 -33.999v13zM506.998 205.999v-14h-20
v-7l55 -7c0 10.667 18.333 17.667 55 21v-14c0 -9.33301 -7 -14 -21 -14l-7 -6v-7l14 -14c0 -21.333 -34.333 -35 -103 -41v-7h62v-7c0 -18 -55 -38.667 -165 -62c-0.666992 -6.66699 -19 -15.667 -55 -27c-123.333 0 -203 27.667 -239 83v13h41
c42.667 0 92.667 13.667 150 41l35 -7c30 0 73.333 18.333 130 55zM445.998 767.999h13v-14h-13v14zM513.998 616.999v-7h35v7h-35zM479.998 609.999v-6h20v6h-20zM452.998 603.999v-7h20v7h-20zM20.998 596.999v-7h27v7h-27zM95.998 527.999v-7h21v7h-21zM603.998 273.999
h6v-13l-68 -21h-14v14zM123.998 253.999h13v14zM143.998 267.999v-7h21v7h-21zM499.998 246.999h14v-14h-14v14zM445.998 232.999h27l14 -14v-7l-55 -13v20zM136.998 211.999v-6h14v6h-14zM534.998 143.999v-7h14v7h-14zM397.998 95.999v-7h20v7h-20zM355.998 67.999v-6h14
v6h-14zM404.998 67.999v-13h13zM431.998 33.999h21v-13h-21v13z" />
    <glyph glyph-name="Yacute" unicode="&#xdd;" horiz-adv-x="602" 
 />
    <glyph glyph-name="Thorn" unicode="&#xde;" horiz-adv-x="547" 
 />
    <glyph glyph-name="germandbls" unicode="&#xdf;" horiz-adv-x="611" 
 />
    <glyph glyph-name="agrave" unicode="&#xe0;" horiz-adv-x="450" 
 />
    <glyph glyph-name="aacute" unicode="&#xe1;" horiz-adv-x="450" 
 />
    <glyph glyph-name="acircumflex" unicode="&#xe2;" horiz-adv-x="450" 
 />
    <glyph glyph-name="atilde" unicode="&#xe3;" horiz-adv-x="450" 
 />
    <glyph glyph-name="adieresis" unicode="&#xe4;" horiz-adv-x="495" 
d="M125 674l6 -19c-16.667 -30 -27 -65.333 -31 -106c-29.333 7.33301 -44 26 -44 56c6.66699 46 29.667 69 69 69zM337 674l19 0.000976562c41.333 -8 62 -28.667 62 -62v-13c0 -22.667 -12.333 -41.334 -37 -56.001h-6v12l-25 -18c-50.667 4 -76 24.667 -76 62v13
c8.66699 41.333 29.667 62 63 62zM168 655.001l13 -12c-12.667 0 -19 -6.33301 -19 -19h-12v6c6 16.667 12 25 18 25zM181 637.001l6 -0.000976562c8.66699 0 13 -6.33301 13 -19c-6 -17.333 -16.667 -29.666 -32 -36.999h-6v5zM168 487l7.00195 -7.00195l31 7h37l88 -13
v-12l-44 -6v-7h69v-25l-19 -6l6 -19h7c0 16.667 10.333 31.334 31 44.001l37 -37l-50 -119c-32 -104.667 -65 -181.667 -99 -231v13h-7v-6l7 -20l-7 7h-6c0 -24.667 -4.33301 -37 -13 -37h-18l12 50l-6 37c41.333 19.333 62 44.333 62 75v50h-31
c-56 0 -91.333 -16.667 -106 -50v-19c0 -32 23 -50.667 69 -56c-8.66699 -66.667 -21.334 -100 -38.001 -100h-50c-91.333 18 -137 61.667 -137 131v31c0 37.333 10.333 56 31 56l-6 7v6c49.333 62.667 136.666 94 261.999 94v6c0 15.333 -8.33301 32 -25 50l44 6l-19 31h-6
c-67.333 -28.667 -121.333 -43 -162 -43c0 -7.33301 -18.667 -13.666 -56 -18.999l-7 6v56c0 14 23 26.667 69 38h12l7 -7h6c2.66699 25.333 8.66699 38 18 38zM331.002 380.998c0 -8.66699 -8.33301 -13 -25 -13v-12c33.333 10 50 18.333 50 25h-13l-6 6zM418.002 298.998
l6 -6h7l6 6h6l6 -6v-31l-6 -44l6 -56v-87l7 -62l-7 -7h-124c-10 0 -16.333 10.667 -19 32c41.333 162 83 243 125 243v6h-13v12zM306.002 430.998v-7h25v13h-6zM250.002 392.998h12v-12h-12v12zM431.002 342.998h12v-25l-19 -19v13zM312.002 330.998v-13h6v13h-6z
M412.002 268.998v-19h6v19h-6zM38.002 230.998l12 -13l13 13h-25zM274.002 111.998v-12h7v12h-7zM56.002 105.998v-12h7v12h-7zM269.002 93.998v-13h5v13h-5z" />
    <glyph glyph-name="aring" unicode="&#xe5;" horiz-adv-x="450" 
 />
    <glyph glyph-name="ae" unicode="&#xe6;" horiz-adv-x="710" 
 />
    <glyph glyph-name="ccedilla" unicode="&#xe7;" horiz-adv-x="442" 
 />
    <glyph glyph-name="egrave" unicode="&#xe8;" horiz-adv-x="444" 
 />
    <glyph glyph-name="eacute" unicode="&#xe9;" horiz-adv-x="444" 
 />
    <glyph glyph-name="ecircumflex" unicode="&#xea;" horiz-adv-x="444" 
 />
    <glyph glyph-name="edieresis" unicode="&#xeb;" horiz-adv-x="444" 
 />
    <glyph glyph-name="igrave" unicode="&#xec;" horiz-adv-x="251" 
 />
    <glyph glyph-name="iacute" unicode="&#xed;" horiz-adv-x="251" 
 />
    <glyph glyph-name="icircumflex" unicode="&#xee;" horiz-adv-x="251" 
 />
    <glyph glyph-name="idieresis" unicode="&#xef;" horiz-adv-x="251" 
 />
    <glyph glyph-name="eth" unicode="&#xf0;" horiz-adv-x="556" 
 />
    <glyph glyph-name="ntilde" unicode="&#xf1;" horiz-adv-x="541" 
 />
    <glyph glyph-name="ograve" unicode="&#xf2;" horiz-adv-x="493" 
 />
    <glyph glyph-name="oacute" unicode="&#xf3;" horiz-adv-x="493" 
 />
    <glyph glyph-name="ocircumflex" unicode="&#xf4;" horiz-adv-x="493" 
 />
    <glyph glyph-name="otilde" unicode="&#xf5;" horiz-adv-x="493" 
 />
    <glyph glyph-name="odieresis" unicode="&#xf6;" horiz-adv-x="582" 
d="M169 676h6.00098c50 -4.66699 75 -27.667 75 -69c-6.66699 -46 -29.334 -69 -68.001 -69c-54.667 8.66699 -82 29.667 -82 63c6.66699 50 29.667 75 69 75zM382.001 676h18c23.333 0 42.333 -12.667 57 -38v-6h-19v-6h25v-25c0 -38 -25 -59 -75 -63h-19v13l38 6v6h-38
l13 19h-13l-37 -13l-13 19v25c8.66699 42 29.667 63 63 63zM332.001 488c62 -10 93.001 -24.666 93.001 -43.999l7 7h6l19 -19c-96.667 -14.667 -153 -31.334 -169 -50.001h-13v12h-19c0 -8 -16.333 -24.667 -49 -50l-19 -94v-43c0 -8.66699 -10.667 -13 -32 -13v-6
c31.333 0 54.333 -21 69 -63c20 -12.667 43 -19 69 -19c38.667 0 68 33.667 88 101l43 6l13 -13h-6l6 -6v-6c0 -8.66699 -8.33301 -13 -25 -13v-6h31c0 12.667 8.33301 23 25 31c8.66699 0 13 -6 13 -18l44 25h6l6 -7h6c0 -15.333 -56.333 -69.333 -169 -162
c-14 -25.333 -32.667 -38 -56 -38h-63c-70.667 0 -106 21 -106 63h-19v-19h-12l-44 38c0 -8.66699 -6.33301 -13 -19 -13l-18 6v7l6 5v7l6 -7h19c-33.333 54 -50 106.333 -50 157c10 75.333 22.333 113 37 113h31c10 0 16.333 -25 19 -75h-6l13 -38l-7 -6v-7
c8.66699 -16 15 -55.333 19 -118h13v25l-7 75l13 12c-16.667 0 -25 46 -25 138h19c-21.333 23.333 -32 42 -32 56l7 6h6l6 -6h6c39.333 10 64.666 24.667 75.999 44c52.667 2.66699 83.667 9 93 19l7 -6h6zM494.002 388.001l5.99902 -5.99902l-6 -7v-12
c33.333 0 50 -33.333 50 -100c-33.333 -12.667 -68.666 -19 -105.999 -19l-19 6l-12 -12h-13c-8 0 -16.333 29 -25 87l25 7v6c-28.667 0 -43 4.33301 -43 13c0 8 35.333 16 106 24c0 5.33301 12.333 9.66602 37 12.999zM513.001 131.002h7v-6
c-48.667 -66.667 -88.667 -100 -120 -100h-6zM131.001 613.002l32 -6l12 13l-6 6h-25zM231.001 488.002h25v-12h-25v12zM219.001 482.002v-13l-37 -6v13zM225.001 425.002l13 -12h6v12l50 -12l50 19l-6 19h-19zM351.001 451.002v-7h18v7h-18zM457.001 432.002h6l25 -25v-7
h-12zM87.001 407.002l7 -7v-18l-12 -13h-13l-13 13zM282.001 400.002v-6h12v6h-12zM182.001 382.002v-7h12v7h-12zM444.001 357.002v-6h13v6h-13zM163.001 313.002v-6h12v6h-12zM50.001 256.002l-6 -6v-6h6l25 6v6h-25zM0.000976562 156.002h13v-6h-13v6zM250.001 87.002v-5
l50 -13l38 6v7l-69 5h-19z" />
    <glyph glyph-name="divide" unicode="&#xf7;" horiz-adv-x="541" 
d="M209 197l45.999 44.001c6 4.66699 11.667 7 17 7c4.66699 0 10.334 -2.66699 17.001 -8l45 -45c4 -5.33301 6 -10.333 6 -15s-2.33301 -9.66699 -7 -15l-45 -46c-8 -7.33301 -13.333 -11 -16 -11c-6 0 -11.667 2.66699 -17 8l-49 52c-3.33301 4.66699 -5 9 -5 13
c0 5.33301 2.66699 10.666 8 15.999zM208.999 532.001l45.999 44.001c6 4.66699 11.667 7 17 7c4.66699 0 10.334 -2.66699 17.001 -8l45 -45c4 -5.33301 6 -10.333 6 -15s-2.33301 -9.66699 -7 -15l-45 -46c-8 -7.33301 -13.333 -11 -16 -11c-6 0 -11.667 2.66699 -17 8
l-49 52c-3.33301 4.66699 -5 9 -5 13c0 5.33301 2.66699 10.666 8 15.999zM38.998 311.002v78h463v-78h-463z" />
    <glyph glyph-name="oslash" unicode="&#xf8;" horiz-adv-x="493" 
 />
    <glyph glyph-name="ugrave" unicode="&#xf9;" horiz-adv-x="517" 
 />
    <glyph glyph-name="uacute" unicode="&#xfa;" horiz-adv-x="517" 
 />
    <glyph glyph-name="ucircumflex" unicode="&#xfb;" horiz-adv-x="517" 
 />
    <glyph glyph-name="udieresis" unicode="&#xfc;" horiz-adv-x="534" 
d="M381 686c34 -12.667 51 -37.999 51 -75.999c0 -34 -23.333 -55.333 -70 -64h-12c-32 0 -55.333 23.333 -70 70c0 29.333 19 50.666 57 63.999l19 -7zM13 489.001l12 -12c-6 -17.333 -12.333 -26 -19 -26h-6v26zM76 489.001l45.002 -6.00098h6l32 6l6 -6v-254
c0 -72 27.667 -108 83 -108c17.333 0 40.666 12.667 69.999 38l6 -26l7 7h6l19 -7c0 8.66699 -6.33301 13 -19 13l-6 6v7l12 19l-19 19v6c0 15.333 8.66699 32.333 26 51v7c-17.333 0 -26 8.33301 -26 25l7 6l-7 32v153l13 12h140l12 -12v-306l-6 -69l6 -51v-26
c-4 -12.667 -16.667 -19 -38 -19h-89c-12.667 0 -19 21.333 -19 64c-46.667 -46.667 -91.334 -70 -134.001 -70h-50c-106 15.333 -159 83 -159 203v32l6 6l-6 32v64c-0 18.667 25.333 69.334 76 152.001zM400.002 83c0 -8.66699 -8.33301 -13 -25 -13l-6 -26l44 32l-6 7h-7z
M102.002 673h6l-25 -76h-7l-13 13v13l13 12l7 -6v13h6l-6 6v6zM190.002 648h13v-13l-13 -12v25zM133.002 584l7 -6v-13l-19 -19h-7v19zM38.002 343l-13 -38v-6h7l12 38v6h-6zM19.002 292v-12h6v12h-6zM95.002 280l-6 -32v-7l13 13v26h-7zM369.002 248h25l6 25zM419.002 235
v-6h13v6h-13zM394.002 190v-6h13v6h-13zM419.002 140v-7h13v7h-13zM407.002 102v-13l12 13h-12zM369.002 89v-13l12 13h-12zM273.002 76v-13l13 13h-13z" />
    <glyph glyph-name="yacute" unicode="&#xfd;" horiz-adv-x="424" 
 />
    <glyph glyph-name="thorn" unicode="&#xfe;" horiz-adv-x="493" 
 />
    <glyph glyph-name="ydieresis" unicode="&#xff;" horiz-adv-x="424" 
 />
    <glyph glyph-name="dotlessi" unicode="&#x131;" horiz-adv-x="298" 
d="M212 110c0 -53.333 8.33301 -80 25 -80h46v-30h-262v30h45c17.333 0 26 26.667 26 80v209c0 22.667 -10.333 34 -31 34h-47v22c72.667 22.667 119 53.667 139 93h59v-358z" />
    <glyph glyph-name="circumflex" unicode="&#x2c6;" horiz-adv-x="440" 
d="M54 527l120 175h73l119 -175h-48l-108 96l-107 -96h-49z" />
    <glyph glyph-name="caron" unicode="&#x2c7;" horiz-adv-x="528" 
d="M108 702h48l108 -95l108 95h48l-120 -175h-72z" />
    <glyph glyph-name="uni02C9" unicode="&#x2c9;" horiz-adv-x="521" 
d="M124 579v70h273v-70h-273z" />
    <glyph glyph-name="breve" unicode="&#x2d8;" horiz-adv-x="523" 
d="M157 563c-26 24 -42.668 59.001 -50.001 105.001h46c6 -26 17.333 -43.833 34 -53.5s41.667 -14.5 75 -14.5c32.667 0 57.167 4.83301 73.5 14.5s27.5 27.5 33.5 53.5h46c-7.33301 -46.667 -23.666 -81.834 -48.999 -105.501s-60 -35.5 -104 -35.5s-79 12 -105 36z" />
    <glyph glyph-name="dotaccent" unicode="&#x2d9;" horiz-adv-x="521" 
d="M206 623.5c1.33301 2.33301 3.33496 4.83203 6.00195 7.49902l34 35c2.66699 2.66699 6 4.83398 10 6.50098s8.33301 2.5 13 2.5c4 0 7.83301 -0.833008 11.5 -2.5s7.16699 -3.83398 10.5 -6.50098l34 -37c2 -2 3.5 -4 4.5 -6s1.5 -4.33301 1.5 -7
c-0.666992 -3.33301 -1.33398 -6 -2.00098 -8s-2.33398 -4.33301 -5.00098 -7l-34 -37c-4.66699 -4 -8.5 -6.83301 -11.5 -8.5s-6.16699 -2.5 -9.5 -2.5c-5.33301 0 -10 0.833008 -14 2.5s-7.33301 3.83398 -10 6.50098l-36 42c-2 2 -3.33301 4 -4 6s-1 4.33301 -1 7
c0 2 0.666992 4.16699 2 6.5z" />
    <glyph glyph-name="ring" unicode="&#x2da;" horiz-adv-x="521" 
d="M227.5 656c-10.333 -8.66699 -15.501 -20 -15.501 -34c0 -14.667 5 -26.334 15 -35.001s21 -13 33 -13s23 4.33301 33 13s15 20.334 15 35.001c0 14 -5 25.333 -15 34s-21 13 -33 13c-11.333 0 -22.166 -4.33301 -32.499 -13zM190.999 555c-18 18.667 -27 41 -27 67
c0 25.333 9 47.5 27 66.5s41 28.5 69 28.5c29.333 0 53 -9.5 71 -28.5s27 -41.167 27 -66.5c0 -26 -9 -48.333 -27 -67s-41.667 -28 -71 -28c-28 0 -51 9.33301 -69 28z" />
    <glyph glyph-name="ogonek" unicode="&#x2db;" horiz-adv-x="522" 
d="M340 0c-28 -21.333 -47.667 -40.0029 -59 -56.0029s-17 -32.667 -17 -50c0 -15.333 3.66699 -26.833 11 -34.5s16.333 -11.5 27 -11.5c24 0 46.667 10.333 68 31l15 -12c-12.667 -22 -28.667 -39 -48 -51s-41.333 -18 -66 -18c-26 0 -47 6.33301 -63 19
s-24 28.334 -24 47.001c0 24.667 9.5 49.334 28.5 74.001s46.5 45.334 82.5 62.001h45z" />
    <glyph glyph-name="tilde" unicode="&#x2dc;" horiz-adv-x="523" 
d="M418 680c-7.33301 -36.667 -19.666 -64.168 -36.999 -82.501s-40.666 -27.5 -69.999 -27.5c-22.667 0 -45.334 3.83301 -68.001 11.5s-42.334 11.5 -59.001 11.5c-9.33301 0 -16.666 -2.66699 -21.999 -8s-10.333 -17.666 -15 -36.999h-33
c7.33301 38 19.666 66.333 36.999 85s41 28 71 28c20 -0.666992 41.5 -4.66699 64.5 -12s42.833 -11 59.5 -11c9.33301 0 16.833 2.5 22.5 7.5s11.167 16.5 16.5 34.5h33z" />
    <glyph glyph-name="hungarumlaut" unicode="&#x2dd;" horiz-adv-x="524" 
d="M114 527l73.001 132.001c8 14 16.333 24.667 25 32s19 11 31 11c13.333 0 24 -3.83301 32 -11.5s12 -15.834 12 -24.501c0 -5.33301 -1.83301 -11 -5.5 -17s-8.83398 -12.667 -15.501 -20l-104 -102h-48zM253.001 527.001l73.001 132.001c8 14 16.333 24.667 25 32
s19 11 31 11c13.333 0 24 -3.83301 32 -11.5s12 -15.834 12 -24.501c0 -5.33301 -1.83301 -11 -5.5 -17s-8.83398 -12.667 -15.501 -20l-104 -102h-48z" />
    <glyph glyph-name="uni10D0" unicode="&#x10d0;" horiz-adv-x="482" 
d="M239 0l-10.9941 -0.00195312l2.5 7.5c1 3 1.5 5.83301 1.5 8.5v7c0 6 1 10.667 3 14c0.666992 0.666992 1 2.33398 1 5.00098c0 2 -0.5 3.83301 -1.5 5.5s-2.16699 2.83398 -3.5 3.50098h-17c-0.666992 -3.33301 -1 -8 -1 -14l-14 -14l14 -6l-1 -2l-31 4
c-4 -7.33301 -6.33301 -11.666 -7 -12.999c-102.667 20 -154 94.667 -154 224v22h1c0 2 0.166992 4.83301 0.5 8.5s-0.166992 6.83398 -1.5 9.50098v14l25 120h140l-26 -107l-4 8h-17v-9h21l-6 -25v-72c0 -66.667 28.667 -100 86 -100c8 0 13.667 0.333008 17 1
c-2 -1.33301 -4.16699 -3.33301 -6.5 -6s-4.5 -4.66699 -6.5 -6l20 -15v29c14 3.33301 25 9.33301 33 18l3 -3h8l2 -14c2 2.66699 4.16699 6.16699 6.5 10.5s4.83301 7.5 7.5 9.5l5 4c3.33301 0 8.33301 -1.33301 15 -4
c1.33301 -0.666992 2.66602 -0.833984 3.99902 -0.500977s2.33301 0.833008 3 1.5l-5 17l11 9h1l1 1l11 9v22l-11 3v13l-14 4v-13l-0.5 0.5l-0.5 0.5v-2c-6 -2.66699 -13.667 -5.33398 -23 -8.00098c0.666992 4.66699 1 12.334 1 23.001v39h2v-5
c0 -4 0.833008 -7.16699 2.5 -9.5s4.16699 -4.83301 7.5 -7.5v35h-4c0 0.666992 0.166992 1.83398 0.5 3.50098s0.166016 3.83398 -0.500977 6.50098l15 11c-4 12 -7.33301 21 -10 27c-1.33301 0 -3 -0.333008 -5 -1s-3.33301 -1.33398 -4 -2.00098
c-1.33301 -4 -2.66602 -7.33301 -3.99902 -10v12c0 45.333 -17.667 90.333 -53 135v1l-2 1c-6.66699 8.66699 -18.334 21.334 -35.001 38.001l4 11l-16 28h-9l-4 -15l-26 34v10c-2.66699 0.666992 -5 0.666992 -7 0c-21.333 35.333 -34.333 73.666 -39 114.999
c4.66699 4.66699 6.66699 10 6 16c-1.33301 0 -4 -0.666992 -8 -2l-1 25l13 -9l10 5l3 6h105c0 -4.66699 0.333008 -8.33398 1 -11.001c-4 4 -8.33301 5 -13 3c0.666992 -6 1.5 -9.83301 2.5 -11.5s3.5 -2.16699 7.5 -1.5h3c2 -20 7 -39.333 15 -58l-6 -13
c1.33301 -3.33301 3.66602 -5.16602 6.99902 -5.49902s5.66602 -0.5 6.99902 -0.5l9 -18c-9.33301 -6.66699 -18 -8.66699 -26 -6l-5 13l-8 1c-2.66699 0 -5.33398 -1.33301 -8.00098 -4c5.33301 -3.33301 9 -6 11 -8l5 -20l22 -6v2c0 3.33301 1.83301 7.66602 5.5 12.999
s5.16699 9.66602 4.5 12.999c6.66699 -12 16 -25.667 28 -41l-4 -3h6c13.333 -16 23.666 -28 30.999 -36c39.333 -40.667 66.333 -83.667 81 -129h-7v-16l10 7c7.33301 -22.667 11 -48 11 -76v-61c0 -152 -71 -228 -213 -228zM163.006 668.998c0 -4 0.333008 -7 1 -9l11 5
l13 6v8h-20c-3.33301 -2.66699 -5 -6 -5 -10zM191.006 644.998c0 3.33301 1 5.66602 3 6.99902s4.5 2.33301 7.5 3s5.16699 1 6.5 1l-6 9h-21c-1.33301 -3.33301 -4 -7.66602 -8 -12.999c0 -5.33301 0.333008 -9.33301 1 -12v-3c6.66699 -1.33301 9.66699 -2 9 -2l3 -6
c5.33301 1.33301 8.83301 2.5 10.5 3.5s2.5 2.83301 2.5 5.5l-7 3zM239.506 611.498c3 1 5.16602 1.83301 6.49902 2.5c-5.33301 8 -10.666 15.333 -15.999 22h-13v-20c1.33301 -0.666992 4 -1 8 -1s7 -1.33301 9 -4c0.666992 -0.666992 2.5 -0.5 5.5 0.5zM347.005 479.998
c-5.33301 1.33301 -9.66699 3.00195 -13 5.00195s-5.33301 5.33301 -6 10h-9l-1 10c-2 0 -4.33301 0.666992 -7 2c0 4 -0.5 7 -1.5 9s-2.83301 3 -5.5 3l-8 -1c0.666992 -4.66699 3.66699 -8.83398 9 -12.501s8 -6.83398 8 -9.50098c3.33301 -18.667 5 -29 5 -31l29 -4v19z
M359.004 439c2.66699 -2.66699 6.66699 -7.33301 12 -14l9 14h-21zM322.004 390.001c0 3.33301 -0.666016 7.16797 -1.99902 11.501s-2.33301 7.5 -3 9.5c-2.66699 0 -4.33398 -0.333008 -5.00098 -1v-27h9c0.666992 1.33301 1 3.66602 1 6.99902zM372.005 299.503l4 11.502
c-2 -0.666992 -4.16699 -1.33398 -6.5 -2.00098s-3.83301 -1.33398 -4.5 -2.00098s-2 -4 -4 -10l3 2l4 -11zM101.005 286.005l-2 8c-2.66699 -1.33301 -5.33398 -3.33301 -8.00098 -6s-5 -4 -7 -4c-1.33301 0 -3.66602 1.66699 -6.99902 5l-5 -10
c12.667 -3.33301 19.667 -5 21 -5l0.5 0.5l0.5 0.5v8zM43.0049 246.005l0.000976562 5.99805c0 4 -1 6.33301 -3 7c-0.666992 0.666992 -4.33398 2.33398 -11.001 5.00098c0 -2 -0.333008 -4.83301 -1 -8.5s0.333008 -6.5 3 -8.5c2 -1.33301 4 -2.16602 6 -2.49902
s4 -0.833008 6 -1.5v3zM86.0059 192.003c0 2 -1.66699 4.66699 -5 8h-20v-5c2 -0.666992 5.5 -1.66699 10.5 -3s8.16699 -4.33301 9.5 -9c3.33301 4 5 7 5 9zM382.006 169.003c0 -2 0.668945 -4.33203 2.00195 -6.99902s2.33301 -5 3 -7v-1
c0 -2.66699 -1 -5.83398 -3 -9.50098s-3.33301 -6.16699 -4 -7.5c2.66699 -0.666992 6.5 -2.33398 11.5 -5.00098s9.16699 -4 12.5 -4s6.33301 1 9 3c-0.666992 3.33301 -1.83398 7.83301 -3.50098 13.5s-2.5 10.834 -2.5 15.501c-1.33301 14.667 -7 26.667 -17 36
c-4.66699 -14 -7.33398 -22.333 -8.00098 -25v-2zM313.008 146.004c1.33301 4 2.66699 9.33301 4 16h1c2.66699 2 6.16699 4.16699 10.5 6.5s7.5 4.83301 9.5 7.5l2 1l-7 -31h-12v0h-8zM373.009 83.0039c1.33301 0.666992 2.83203 1.33105 4.49902 1.99805
s3.83398 1.33398 6.50098 2.00098l-14 11c0.666992 0.666992 2.16699 1.16699 4.5 1.5s2.83301 2.5 1.5 6.5h-10l-2 -8c-6 3.33301 -9.66699 5 -11 5l-20 -15v-25c2.66699 2 6 3.5 10 4.5s7.5 2.33301 10.5 4s4.83301 4.83398 5.5 9.50098h16zM294.008 85.001
c5.33301 0 8.66699 2.33301 10 7c-2 6 -6.66699 8 -14 6v-13h4zM181.509 40.501c1 0.333008 1.83398 0.833984 2.50098 1.50098l-8 9h-13v-1c0 -2.66699 1.16699 -5 3.5 -7s4.16602 -4 5.49902 -6l3 4l3 -3c1.33301 1.33301 2.5 2.16602 3.5 2.49902zM170.01 33.002h-8.5
c-3 0 -4.83301 -0.333008 -5.5 -1c-3.33301 11.333 -5 17.333 -5 18l-15 -1v-23h17c-1.33301 -1.33301 -2 -3.33301 -2 -6h14zM264.01 41.002c-6.66699 -1.33301 -11 -2.83203 -13 -4.49902s-4.66699 -6.83398 -8 -15.501c8 3.33301 15 5.33301 21 6v14z" />
    <glyph glyph-name="uni10D1" unicode="&#x10d1;" horiz-adv-x="491" 
d="M272 1c-6 -0.666992 -15 -0.991211 -27 -0.991211c-108 0 -175.667 48.667 -203 146l19 -2c9.33301 -0.666992 17.666 -0.833984 24.999 -0.500977s13.333 0.5 18 0.5h21v6l-87 15c-5.33301 23.333 -8 53.333 -8 90v23c0 128.667 55 204.334 165 227.001
c2 31.333 -4.66699 52 -20 62c-16.667 10 -29.334 21 -38.001 33l4 4c2.66699 0.666992 6.66699 1 12 1c1.33301 5.33301 2 8.66602 2 9.99902c2 -0.666992 3.83301 -1.33398 5.5 -2.00098s3.16699 -1.33398 4.5 -2.00098c0.666992 -0.666992 1.5 -1.83398 2.5 -3.50098
s3.16699 -1.83398 6.5 -0.500977l-8 10v16l6 2v8c-2.66699 4 -7.5 6.83301 -14.5 8.5s-11.833 3.16699 -14.5 4.5l-9 -23h-13l-1 -2c0 0.666992 -0.666992 2.33398 -2 5.00098l7 3c0.666992 5.33301 0.833984 10 0.500977 14s-0.5 7.66699 -0.5 11
c0 6.66699 0.333008 12 1 16l9 -14l6 2c-2.66699 4.66699 -6 11.667 -10 21h-8l3 17h18c-0.666992 -2 -1 -4.66699 -1 -8c0 -5.33301 1.66699 -10.333 5 -15c5.33301 -2.66699 13.333 -6 24 -10l-4 24h8c0 2 0.333008 3.83301 1 5.5s1.33398 2.83398 2.00098 3.50098h11
c5.33301 -8 12 -14.333 20 -19c1.33301 1.33301 3 3.16602 5 5.49902s3.33301 4.5 4 6.5l2 7h11c1.33301 -2 2.33301 -5.5 3 -10.5s2 -8.5 4 -10.5c3.33301 2 7 3.33301 11 4c1.33301 -18.667 5.33301 -33.334 12 -44.001c-8.66699 -13.333 -13 -25.333 -13 -36l14 7
c4.66699 -1.33301 7 -4.33301 7 -9s0.333008 -7.66699 1 -9l16 -5v22l-6 4l4 2c24.667 -20.667 37 -49.334 37 -86.001l-5 3v23c-2.66699 0 -6.33398 1.33301 -11.001 4s-8.33398 4 -11.001 4c-3.33301 0 -6.66602 -1.66699 -9.99902 -5v-15l-8 -8l5 -30
c-6.66699 -2 -12 -5.5 -16 -10.5s-7.66699 -12.167 -11 -21.5c-1.33301 -4.66699 0.166992 -10.667 4.5 -18s7.16602 -12.666 8.49902 -15.999c1.33301 0 3.83301 -0.166992 7.5 -0.5s6.5 0.166992 8.5 1.5c4.66699 2.66699 9.83398 4.5 15.501 5.5s10.334 1.33301 14.001 1
s6.83398 -0.5 9.50098 -0.5c1.33301 2 3 3.66699 5 5v20l-5 4h27l-7 13l15 -7c0.666992 -7.33301 5 -14.333 13 -21c1.33301 0.666992 3 1 5 1c2.66699 0 5.5 -1.33301 8.5 -4s5.16699 -4.66699 6.5 -6l3 6c44.667 -39.333 67 -102 67 -188v-20
c0 -52.667 -7 -97.667 -21 -135c-1.33301 1.33301 -2.66602 2 -3.99902 2l-18 12l4 5l-8 7l-5 -9v0c0.666992 0 2 -1.33301 4 -4c-3.33301 0 -6.83301 0.166992 -10.5 0.5s-7.5 0.166016 -11.5 -0.500977h-1c-2 0 -4.16699 0.666992 -6.5 2s-4.5 2.16602 -6.5 2.49902
s-4 -0.833984 -6 -3.50098l14 -27c2.66699 1.33301 4.33398 2 5.00098 2v9c2 0.666992 5.33301 1 10 1c10 0 19.333 -2.66699 28 -8c1.33301 2 2 3.66699 2 5s0.333008 2.33301 1 3c2.66699 -2.66699 4.66699 -4.33398 6 -5.00098c-4 -10.667 -8.66699 -20 -14 -28h-1v-2
c-7.33301 -12 -16.333 -23.333 -27 -34c-2.66699 8.66699 -7.33398 15.667 -14.001 21h-1c-1.33301 0.666992 -3.33301 2.33398 -6 5.00098c-2 0 -5 -0.333008 -9 -1s-7.33301 -1.33398 -10 -2.00098c-0.666992 0 -1.33398 -1.33301 -2.00098 -4l15 -18l5 4
c2.66699 -1.33301 4.66699 -2.66602 6 -3.99902s2.66602 -2.33301 3.99902 -3v-7c-6.66699 -6 -15 -11.667 -25 -17l10 20c-6.66699 0.666992 -14.334 1 -23.001 1c-6.66699 -4.66699 -10 -9.33398 -10 -14.001c0 -2.66699 1 -5.66699 3 -9h15
c-17.333 -8 -33.333 -13.333 -48 -16h-2l-4 -1c-5.33301 -1.33301 -9.66602 -2 -12.999 -2l-2 1l7 4v9l-15 -1l5 -9zM150 706.009h9c0 -0.666992 0.666992 -1.66699 2 -3zM220 606.009l9 -4c4 6 5.66699 10.667 5 14l-7 8c-6 -3.33301 -8.33301 -9.33301 -7 -18z
M128 619.009c4 0 6.33301 -1.66699 7 -5l-3 -6l-7 11h3zM191 583.009c5.33301 1.33301 9.00098 3.66602 11.001 6.99902l-6 18l-5 1c-4.66699 0 -10.667 -3 -18 -9l-1 -6c0 -5.33301 3 -10.666 9 -15.999c1.33301 2 4.66602 3.66699 9.99902 5zM205.001 560.009
l18.999 5.00195c-1.33301 1.33301 -2.66602 4.16602 -3.99902 8.49902s-3 7.16602 -5 8.49902s-5.33301 1.33301 -10 0v-22zM322 523.011l-2 -21.999l12 -3h-20v-7l-16 15v29c4 1.33301 7 2.66602 9 3.99902c2 -2 4.16699 -4.33301 6.5 -7s4.5 -4.66699 6.5 -6z
M234.5 524.512c1 1 1.83301 4.5 2.5 10.5h-13v-14c6 1.33301 9.5 2.5 10.5 3.5zM234 489.512c-4 5.66699 -8 9.16699 -12 10.5c-4 -4 -6 -9.33301 -6 -16c0 -4.66699 0.333008 -8.33398 1 -11.001l17 -7c-4.66699 -3.33301 -8.66699 -5 -12 -5s-7.33301 2.33301 -12 7
l-9 -16l37 -6v2l1 -2l15 14l-4 4h2l-4 12c-2.66699 -1.33301 -4.66699 -2.66602 -6 -3.99902l3 7c-3.33301 1.33301 -7 4.83301 -11 10.5zM321 405.012l16 3c2.66699 -4.66699 7 -10 13 -16s11 -11.333 15 -16l-3 18l6 1v15h-9l6 34l-23 8c2 -4.66699 3 -10 3 -16
s-1.66699 -11.667 -5 -17h-14zM100 430.012l1 -21h18l-2 32zM154 396.012l1.00098 14c0 4 -1.66699 7.33301 -5 10c-2.66699 2 -6 3.66699 -10 5l-9 3l-1 -16c0 -4.66699 1.66699 -8.33398 5 -11.001c1.33301 -1.33301 4 -2.66602 8 -3.99902
c1.33301 -1.33301 2.66602 -2 3.99902 -2v1l7 -3v3zM187.001 428.012c0 -3.33301 2 -6.33203 6 -8.99902s6 -5.33398 6 -8.00098l7 11c-10 2.66699 -16.333 4.66699 -19 6zM163.001 248.013c0 -99.333 27.335 -149 82.002 -149c28 0 49 11.333 63 34l1 -2l-14 -20
c6.66699 0.666992 12 1.66699 16 3s7.66699 3.66602 11 6.99902c-0.666992 1.33301 -1.5 2.83301 -2.5 4.5s-1.83301 3.16699 -2.5 4.5l8 10l-3 26c0.666992 0.666992 1 1.66699 1 3h13c0 2 -0.833008 4.83301 -2.5 8.5s-1.83398 6.83398 -0.500977 9.50098
c3.33301 6.66699 9 19.334 17 38.001l-3 4l-16 12v6v10l8 -7c0.666992 -0.666992 1.5 -2 2.5 -4s2.16699 -3.33301 3.5 -4s2.66602 -0.833984 3.99902 -0.500977s2.66602 0.5 3.99902 0.5v17l-11 6v22c-2 0 -5.66699 0.666992 -11 2c0 81.333 -28.667 122 -86 122
c-53.333 -0.666992 -80.666 -43.667 -81.999 -129v-34zM67.0029 403.013l18 -13.001v14c-5.33301 2.66699 -9.33301 4.33398 -12 5.00098zM107.003 399.012c0 -3.33301 1.66699 -5.66699 5 -7c2 -1.33301 4.5 -1.83301 7.5 -1.5s4.83301 0.5 5.5 0.5l-5 10l-11 5
c-1.33301 -4 -2 -6.33301 -2 -7zM83.0029 387.011c-3.33301 -2.66699 -5 -5.33301 -5 -8c0 -2 1.66699 -6.33301 5 -13c11.333 3.33301 15.333 10.333 12 21h-12zM150.003 380.012l-11.001 0.000976562c1.33301 -8 2.83301 -13.333 4.5 -16
s3.83398 -4.33398 6.50098 -5.00098v21zM108.002 362.013h9c2 6.66699 3.33301 11 4 13h-13v-13zM106.002 344.013c-5.33301 4 -10.8359 6.5 -16.5029 7.5s-12 1.5 -19 1.5s-13.167 0.333008 -18.5 1v-13h29c0 -2.66699 0.333008 -4.33398 1 -5.00098
c-4 0 -6.5 -0.666992 -7.5 -2s-2.16699 -5 -3.5 -11c-1.33301 -4 -2.66602 -7.16699 -3.99902 -9.5s-2.66602 -4.5 -3.99902 -6.5c3.33301 -5.33301 5.83301 -8.66602 7.5 -9.99902s5.83398 -3.33301 12.501 -6l7 4l-16 17c3.33301 4 7 7.66699 11 11l1 7h20v14z
M134.999 246.013c-1.33301 5.33301 -2.66699 10 -4 14h-15c1.33301 -2.66699 2.33301 -5.16699 3 -7.5s1.66699 -4.5 3 -6.5h13zM425.998 253.013v-5c0 -6.66699 0.666992 -11.667 2 -15l9 7l-4 5l3 8h-10zM369.998 202.013l-18.999 0.000976562
c-0.666992 -0.666992 -2 -2.5 -4 -5.5s-3.33301 -5.83301 -4 -8.5s-0.333984 -5.33398 0.999023 -8.00098l16 8l16 8zM81.999 170.014c0 2 -1.66504 6.33203 -4.99805 12.999l-10 5l-7 -5c1.33301 -2.66699 2.66602 -5.5 3.99902 -8.5s2.66602 -6.16699 3.99902 -9.5l4 4
c2 -1.33301 5 -2.66602 9 -3.99902c0.666992 1.33301 1 3 1 5zM373.001 175.013c-4.66699 1.33301 -7.33301 2 -8 2v-13c1.33301 -2 3 -3.66699 5 -5h3c4.66699 0 8 2.66699 10 8c-2 4 -5.33301 6.66699 -10 8zM148.002 136.013l-21 -1l21 -35v36zM346.002 126.013h-8
l-9 -11v-11h7c4 0 7.33301 1.66699 10 5v17zM407.502 100.013c-0.333008 -2.66699 -0.166992 -5.33301 0.5 -8c0.666992 -2 3 -4 7 -6l12 9l-6 12h-13c0 -2 -0.166992 -4.33301 -0.5 -7zM256.001 47.5137c-0.666992 -1 -0.667969 -1.83301 -0.000976562 -2.5
c6 -8.66699 13 -13 21 -13c0.666992 0 2.33398 1.33301 5.00098 4l-11 6.5l-14 8.5c0 -1.33301 -0.333008 -2.5 -1 -3.5zM244 41.5137c1.33301 1.66699 2.33203 3.16699 2.99902 4.5h-11l-9 4v-6h-24l-14 -26c2.66699 -1.33301 6.33398 -2 11.001 -2c6 0 13.333 3 22 9
l17 -5l-1 19h3c0.666992 0 1.66699 0.833008 3 2.5zM309.999 38.0137h-21v-6c4.66699 0 8 -0.333008 10 -1c2 0 5.66699 -1.33301 11 -4v11z" />
    <glyph glyph-name="uni10D2" unicode="&#x10d2;" horiz-adv-x="528" 
d="M495 274l-8.01172 -8.99902l8 -5l3 1v-7l-6 2l-63 11c-28 4 -49 7.33301 -63 10l-3 -3v1c0 39.333 -5.66699 71 -17 95h2l-9 36h-2v7l10 10h13l-3 21l3 4l-9 13c-2.66699 4 -5 7.66699 -7 11l-33 6v14l-15 -4c-1.33301 0.666992 -3.83301 2.16699 -7.5 4.5
s-7.5 2.83301 -11.5 1.5c-0.666992 -1.33301 -1.33398 -3.33301 -2.00098 -6s-1.66699 -4.33398 -3 -5.00098c-2.66699 -1.33301 -5.16699 -3.66602 -7.5 -6.99902s-4.5 -5.66602 -6.5 -6.99902c-8 1.33301 -13.667 2.66602 -17 3.99902
c-0.666992 -0.666992 -1.33398 -1.5 -2.00098 -2.5l-3 -4.5l1 -19l10 14h25v-12c2 -2 5.66699 -4.33301 11 -7v-2c0 -2 -1 -4.83301 -3 -8.5s-1.33301 -7.16699 2 -10.5l16 6v21l10 -2l2 -4l2 -4c3.33301 -6.66699 4.33301 -15 3 -25
c-2.66699 -1.33301 -4.66699 -2.66602 -6 -3.99902c-12 6 -25.667 9 -41 9c-12.667 0 -24.667 -2 -36 -6l-10 10h-7c-0.666992 -1.33301 -1.83398 -4.16602 -3.50098 -8.49902s-4.83398 -7.16602 -9.50098 -8.49902l2 -8c-5.33301 -4 -10.666 -10 -15.999 -18h-2
c-0.666992 -1.33301 -2 -5 -4 -11c-11.333 -22.667 -17 -52.667 -17 -90v-17c-5.33301 1.33301 -12.666 2.66602 -21.999 3.99902c-4.66699 -7.33301 -7 -14 -7 -20c0 -3.33301 1 -6 3 -8h24l-3 3l5 4v-2c0 -6.66699 0.333008 -11.667 1 -15
c-4 1.33301 -7.33301 2.66602 -10 3.99902v-15c0 -5.33301 0.333008 -9.33301 1 -12h9l1 2c2 -17.333 5.66699 -33 11 -47c-1.33301 -4 -2.66602 -7 -3.99902 -9l-14 11c-1.33301 -1.33301 -3.33301 -2.66602 -6 -3.99902c0 2 -0.666992 6.33301 -2 13l18 -11v13
c-1.33301 0 -3 -0.166992 -5 -0.5s-4 -0.166016 -6 0.500977c-1.33301 0 -4.66602 0.666992 -9.99902 2c-12 -10 -18 -17.333 -18 -22l7 -7l-13 -11l-9 27h-6c-5.33301 0 -9.66602 -2.66699 -12.999 -8c0.666992 -2 2 -4.66699 4 -8s3.33301 -6.33301 4 -9v-3
c0 -3.33301 -0.333008 -6.16602 -1 -8.49902s-1.33398 -4.5 -2.00098 -6.5h7l16 15v-27h-18c-4 -2.66699 -5.83301 -6.16699 -5.5 -10.5s0.5 -7.16602 0.5 -8.49902c8.66699 -8.66699 15.334 -13 20.001 -13c2.66699 0 6.66699 1.66699 12 5v17l-3 3
c2.66699 0.666992 7.33398 1.66699 14.001 3s12 3.66602 16 6.99902s6.66699 8 8 14h25l3 4c4.66699 -5.33301 10.334 -10.333 17.001 -15c-5.33301 -1.33301 -9 -5.33301 -11 -12l32 -7v10c8.66699 -2.66699 19.334 -4 32.001 -4c53.333 0 84.333 33 93 99h9l4 18
c-4 -4.66699 -7.66699 -7 -11 -7c0.666992 6.66699 1 17.667 1 33v21l43 -32c6 0 18.667 -0.333008 38 -1s37 -2 53 -4h1c-1.33301 -18.667 -2.66602 -33 -3.99902 -43c-4.66699 5.33301 -9.5 10.333 -14.5 15s-9.5 9.33398 -13.5 14.001h-27v-30l12 9
c3.33301 -4 8 -8.66699 14 -14s10 -10 12 -14c3.33301 -6 6.66602 -9.66699 9.99902 -11c-22 -88 -81.333 -138 -178 -150l9 11c8 1.33301 13.333 2.83301 16 4.5s6.66699 5.5 12 11.5l-8 16c-2 -0.666992 -4.66699 -1 -8 -1c-5.33301 0 -11.166 1.83301 -17.499 5.5
s-11.5 6.16699 -15.5 7.5l-8 -7c-5.33301 -35.333 -8 -52 -8 -50h-17c-26.667 0 -51.667 2.66699 -75 8l-2 4h-13v-1l-26 9v13c-3.33301 0 -6.16602 -0.333008 -8.49902 -1s-4.16602 -2.33398 -5.49902 -5.00098c-43.333 22 -73 58.333 -89 109h7v-6
c6 -1.33301 10 -1.66602 12 -0.999023h15c0 3.33301 -0.166992 6 -0.5 8s-1.16602 3.33301 -2.49902 4v1c-6 9.33301 -12.667 12.666 -20 9.99902c-2.66699 1.33301 -5.66699 2 -9 2c0 -1.33301 -1.66699 -5 -5 -11c-5.33301 18 -9 41.333 -11 70l-1 26v46
c0 16.667 1.33301 31.334 4 44.001l0.5 -0.5l0.5 -0.5l15 26h12c0 2.66699 2.66699 6 8 10s7.33301 8.33301 6 13c-4 4 -6.66699 6.33301 -8 7s-4.33301 1 -9 1c0.666992 -0.666992 1 -2 1 -4c0 -2.66699 -0.666992 -5.33398 -2 -8.00098s-1.66602 -4.66699 -0.999023 -6
l-9 -10l-6 10l2 4c0.666992 0.666992 1.66699 1 3 1c0 2 0.5 4.33301 1.5 7s1.5 4.66699 1.5 6c4 9.33301 9 18.666 15 27.999l1 -2h12l7 7l4 -2v-22l-5 2v-10c0 -4 0.5 -6.33301 1.5 -7s3.83301 -1.66699 8.5 -3v12h13l17 1l-3 4c1.33301 0 3.66602 -0.166992 6.99902 -0.5
s6 -2.16602 8 -5.49902l5 16l-23 3v9l2 -1c0 2 -0.666992 4.33301 -2 7c0 3.33301 -0.333008 5.66602 -1 6.99902l25 19l-10 28c12.667 6.66699 26.334 13 41.001 19c-1.33301 -2.66699 -2 -4.66699 -2 -6c0 -4.66699 4 -10 12 -16l7 16
c1.33301 2 2.66602 6.33301 3.99902 13c19.333 6 41 11 65 15h19c14 16 21 33.333 21 52c0 8.66699 -1.33301 15.334 -4 20.001l3 3l4 -5c2 -0.666992 5 -1 9 -1c5.33301 0 12 1.33301 20 4l19 -26c6.66699 6 10 12.333 10 19c0 2 -0.666992 5.66699 -2 11
c-6.66699 0 -11.334 0.333008 -14.001 1c-0.666992 0 -2.66699 1.66699 -6 5l-2 -2l5 11l-6 7h-17l4 19l-13 -5v-17l2 -2h-25l1 -12c-6.66699 6.66699 -18 10 -34 10c-28.667 0 -43 -18 -43 -54h-121c0 27.333 4 51 12 71h7c-1.33301 4 -2 7.66699 -2 11
c10.667 24 29 42.333 55 55h24v8l3 -5l2 4c0.666992 1.33301 1.66699 2.66602 3 3.99902c16 4 34.333 6 55 6c-0.666992 -0.666992 -1 -1.5 -1 -2.5s-0.333008 -1.83301 -1 -2.5c1.33301 -0.666992 3.33301 -1 6 -1c2 0 4.5 0.833008 7.5 2.5s5.5 2.83398 7.5 3.50098h4
l37 -25h20l-6 -12c4 -2 9.33301 -5.33301 16 -10s13 -7 19 -7c3.33301 7.33301 6.66602 13.666 9.99902 18.999l13 -13c0.666992 2 1 4.33301 1 7c23.333 -24.667 35 -58.334 35 -101.001c-2 -25.333 -8 -48 -18 -68h-17v24c4.66699 0 8.33398 -0.333008 11.001 -1
c0.666992 0 1.33398 0.666992 2.00098 2s1.66699 2.66602 3 3.99902c-1.33301 2 -3.16602 4.33301 -5.49902 7l-8.5 10v25l-34 -25c-1.33301 -6 -2.66602 -11.333 -3.99902 -16s-2.33301 -9.33398 -3 -14.001l-10 21l-21 5l6 -49l10 6l12 -13
c4 0.666992 7.33301 2.33398 10 5.00098c2 -6 7.33301 -12.667 16 -20c2.66699 -2.66699 4.66699 -4.33398 6 -5.00098l1 -8v-13c0 -6 0.666992 -10.333 2 -13c9.33301 3.33301 15 5.33301 17 6s5.33301 1 10 1l10 -14h16v13l-14 13v2c1.33301 2 1.33301 4 0 6v10h9
c18.667 -16 34.667 -36.333 48 -61c9.33301 -18 15.333 -33 18 -45c-5.33301 -0.666992 -12.666 -3 -21.999 -7c-4 -2 -10.667 -4.33301 -20 -7l14 -12c2.66699 -2 6.83398 -4.66699 12.501 -8s9.5 -8 11.5 -14h4v11l-5 1v12l6 3c0 1.33301 0.666992 4.66602 2 9.99902
c4.66699 -19.333 7 -43 7 -71v-6c-1.33301 0 -2.33301 0.333008 -3 1zM346.988 686.001c-6 6 -11.667 9 -17 9v2c10 -2.66699 19.667 -7 29 -13c0.666992 -0.666992 1 -2 1 -4c-6 1.33301 -10.333 3.33301 -13 6zM215.988 690.001h-13l-7 -13h16c6 4 7.33301 8.33301 4 13z
M259.988 654.001l-7.00098 11h-10c-1.33301 -2 -2.66602 -4.33301 -3.99902 -7s-3 -5.66699 -5 -9l17 -7zM202.987 653.001l-21.001 4.99902c-0.666992 -1.33301 -1 -3 -1 -5c0 -2.66699 1.33301 -5.16699 4 -7.5s4.33398 -4.16602 5.00098 -5.49902h13v13zM252.986 627
c-4 6 -9 7 -15 3l9 -8v-11h6v16zM321.986 601l-11 -1c4 2 6.33301 3.33301 7 4v1zM304.986 596l2 2zM302.986 595l2 1zM352.986 501l1 7.00098h2c0 -0.666992 -0.666992 -2.33398 -2 -5.00098zM195.986 464.001l-13 6.00098c-1.33301 -4 -2 -6.33301 -2 -7
c0 -4 2.33301 -6.66699 7 -8c1.33301 -0.666992 4 -0.333984 8 0.999023v8zM88.9863 433.002h-9l19 18l-3 -8l-7 -2v-8zM152.986 406.002l-5.99902 13.001c-2.66699 -0.666992 -7 -1 -13 -1v-9c1.33301 -0.666992 6.66602 -2.33398 15.999 -5.00098zM455.987 376.503
c6.66699 -3.66699 11.333 -6.5 14 -8.5c1.33301 2.66699 2 4.66699 2 6c0 2 -1 5 -3 9s-2.66699 7.33301 -2 10h-7c-8 0 -14.667 -0.666992 -20 -2c4 -6 9.33301 -10.833 16 -14.5zM102.486 340.503c1.66699 -1 5.5 -1.16699 11.5 -0.5l-6 14l-3 1v14
c0 0.666992 -1.33301 1.66699 -4 3l-7 -6v-15c4 -6 6.83301 -9.5 8.5 -10.5zM203.986 41.0029c7.33301 2 10.667 6.33301 10 13c-1.33301 0.666992 -2.83301 1 -4.5 1s-3.5 0.333008 -5.5 1v-15z" />
    <glyph glyph-name="uni10D3" unicode="&#x10d3;" horiz-adv-x="717" 
d="M56 285c-24 53.333 -35.9971 105.673 -35.9971 157.006v43c0 9.33301 0.666992 22.666 2 39.999l7 -3c5.33301 5.33301 9.16602 9.66602 11.499 12.999s3.16602 7.33301 2.49902 12l-16 11l5 19h14l6 22l-11 1c4.66699 10 9 18 13 24h3v4c6.66699 10.667 15.667 20 27 28
v-9c0 -4 0.833008 -7.33301 2.5 -10s4.83398 -5 9.50098 -7c0 2 -0.166992 4.33301 -0.5 7s-0.166016 5.33398 0.500977 8.00098c0.666992 2 1.83398 4.5 3.50098 7.5s2.83398 5.5 3.50098 7.5h-15c32.667 24.667 76.667 37 132 37c42.667 0 84 -16.333 124 -49
c15.333 15.333 34.333 27 57 35l23 5c-0.666992 -2.66699 -3 -8.33398 -7 -17.001h-26c0 -2 0.166992 -4 0.5 -6s0.166016 -4.33301 -0.500977 -7c0 -0.666992 -2.33301 -4.33398 -7 -11.001l16 3.5l12 2.5c3.33301 -6.66699 7.66602 -12.667 12.999 -18
s11.166 -10.333 17.499 -15s11.5 -8.66699 15.5 -12c-1.33301 4.66699 -2.66602 11.667 -3.99902 21c4 1.33301 7.33301 2 10 2l-2 24h-14c2.66699 15.333 5 27.666 7 36.999c6 0.666992 16 1 30 1c124 0 193.667 -55.667 209 -167h-6c-0.666992 -1.33301 -1 -4 -1 -8l-2 1
v-17h1c-1.33301 -3.33301 -3.33301 -6 -6 -8c4.66699 -4.66699 10.334 -7.66699 17.001 -9v-8v-58c0 -24 -2 -46.667 -6 -68c-1.33301 0 -3.66602 -1.33301 -6.99902 -4c0 -1.33301 0.166992 -3.83301 0.5 -7.5s1.5 -5.83398 3.5 -6.50098c-10 -40.667 -26.667 -73 -50 -97
l-8 9c-0.666992 0.666992 -4 3.33398 -10 8.00098c-0.666992 6.66699 -2.33398 15 -5.00098 25l17 6l4 -5l7 13l-23 -4c-1.33301 0.666992 -2.83301 2.16699 -4.5 4.5s-4.5 2.83301 -8.5 1.5l-17 -12c4.66699 -1.33301 7.83398 -3.33301 9.50098 -6
s2.66699 -5.83398 3 -9.50098s0.833008 -6.16699 1.5 -7.5l-3 -3l-5 10v-4c0 -4.66699 1.66699 -9.66699 5 -15s5 -9.66602 5 -12.999l-2 -17l16 3c-18 -13.333 -38 -24 -60 -32l-13 9l3 3l8 1l4 12c-8 6.66699 -13.667 11.667 -17 15l-3 -13l-2 1l-9 -12l6 -9
c-17.333 0 -29.666 0.333008 -36.999 1c-4 0.666992 -9.33301 1.66699 -16 3s-12.334 2.66602 -17.001 3.99902l6 -14c-0.666992 0 -1 -0.333008 -1 -1c-2.66699 1.33301 -4.66699 2 -6 2c-2 0 -4.66699 -0.5 -8 -1.5s-6.33301 -0.833008 -9 0.5v-10
c-18.667 3.33301 -34.667 7.66602 -48 12.999l22 9v13l-16 8l-5 -1l3 -6l-5 -9l-7 15h-2c0 10.667 -1 18.334 -3 23.001c2 2 3.16699 3.83301 3.5 5.5s-0.166992 3.5 -1.5 5.5c9.33301 1.33301 15.666 2 18.999 2c-0.666992 3.33301 -1.83398 7.83301 -3.50098 13.5
s-2.16699 9.83398 -1.5 12.501l1 1l0.5 -0.5l0.5 -0.5c3.33301 3.33301 5.16602 5.5 5.49902 6.5s0.166016 3.83301 -0.500977 8.5h-1l12 25l9 -18c-6 -8.66699 -9 -16.334 -9 -23.001c0 -3.33301 0.333008 -6 1 -8l25 12c10.667 -7.33301 23 -11 37 -11l14 1
c-4.66699 -2.66699 -10 -9 -16 -19l-24 14v-26c7.33301 -4 12 -6 14 -6c2.66699 0 9 4 19 12h13l4 4l-2 12l-7 10c37.333 7.33301 57.666 43 60.999 107v-22c3.33301 2 6.66602 4.16699 9.99902 6.5l8 5.5c-4.66699 2.66699 -7 5.33398 -7 8.00098s2 6.66699 6 12h-16v12v53
c0 90 -25.667 135 -77 135c-49.333 0 -74.666 -39 -75.999 -117v-22h-3l-8 -2v-45l12 -14c0 -7.33301 0.666992 -16.333 2 -27c-14 10.667 -23.333 21 -28 31c-1.33301 2 -6 4.33301 -14 7c-0.666992 5.33301 -2.33398 13.333 -5.00098 24h-10l-1 -15
c-9.33301 -4.66699 -15.666 -8.33398 -18.999 -11.001c-0.666992 -0.666992 -2.16699 -1.83398 -4.5 -3.50098s-3.83301 -3.66699 -4.5 -6s-0.666992 -4.83301 0 -7.5c4 -2 9.66699 -3.66699 17 -5l-1 -12c0 -8 1.66699 -15 5 -21
c-1.33301 -2.66699 -3.66602 -6 -6.99902 -10c6 1.33301 10.5 3.5 13.5 6.5s6.5 7.5 10.5 13.5s8 9.66699 12 11l18 -9l-30 -54h-7c3.33301 8 5 12.333 5 13l-24 3c4.66699 -10.667 7.33398 -17.334 8.00098 -20.001h-4h-6c-5.33301 0 -8.66602 -2.33301 -9.99902 -7
c2 -0.666992 5 -1 9 -1h11c4.66699 0 8 -0.333008 10 -1l-11 -22l-9 3v-18l-1 -2l1 -3v-10c-1.33301 -0.666992 -3 -1 -5 -1c-24 26.667 -40 62 -48 106l4 10h-6c-2.66699 16.667 -4 37.667 -4 63v46v12l15 -9c3.33301 2 6 4.66699 8 8c-4 2.66699 -6 6.66699 -6 12v9
c0 6 -2.66699 9.66699 -8 11l-6 -3c2 14.667 5.66699 31 11 49l-9 13c2.66699 0 5 1.66699 7 5l-4 6h4c4 0 6.83301 1 8.5 3s3.5 5.16699 5.5 9.5s4 7.5 6 9.5l-8 8l-19 11c-3.33301 -0.666992 -5.66602 -1.66699 -6.99902 -3c4.66699 -6.66699 7 -13.334 7 -20.001
c-2 2.66699 -5 6 -9 10s-7.33301 7.66699 -10 11h-22v-14l39 -16l2 3c-1.33301 -6.66699 -4.33301 -11 -9 -13c-14.667 13.333 -31 20 -49 20c-46 0 -69 -36 -69 -108v-39c0 -36.667 5.33301 -73 16 -109l-1 -1l3 -5c1.33301 -3.33301 2.5 -7 3.5 -11s2.5 -8 4.5 -12l-5 1
l2 -16l7 3l13 -29c30.667 -62.667 81.667 -103.334 153 -122.001l7 -1v-10c0 -8 1 -14 3 -18c-3.33301 0 -5.66602 0.666992 -6.99902 2s-2.16602 3 -2.49902 5s-0.833008 3.33301 -1.5 4l-7 1c-4 0 -7.33301 -2.33301 -10 -7c4 -5.33301 6.66699 -9.33301 8 -12h11
c9.33301 0 16.666 -1 21.999 -3l9 -13l27 -3l10 10c0.666992 -0.666992 1.66699 -1 3 -1s2.66602 -0.333008 3.99902 -1v17l-3 4c6.66699 2 9.66699 2.66699 9 2l-2 8c27.333 -8 48.333 -15.667 63 -23c1.33301 -2.66699 3 -4 5 -4h2c46 -24.667 70.667 -58 74 -100
c-8 10.667 -15 17.667 -21 21c-9.33301 -6 -18.333 -12.667 -27 -20l12 -7h-11v4c-8 0 -13.333 0.333008 -16 1c-0.666992 2.66699 -1.16699 5.16699 -1.5 7.5s-1.16602 4.5 -2.49902 6.5c-0.666992 1.33301 -2.33398 2.33301 -5.00098 3s-4.66699 1 -6 1l-3 -23h-82h-1
h-0.5h-0.5c-2.66699 34.667 -32 54.667 -88 60c0 2 0.333008 3.66699 1 5c-2 -1.33301 -3.83301 -2.16602 -5.5 -2.49902s-2.83398 -0.833008 -3.50098 -1.5l-24 1c-5.33301 0 -14 -0.666992 -26 -2c5.33301 5.33301 11.666 7.33301 18.999 6l2 1v13
c-6.66699 4 -12.334 7 -17.001 9l-1 -18c-4.66699 4 -9.33398 6 -14.001 6c-3.33301 0 -8.33301 -2 -15 -6l3 -8c-2 -0.666992 -4.66699 -1 -8 -1c-8 0 -17 3.33301 -27 10l5 -25c-26 -10.667 -50 -25.334 -72 -44.001l-10 16h6c3.33301 4 5 6.5 5 7.5s-0.666992 3.5 -2 7.5
c-2 4.66699 -5.16699 9 -9.5 13s-7.5 7.33301 -9.5 10l-10 -5l-31 52c22 16.667 45.333 29.667 70 39c-10 10.667 -20 23.334 -30 38.001l7 -3l4 1c-2 4 -3.33301 9 -4 15c-3.33301 -1.33301 -7.66602 -2.66602 -12.999 -3.99902
c-22.667 30.667 -41.334 62.334 -56.001 95.001zM161.003 677.007c5.33301 -4 13.334 -9.33203 24.001 -15.999l8 14c-8.66699 3.33301 -18.334 6.66602 -29.001 9.99902zM159.004 615.008c0 -4.66699 -4.33301 -8.33398 -13 -11.001l6 -12c8 0 14 1 18 3c4.66699 4 7 7 7 9
c0 2.66699 -1 5.33398 -3 8.00098c-2 2 -4.33301 5 -7 9h-9c0.666992 -1.33301 1 -3.33301 1 -6zM82.0039 605.008l10 -35h9v36zM318.004 507.008l2.99609 -3c2.66699 -2.66699 5 -4 7 -4s4.83301 1.33301 8.5 4s6.83398 4 9.50098 4
c4.66699 0.666992 7.33398 3.33398 8.00098 8.00098c0.666992 1.33301 0.833984 2.5 0.500977 3.5s-0.5 2.16699 -0.5 3.5c-6 -2 -10 -3 -12 -3c-1.33301 0 -4.66602 2 -9.99902 6c3.33301 2 9.16602 5.16699 17.499 9.5s15.833 7.16602 22.5 8.49902c6 2 10 4.5 12 7.5
s4.33301 7.83301 7 14.5h-5c-3.33301 0 -7.66602 -1 -12.999 -3c-16 -9.33301 -31 -13 -45 -11l-5 -4zM301.5 512.008c3.66699 3.33301 5.83203 6.66699 6.49902 10c-4 0.666992 -10 1 -18 1v-13l5 -6c0.666992 2 2.83398 4.66699 6.50098 8zM106.998 510.009l5 -7.99902v-8
h1c3.33301 0 5.83301 1.33301 7.5 4s3.16699 4.66699 4.5 6c1.33301 -1.33301 2.33301 -2 3 -2l6 5l-9 6l-4 -4c-3.33301 3.33301 -8 3.66602 -14 0.999023zM89.498 504.51c-3.66699 -1.66699 -6.33301 -3.83105 -8 -6.49805s-2.5 -6.33398 -2.5 -11.001h14v1
c0 2 1 4.16699 3 6.5s3.5 4.66602 4.5 6.99902s0.166992 4.83301 -2.5 7.5c-2 -1.33301 -4.83301 -2.83301 -8.5 -4.5zM143.999 479.013h-18v-9l8 -3v-9l10 5v16zM384.999 455.013c0.666992 2.66699 1.99902 5.66699 3.99902 9h-20l14 -15
c0.666992 1.33301 1.33398 3.33301 2.00098 6zM51.998 384.013h24l-7 22h-23zM313.498 401.513c-0.333008 0.333008 -0.499023 0.833008 -0.499023 1.5h-7l-6 -11l3 2l3 -11c3.33301 3.33301 5.66602 6 6.99902 8s2 5.33301 2 10c-0.666992 0 -1.16699 0.166992 -1.5 0.5z
M582.999 381.013c4 0.666992 8.66699 1.00098 14 1.00098v14c-1.33301 -0.666992 -2.33301 -1.33398 -3 -2.00098s-1.66699 -1 -3 -1c-2 -0.666992 -4.66699 -1 -8 -1v-11zM305.999 343.014c0 6 -2 9 -6 9l-8 -2c3.33301 -7.33301 8 -11.333 14 -12v5zM97.999 321.014
c-3.33301 3.33301 -7 5.66699 -11 7l-1 -11l-14 -2l1 -2h33zM657.999 291.015l-13 -0.00195312c0.666992 -6.66699 1.5 -10.667 2.5 -12s4.5 -2.33301 10.5 -3l12 21c-2 0.666992 -3.83301 1.33398 -5.5 2.00098s-3.16699 1.33398 -4.5 2.00098l2 -3l-7 -1
c2 -2 3 -3.33301 3 -4v-2zM539.499 275.513c0.333008 -1 0.5 -1.83301 0.5 -2.5c4 0 7.33301 -0.333008 10 -1v-16l4 -2l11 10l-13 16h-13c0 -2 0.166992 -3.5 0.5 -4.5zM535.999 252.013c-1.33301 5.33301 -3.5 8.5 -6.5 9.5s-6.83301 0.833008 -11.5 -0.5v-15z
M549.999 232.013c7.33301 0 12.999 1 16.999 3c-5.33301 5.33301 -11.666 8.33301 -18.999 9l-7 -12h9zM343.998 235.013l8 -16l-12 11zM120.998 217.013l-4 5l-13 -9l8 -7zM446.998 191.013c-2 3.33301 -4.33301 6.16699 -7 8.5s-5.66699 3.83301 -9 4.5v-15
c2.66699 0 8 0.666992 16 2zM392.998 203.014c0.666992 -2.66699 1 -5.66699 1 -9l-4 2zM400.998 136.014l-7 -8l2 -8l2 -8c-9.33301 2 -18 8.33301 -26 19v15c20 -3.33301 37.667 -7.33301 53 -12h-1l-2 -6h-11zM150.998 112.014l6 -6l5 4l1 -11h6v13l-10 5z
M177.998 105.514c-2 -3.66699 -1.66699 -7.5 1 -11.5c4 3.33301 9.16699 5 15.5 5h13.5l3 -8l5 1v19l-19 -5l-15 8c-0.666992 -2 -2 -4.83301 -4 -8.5zM122.998 93.0137c-4.66699 3.33301 -8.66797 5.16797 -12.001 5.50098s-5.66602 -0.833984 -6.99902 -3.50098l6 -8z
M361.997 90.0156l7.99805 -16c1.33301 -1.33301 2.66602 -2.33301 3.99902 -3s3 -1.66699 5 -3c0.666992 2.66699 0.833984 5.16699 0.500977 7.5s-0.166016 4.5 0.500977 6.5c0.666992 1.33301 2.33398 5 5.00098 11zM476.495 87.0156c-4.33301 -2 -7.50195 -4 -9.50195 -6
s-3 -5.33301 -3 -10l25 -17v-16c5.33301 0.666992 13.333 1 24 1c-5.33301 23.333 -14.666 41.333 -27.999 54c-1.33301 -2 -4.16602 -4 -8.49902 -6zM339.493 91.0156c-2.33301 0.666992 -4.83301 -0.000976562 -7.5 -2.00098l9 -15c0.666992 -0.666992 2.66699 -1 6 -1v13
c-2.66699 2.66699 -5.16699 4.33398 -7.5 5.00098zM177.493 82.5146c-1 -3 -2.49902 -6.16602 -4.49902 -9.49902l7 -7l-4 -12l6 -6h7c7.33301 0 12.666 1.66699 15.999 5l-14 11v23c-4 1.33301 -7.33301 2.66602 -10 3.99902c-1.33301 -2.66699 -2.5 -5.5 -3.5 -8.5z
M169.994 73.0156l-6 12l-12 -4v-15l12 -5zM222.994 55.0156l6 0.000976562v-2c-3.33301 -0.666992 -8.33301 -2.33398 -15 -5.00098zM397.994 30.0166c2.66699 -0.666992 7.66699 -2.33398 15 -5.00098l22 17c-5.33301 2.66699 -12 5.33398 -20 8.00098l-17 -8v-12z" />
    <glyph glyph-name="uni10D4" unicode="&#x10d4;" horiz-adv-x="510" 
d="M452 548l0.000976562 -184.001l-13 -3l-12 19c-8.66699 14.667 -16.334 26.667 -23.001 36c-2.66699 3.33301 -4.33398 7 -5.00098 11s-1 6.66699 -1 8c-0.666992 3.33301 -1.66699 10 -3 20s-4.66602 18 -9.99902 24c-6.66699 -4 -15 -5.66699 -25 -5
s-16.667 0.666992 -20 0l-14 -3v87c0 26.667 -16 43 -48 49l13 1l-10 10h-26l-4 -9h-4c-40 0 -61 -23 -63 -69l10 -73h-5c-0.666992 -4 -1 -8.66699 -1 -14c0 -4 0.666992 -6.66699 2 -8s4 -2.66602 8 -3.99902l1 -8h-137l-6 107c0 20 2 38 6 54
c8 5.33301 11.667 11.333 11 18l-4 4c3.33301 8.66699 8.66602 18.667 15.999 30c0 -11.333 -0.333008 -19.666 -1 -24.999c4 -3.33301 9.66699 -7 17 -11v31l-14 7c3.33301 4.66699 8.66602 10.667 15.999 18c2.66699 -8.66699 10.334 -15 23.001 -19v35l1 1l19 -3
c-1.33301 5.33301 -2.66602 8.66602 -3.99902 9.99902c30 13.333 66.667 20 110 20c133.333 0 200 -54 200 -162zM340.001 662.999c-2.66699 4.66699 -6.83203 9.66699 -12.499 15s-9.5 9.33301 -11.5 12h-12l-11 -22c-5.33301 -1.33301 -8.33301 -2 -9 -2l-1 -11
c0 -8.66699 3.66699 -14.334 11 -17.001l5 21l24 -22c2 0 4.16699 -0.166992 6.5 -0.5s4.16602 -0.166016 5.49902 0.500977l8 8c0.666992 7.33301 -0.333008 13.333 -3 18zM203.003 658.999l-13 26c-9.33301 0 -16.333 -0.333008 -21 -1v-14zM181.003 660.999
l-20.001 0.00195312c-8.66699 0 -15.667 1.66699 -21 5l-10 -12c1.33301 -1.33301 3.5 -3.33301 6.5 -6s5.5 -4.33398 7.5 -5.00098s4.33301 -0.666992 7 0s5 0.666992 7 0s4.66699 -1.83398 8 -3.50098l9 -4.5c0 2.66699 -0.166992 5.16699 -0.5 7.5
s-0.166016 4.83301 0.500977 7.5c1.33301 3.33301 3.33301 7 6 11zM133.002 569.001l-14 11v29c-10 -6 -15.333 -9 -16 -9l-1 -11c0 -14.667 5 -26.667 15 -36h16v16zM435.002 313.001c4.66699 -4.66699 10.3369 -8.00195 17.0039 -10.002v-96
c0 -130.667 -64.667 -199.334 -194 -206.001v7c-2 0 -4.16699 0.333008 -6.5 1s-4.83301 1 -7.5 1c-4 0 -6.66699 -2 -8 -6c-0.666992 -0.666992 -1 -2 -1 -4h-2c-26 0 -50.667 2.66699 -74 8c0 5.33301 -1 10.333 -3 15c-0.666992 2 -3.33398 5.33301 -8.00098 10l-21 -14
v-1c-9.33301 4 -16 7.33301 -20 10v3l-4 -1l-14 9h14v13c-8.66699 6 -15 6.66699 -19 2c-0.666992 -0.666992 -1.33398 -1.5 -2.00098 -2.5s-1.33398 -2.5 -2.00098 -4.5c-40 34 -60 87.667 -60 161c2 4 3.33301 6.33301 4 7h15l12 -12h25c2 4 3 7.33301 3 10
c0 3.33301 -1 6 -3 8c1.33301 2.66699 2 4.66699 2 6l-1 9c-6.66699 -2 -10 -4.66699 -10 -8l-11 7c-5.33301 3.33301 -10.5 5.83301 -15.5 7.5s-10.167 2.16699 -15.5 1.5l10 79h143l-14 -76c0 -0.666992 -0.666992 -2.33398 -2 -5.00098l1 -1l-9 -55
c0 -9.33301 0.333008 -16.333 1 -21h-32c-4 -2.66699 -6.33301 -5.66699 -7 -9s-1 -7.16602 -1 -11.499s-0.333008 -8.16602 -1 -11.499c8 -8 14.5 -13.667 19.5 -17s11.167 -4.66602 18.5 -3.99902c2.66699 0.666992 5.66699 1.83398 9 3.50098s6 2.83398 8 3.50098v9
c12 -18.667 35.667 -28 71 -28c42 0 68.333 16 79 48c4.66699 -1.33301 11 -2.66602 19 -3.99902c-0.666992 7.33301 -0.833984 13.833 -0.500977 19.5s0.5 10.5 0.5 14.5c0 8.66699 -0.333008 15.334 -1 20.001l-11 -4v212c6 -4 9.33301 -6.33301 10 -7l4 44
c6.66699 -6 13.5 -12.5 20.5 -19.5l16.5 -16.5l-2 -13.5c-0.666992 -4.33301 -1 -8.83301 -1 -13.5l48 -18c-2 -2.66699 -5.33301 -5.33398 -10 -8.00098s-8.66699 -5.33398 -12 -8.00098s-5.33301 -6.33398 -6 -11.001h38l9 -11zM107.005 282.999
c0.666992 1.33301 1.66602 2.66699 2.99902 4l-15 16l-25 -7l8 -19l27 4c0.666992 0 1.33398 0.666992 2.00098 2zM120.004 209c0 -8.66699 -2.66504 -16.667 -7.99805 -24h19c0 4.66699 1 8 3 10s5.5 4.33301 10.5 7s8.5 5.33398 10.5 8.00098
c-0.666992 3.33301 -2.83398 8.5 -6.50098 15.5s-5.16699 12.833 -4.5 17.5c1.33301 3.33301 0.666016 6 -2.00098 8l9 3l-2 13l-2 2l-6 -9c-8 2 -14.333 4.33301 -19 7c-4 -6.66699 -6.33301 -10.334 -7 -11.001l1 -1c-8 -8 -9.66699 -15 -5 -21c6 -8 9 -16.333 9 -25z
M52.0059 185c0 2.66699 -1.66699 6.00098 -5 10.001c-4 -2.66699 -6 -6.33398 -6 -11.001l1 -8c6.66699 4 10 7 10 9zM375.006 169.001h-13.999v-16l2 1l3 -8h3c1.33301 4 2.66602 6.66699 3.99902 8l2 -1v16zM86.0068 123.001l8 9.99902c0.666992 0.666992 1 1.5 1 2.5
s0.333008 1.83301 1 2.5l-11 10c-6 -1.33301 -11 -3.66602 -15 -6.99902s-10 -9.33301 -18 -18h34zM98.0068 108c-5.33301 0 -9.16992 -1.16699 -11.5029 -3.5s-4.16602 -5.83301 -5.49902 -10.5s-2.66602 -8 -3.99902 -10c2.66699 -1.33301 4.66699 -2 6 -2
c2.66699 0 5.33398 1 8.00098 3s5 3.33301 7 4v19zM301.003 77c0 1.33301 -0.666992 2.33301 -2 3h-16l2 -24c12.667 2.66699 18 9.66699 16 21zM316.003 65c0 3.33301 -0.666992 5.33203 -2 5.99902s-4 0.333984 -8 -0.999023v-3c0 -5.33301 3.33301 -9 10 -11v9z
M192.003 44.999h-17l-14 -27l31 -9v36z" />
    <glyph glyph-name="uni10D5" unicode="&#x10d5;" horiz-adv-x="490" 
d="M236 0c-144 0 -216 72.999 -216 218.999l10 99h8v1h129l-14 -126c0 -62 27.667 -93 83 -93c57.333 0 86 29.667 86 89v66c0 49.333 -15.667 74 -47 74h-55v103h14v-3l15 -6c2 0 5 1 9 3c0 -6.66699 -1.66699 -14.334 -5 -23.001c-2.66699 -9.33301 -4 -16.333 -4 -21
c0 -2 0.666992 -5.66699 2 -11c2.66699 0.666992 6 1 10 1l-1 8c0 15.333 7 28 21 38l-10 17c12.667 7.33301 21.334 23.333 26.001 48c5.33301 -6.66699 9.33301 -13.667 12 -21c2.66699 -6.66699 6.83398 -11.167 12.501 -13.5s13.167 -3.83301 22.5 -4.5v31h-28
c0.666992 1.33301 1.66699 3.5 3 6.5s2 5.83301 2 8.5s-1.66699 6.33398 -5 11.001l-15 20c0.666992 6.66699 1 17.667 1 33c0 38 -22 57 -66 57c-12.667 -1.33301 -22.334 -3 -29.001 -5c-1.33301 10 -4 22 -8 36h-42c2.66699 -8 6.66699 -14 12 -18
s11.5 -7.66699 18.5 -11l16.5 -8c-18.667 -6 -30.334 -19 -35.001 -39h-1l0.5 -0.5l0.5 -0.5c-2 -6 -3 -13 -3 -21l12 -75h-135l-4 67c0 78.667 30.667 130.667 92 156h3v1c28.667 11.333 62.667 17 102 17c134 0 201 -58.667 201 -176
c-0.666992 -59.333 -30.667 -105.666 -90 -138.999c69.333 -20 104 -66.333 104 -139v-48c0 -138.667 -71.667 -208 -215 -208zM340 213.999l20 2l-8 14c3.33301 2.66699 5.16602 5.5 5.49902 8.5s0.333008 7 0 12s-0.166016 8.83301 0.500977 11.5h-18v-48zM323 181.999
l27 -16v26zM127 136.999c-3.33301 12.667 -9 20.999 -17 24.999c-0.666992 -1.33301 -1 -3.33301 -1 -6c0 -5.33301 3 -11.666 9 -18.999h9zM345 103.998c10 -7.33301 18.334 -10.667 25.001 -10c-4.66699 10.667 -8.83398 17.5 -12.501 20.5s-11.5 5.83301 -23.5 8.5h-2
c-1.33301 0 -5 -1 -11 -3v-6c6.66699 0 14.667 -3.33301 24 -10z" />
    <glyph glyph-name="uni10D6" unicode="&#x10d6;" horiz-adv-x="509" 
d="M180 710c110.667 0 171.67 -53.667 183.003 -161l-7 2v-17l4 -5l4 2l1 -19l-4 -29c14.667 -6.66699 28.334 -14.334 41.001 -23.001c-2.66699 1.33301 -5.33398 2 -8.00098 2s-5.33398 -1.33301 -8.00098 -4v-49l-17 -3c-0.666992 -1.33301 -1 -3.66602 -1 -6.99902
c0 -8 3.66699 -13 11 -15c1.33301 -0.666992 4.66602 -1 9.99902 -1l10 17c14 2 32 4.33301 54 7c7.33301 -10.667 13 -20.667 17 -30h-4l-3 -13h-42l10 -53h37l13 34v-1c1.33301 -5.33301 2 -9.66602 2 -12.999s0.333008 -6 1 -8l0.5 0.5l0.5 0.5
c2.66699 -14 4 -30.667 4 -50v-30v-14l-7 -8l3 -13c1.33301 -4 2 -6.66699 2 -8v-6c-8.66699 2.66699 -16 6.5 -22 11.5s-12.667 11.5 -20 19.5v30h-23v-19c0 -10.667 1.66699 -20.334 5 -29.001c-5.33301 0 -9 1.16699 -11 3.5s-3.66699 5 -5 8s-2.33301 5.16699 -3 6.5
l-10 1c-8 0 -13.667 -3.33301 -17 -10c3.33301 -4.66699 7.66602 -11.667 12.999 -21c3.33301 0 10.666 0.166992 21.999 0.5s22.333 -1.5 33 -5.5l15 -21c8 -1.33301 14 -2 18 -2c-5.33301 -32 -16.666 -61 -33.999 -87l-12 6
c-7.33301 -10.667 -9.66602 -20.334 -6.99902 -29.001c-14.667 -14.667 -31 -26.334 -49 -35.001c0.666992 0.666992 1 2 1 4h-21c-2 -2.66699 -3.33301 -5.16699 -4 -7.5s-0.333984 -4.16602 0.999023 -5.49902c-28 -9.33301 -59.667 -14 -95 -14
c-76 0 -133.167 20.833 -171.5 62.5s-57.5 103.5 -57.5 185.5v27c0 10 1 20 3 30l5 1l-3 9l4 17c6.66699 18.667 15.667 41 27 67c-44 38.667 -67 82.334 -69 131.001h2l-2 2v5c0 115.333 60 173 180 173zM158.003 669l6 -5c7.33301 2 15.333 3 24 3h20l13 -12
c4.66699 0 9 0.666992 13 2l-7 48c-6.66699 -1.33301 -12 -2 -16 -2l-26 1c-12 0 -21 -2.33301 -27 -7v-28zM109.003 572l24.002 -32.999c0.666992 -3.33301 1 -8 1 -14c-2 0.666992 -3.83301 1.33398 -5.5 2.00098s-3.83398 1.33398 -6.50098 2.00098v-26l14 6
c0.666992 -1.33301 1 -3 1 -5c2.66699 -12 6.66699 -22.667 12 -32c6 3.33301 15.667 7.66602 29 12.999l4 -10h16v15c7.33301 2.66699 16.666 5 27.999 7c-2.66699 -2 -5.66699 -5 -9 -9l2 -20h14l9 29c-2.66699 0.666992 -6 1 -10 1l2 12c0 14 -1.33301 29.667 -4 47
c5.33301 -0.666992 15 -2.33398 29 -5.00098l1 12c0 4.66699 -1 8.5 -3 11.5s-5.66699 5.5 -11 7.5l-8 -17l-7.5 7.5c-2.33301 2.33301 -4.5 4.16602 -6.5 5.49902c-8.66699 20 -22.334 30 -41.001 30c-20.667 0 -35 -8.66699 -43 -26
c-13.333 0 -23.666 -3.66699 -30.999 -11zM273.005 577.001h20l11 22h-31v-22zM336.005 578.001c0 5.33301 -0.666992 9.16797 -2 11.501s-4 3.5 -8 3.5l-13 -2c3.33301 -6 6.5 -10.833 9.5 -14.5s7.5 -5.83398 13.5 -6.50098v8zM307.005 497.003h-30l9 -29l33 8z
M190.005 451.003c-2.66699 6 -5.33301 13.667 -8 23h-11l-9 -23h28zM265.506 437.503c0.333008 -1 0.501953 -1.83301 0.501953 -2.5c0 -4 0.333008 -7 1 -9h22l1 7c0 4.66699 -1.33301 9 -4 13s-5.66699 8 -9 12c-4.66699 -6 -8.33398 -12 -11.001 -18
c-0.666992 -0.666992 -0.833984 -1.5 -0.500977 -2.5zM264.008 404.003c-64 0 -96.001 -44.333 -96.001 -133v-28c0 -14.667 1.33301 -32.667 4 -54l-18 -4l-24 14c0 -3.33301 -1.5 -7.5 -4.5 -12.5s-4.5 -9.16699 -4.5 -12.5s1.33301 -6.33301 4 -9
c8 5.33301 16.667 8 26 8c3.33301 0 6.5 -0.333008 9.5 -1s5.83301 -1 8.5 -1l10 -8c8 -23.333 20.333 -40.333 37 -51h-18c-12 6 -22 10.667 -30 14l10 -41l20 15c12 -1.33301 20 -3 24 -5c0.666992 -0.666992 2 -1 4 -1c2.66699 0 6 0.833008 10 2.5s7.33301 2.5 10 2.5
s5.33398 0.666992 8.00098 2c2 -0.666992 5 -1 9 -1c60 0 90 46.333 90 139v34c0 87.333 -29.667 131 -89 131zM78.0068 194.003c4.66699 -4.66699 8 -7.66699 10 -9l7 6l3 -18h10v21l-14 7zM427.007 158.003c3.33301 -2.66699 6.5 -7 9.5 -13s5.83301 -10.833 8.5 -14.5
s7.33398 -6.5 14.001 -8.5c0 3.33301 -0.333008 7.33301 -1 12s-0.333984 8 0.999023 10c4 6.66699 6 11 6 13c0 3.33301 -1 6.33301 -3 9c-0.666992 -2 -2 -3 -4 -3c2 0.666992 -8.33301 -1 -31 -5zM390.007 160.003c-2.66699 0 -6.66699 -1.66699 -12 -5
c2.66699 -2 5 -5.5 7 -10.5s4.16699 -8.66699 6.5 -11s6.16602 -3.83301 11.499 -4.5v23c-5.33301 5.33301 -9.66602 8 -12.999 8zM142.007 87.0029c10.667 0 19 3.00098 25 9.00098l-23 18v38l-17 8l-13 -33l14 -10c-5.33301 -5.33301 -8 -10.333 -8 -15
s3 -9.33398 9 -14.001zM109.007 131.004l-5.5 9.5c-1.66699 3 -3.5 5.83301 -5.5 8.5l-18 -6v-27l20 -5zM309.007 94.0039c3.33301 -1.33301 6.33105 -2.83398 8.99805 -4.50098s5.33398 -3.16699 8.00098 -4.5v-52l18 -7l11 10h11v19l3 10l-14 16
c2.66699 7.33301 4.33398 12 5.00098 14c1.33301 6.66699 2 13.334 2 20.001zM234.005 92.0029l-23 -32l9 -8l14 7v33zM252.005 46.0029c2 2 2.66699 4.33301 2 7l-3 5c-2.66699 -2 -8 -5 -16 -9l13 -8c0.666992 1.33301 2 3 4 5z" />
    <glyph glyph-name="uni10D7" unicode="&#x10d7;" horiz-adv-x="750" 
d="M449 690c14 6 29.3291 9.99902 45.9961 11.999l0.5 -0.5l0.5 -0.5l16 3l5 -8l10 8v1h3c7.33301 0 17.666 -0.666992 30.999 -2v-3c0.666992 0.666992 1.5 1 2.5 1s1.83301 0.333008 2.5 1l16 -3c0 -4 0.333008 -7 1 -9l21 -6c1.33301 4 2 6.33301 2 7
c12.667 -4.66699 24.334 -11 35.001 -19l3 -12c-8 -6.66699 -14 -11.334 -18 -14.001v-29l17 6v4c0 7.33301 2 12.666 6 15.999h11l4 5l-1 2c16 -20 28 -44.667 36 -74l-4 3l-6 -13l14 -10v0c4.66699 -26.667 7 -52 7 -76v-179c-0.666992 -24.667 -2.66699 -48.667 -6 -72
l-4 3c-10.667 -2 -19.667 -6.16699 -27 -12.5s-16.333 -16.166 -27 -29.499h51l-6 -26c-12.667 2.66699 -32.334 6 -59.001 10l-3 -7l29 -21c3.33301 0.666992 8 1 14 1s10.667 -0.333008 14 -1l-4 -11h-5v-15c-15.333 -39.333 -35.666 -75.333 -60.999 -108h-14l3 4h3
c3.33301 0 6.16602 1.33301 8.49902 4s3.83301 4.33398 4.5 5.00098c-0.666992 2 -2.33398 5 -5.00098 9l-4 -1c-3.33301 0 -6.66602 1 -9.99902 3s-5.33301 3.33301 -6 4c-1.33301 0.666992 -3 1 -5 1l-4 -4c-1.33301 -6 -2.66602 -14.333 -3.99902 -25h-125
c15.333 20 28 38.333 38 55c1.33301 0.666992 3.66602 1.5 6.99902 2.5s5.83301 2.33301 7.5 4s2.83398 4.16699 3.50098 7.5h16l-2 2c1.33301 0.666992 2.83301 1.33398 4.5 2.00098s3.83398 1.33398 6.50098 2.00098l-15 11
c0.666992 0.666992 2.33398 1.16699 5.00098 1.5s3 2.5 1 6.5h-9c-1.33301 -4 -2 -6.66699 -2 -8l-4 2l21 41c22.667 48 35.667 101.667 39 161v51l9 -9l3 -23l15 31v18l3 4h-3v14l-27 -12v133c0 6.66699 -0.333008 11.667 -1 15l41 -6
c0.666992 1.33301 1.33398 2.83301 2.00098 4.5s1.33398 3.5 2.00098 5.5l-11 9l-4 -2c-2.66699 0.666992 -5.5 1.33398 -8.5 2.00098s-6.83301 1 -11.5 1c-2.66699 0 -4.83398 -0.333008 -6.50098 -1s-3.16699 -1.33398 -4.5 -2.00098
c-4.66699 46 -23.334 69.333 -56.001 70c2 3.33301 3.66699 6.5 5 9.5s3 6.16699 5 9.5c-7.33301 4 -15.666 5.83301 -24.999 5.5s-15.333 -0.5 -18 -0.5v-3l-3 1c-2 1.33301 -4.66699 2.16602 -8 2.49902s-6 0.5 -8 0.5v-24h22l2 7l4 10l4 -1c3.33301 -6 6 -11.667 8 -17
c-21.333 -2 -36 -11 -44 -27l3 14c-5.33301 1.33301 -9.33301 2 -12 2c-7.33301 0 -13.333 -3.33301 -18 -10v-6c-2.66699 -0.666992 -6 -0.333984 -10 0.999023l-5 13l-8 1c-2.66699 0 -5.33398 -1.33301 -8.00098 -4c6 -3.33301 9.33301 -6 10 -8
c1.33301 -4.66699 2.5 -8.5 3.5 -11.5s1.83301 -5.83301 2.5 -8.5l22 -6c-1.33301 2 -1.33301 3.66699 0 5c5.33301 -1.33301 10 -2.66602 14 -3.99902c-0.666992 -2.66699 -1 -7 -1 -13v-24c-0.666992 -0.666992 -1.66699 -1 -3 -1c0 -0.666992 1 -3 3 -7v-242
c-6.66699 -1.33301 -11 -2.66602 -13 -3.99902v2c0 4.66699 -1.16699 8.33398 -3.5 11.001s-6.16602 5.33398 -11.499 8.00098c2.66699 2.66699 4 5 4 7c0 3.33301 -2 6.33301 -6 9h-13c-4.66699 -2 -7 -5 -7 -9v-8c6.66699 -2.66699 11.5 -7 14.5 -13
s5.83301 -13.667 8.5 -23c2.66699 1.33301 5.33398 3.33301 8.00098 6s5 4.16699 7 4.5s4.33301 -0.833984 7 -3.50098c0.666992 0.666992 1.5 1 2.5 1s1.83301 0.333008 2.5 1v-16c0 -22.667 -1.66699 -46.334 -5 -71.001l-8 -3v-33l-5 -15l-5 10l1 6
c-8.66699 -0.666992 -14.667 -5 -18 -13l-3 -1l2 -2l-2 -5h5c2 -2 3.66699 -4 5 -6s2.66602 -3.66699 3.99902 -5h5l-12 -22v21c-4 -0.666992 -7.66699 -2.83398 -11 -6.50098s-6.66602 -6.5 -9.99902 -8.5l17 -12c-6.66699 -10 -15 -19.667 -25 -29
c-0.666992 2 -2 3.33301 -4 4h-17v-14l-14 -14v0l-10 -5l-8 1l-3 -5c-0.666992 -0.666992 -1.66699 -1 -3 -1c7.33301 15.333 14.333 39.666 21 72.999h-19c0 -1.33301 -0.166992 -2.5 -0.5 -3.5s-0.166016 -1.83301 0.500977 -2.5l7 -14l-15 -15h-7
c0 -2 0.666992 -3.66699 2 -5c-4 -4 -9.66699 -7.66699 -17 -11v-14h3v-1h4l10 -2v-9l-14 -3c-4 1.33301 -10 4 -18 8c-4 2.66699 -9.33301 5 -16 7s-12.334 4 -17.001 6v-27h-9c-26 0 -49.667 3 -71 9v5h-16l-13 5l-1 20l-21 6l-2 -12c-54 38 -81 107.667 -81 209v34l19 8
c-10 3.33301 -16.333 5.66602 -19 6.99902v124c4 0.666992 7 2.83398 9 6.50098s3.66699 6.5 5 8.5l-7 7l-7 -6v49c0 44.667 6 82.334 18 113.001l3 2l-1 4c26 64.667 78.333 100.667 157 108c2 -4 3 -6.66699 3 -8s-1.33301 -4.66602 -4 -9.99902l7 -8
c-1.33301 -4.66699 -3.83301 -7.33398 -7.5 -8.00098s-6.16699 -1.33398 -7.5 -2.00098c1.33301 -2 3.83301 -4 7.5 -6s5.5 -4.33301 5.5 -7c6.66699 0.666992 11 2.33398 13 5.00098s2.66699 7 2 13l-6 1l7 8l1 17h11c-0.666992 1.33301 -1 3.33301 -1 6
c12.667 0 25 -1 37 -3v-5l14 -10l10 5l2 4c28.667 -8.66699 55 -25.667 79 -51c13.333 14.667 25.333 25 36 31c3.33301 -0.666992 6 -1.66699 8 -3s4 -2.33301 6 -3c4 4.66699 5.33301 10 4 16zM477.996 684.999c1.33301 -2 2.33301 -4.66699 3 -8s2 -5.83301 4 -7.5
s5.33301 -1.5 10 0.5c1.33301 4 2.66602 11.333 3.99902 22c-4 2.66699 -7.5 4.5 -10.5 5.5s-5.16699 0.833008 -6.5 -0.5c-1.33301 -2.66699 -2.66602 -6.66699 -3.99902 -12zM316.996 668.999l1 -9l12 5l12 6v8h-20c-3.33301 -2.66699 -5 -6 -5 -10zM253.996 660.999
l16 3.00098v-5v0l-4 -2l-1 -8c0 -1.33301 0.666992 -3.33301 2 -6h23c-0.666992 4 -1 9.66699 -1 17c4.66699 6 6.66699 11.333 6 16c-2.66699 -0.666992 -5.5 -1.33398 -8.5 -2.00098s-6.16699 -1 -9.5 -1c-2.66699 0 -8 1.33301 -16 4zM169.996 648h5c10 0 16.333 5 19 15
l-24 7v-22zM355.996 665l-20 0.000976562l-8 -13v-12l1 -3c1.33301 -0.666992 2.83301 -1 4.5 -1s3.16699 -0.333008 4.5 -1l3 -6c5.33301 1.33301 8.83301 2.5 10.5 3.5s2.16699 2.83301 1.5 5.5l-6 3l-1 4c0 3.33301 1 5.66602 3 6.99902s4.5 2.33301 7.5 3
s5.16699 1 6.5 1zM454.996 640.001c-2 -1.33301 -4 -3 -6 -5c-1.33301 -1.33301 -1.66602 -2.66602 -0.999023 -3.99902s2.66699 -2 6 -2l8 11c4 0.666992 8.83301 0.166992 14.5 -1.5s9.83398 -2.5 12.501 -2.5c5.33301 0 9.66602 2 12.999 6v15
c-5.33301 1.33301 -10 2.66602 -14 3.99902l-10 -8c-2 -1.33301 -4.33301 -2 -7 -2s-5.33398 1.33301 -8.00098 4c0 -2 -0.166992 -4 -0.5 -6s-0.833008 -3.33301 -1.5 -4c-2 -2 -4 -3.66699 -6 -5zM118.996 628.001l8 -9l24 7v10.5c0 5 -1.16699 9 -3.5 12
s-6.5 4.83301 -12.5 5.5zM371.996 616.001c1.33301 -0.666992 4 -1 8 -1s7 -1.33301 9 -4c0.666992 -0.666992 2.5 -0.5 5.5 0.5s5.16699 1.83301 6.5 2.5l-16 22h-13v-20zM458.996 602.001c0 3.33301 -2.16504 6.00098 -6.49805 8.00098s-6.83301 4 -7.5 6
c-0.666992 5.33301 -1.33398 8.66602 -2.00098 9.99902s-2.66699 3.66602 -6 6.99902c-2 -5.33301 -5.66699 -13.333 -11 -24c2 -3.33301 4.66699 -5.16602 8 -5.49902s5.66602 -0.5 6.99902 -0.5s3.33301 -1.5 6 -4.5s5.66699 -3.83301 9 -2.5l2 2zM393.998 508.002
l3.00781 -5.00293c-2.66699 0 -6.66699 -0.666992 -12 -2l6 -6l-1 -5h-1l-16 26h-8l-5 -16l4 -8l-36 -6c-2.66699 2.66699 -5.33398 4.66699 -8.00098 6v17v12c0.666992 0.666992 2.5 1.5 5.5 2.5s6.16699 0.833008 9.5 -0.5v22h-3c-5.33301 0 -9 -2 -11 -6
c-1.33301 -1.33301 -2 -2.33301 -2 -3c-6 48 -29.667 72 -71 72c-31.333 0 -53 -13.333 -65 -40c-2 0 -3.66699 0.666992 -5 2c-3.33301 -7.33301 -3.66602 -13.333 -0.999023 -18c-2.66699 -10.667 -4 -25 -4 -43v-68h-16v-26l16 6v-101l-4 -1
c1.33301 -5.33301 2.66602 -9.33301 3.99902 -12v-37c-4 -1.33301 -6.33301 -3.16602 -7 -5.49902s-1 -4.66602 -1 -6.99902v-5.5h8v-40c0 -75.333 25 -113 75 -113c28 0 48 13 60 39v-20l15 -10c1.33301 2.66699 2 6.33398 2 11.001c0 8 -3.66699 15 -11 21
c-0.666992 0.666992 -1.66699 0.666992 -3 0s-2.33301 -1 -3 -1c8 18 12 42.333 12 73v80c9.33301 0 15.333 -0.333008 18 -1c1.33301 0 3.16602 -0.5 5.49902 -1.5s4.16602 -1.83301 5.49902 -2.5l7 9c-1.33301 5.33301 -3.83301 9 -7.5 11s-8.5 3 -14.5 3
c-0.666992 -2 -5.33398 -7.66699 -14.001 -17v79l15 3c2.66699 -6 6 -15.667 10 -29h14l20 61l-15 -6c2 10 5 19 9 27c1.33301 3.33301 3.5 5.83301 6.5 7.5s6.5 1.5 10.5 -0.5c0 -3.33301 -0.5 -7.33301 -1.5 -12s-1.5 -8 -1.5 -10l-1 -4c0 -2.66699 0.5 -5.66699 1.5 -9
s1.83301 -6 2.5 -8l-10 -7l17 -38c-1.33301 -3.33301 -2.5 -6.5 -3.5 -9.5s-2.16699 -6.16699 -3.5 -9.5c3.33301 -2.66699 7.66602 -4 12.999 -4l16 1v33c-1.33301 3.33301 -3.5 7.66602 -6.5 12.999s-4.5 10 -4.5 14c0 3.33301 1 7 3 11c2.66699 6 5 13.333 7 22
s3.66699 15.334 5 20.001c-16 7.33301 -39.333 14.666 -70 21.999v13l0.5 -0.5l0.5 -0.5c1.33301 2 2.66602 4.33301 3.99902 7s3.66602 6.66699 6.99902 12l4 -8c0.666992 -6.66699 2.16699 -10.667 4.5 -12s8.16602 -2.66602 17.499 -3.99902
c8 14.667 14.333 25.667 19 33zM622.006 579.499c-2.66699 -3 -3.99609 -5.49902 -3.99609 -7.49902s2.33301 -7 7 -15c0 0.666992 0.666992 1.66699 2 3c8 -6.66699 12.333 -14.334 13 -23.001c-3.33301 -3.33301 -5 -5.33301 -5 -6l4 -11c4 5.33301 8.16699 10 12.5 14
s8.16602 8 11.499 12c-7.33301 4 -11 8.33301 -11 13c0.666992 0.666992 1.66699 1 3 1s2.66602 -1 3.99902 -3s2.66602 -3.33301 3.99902 -4h5v10h-2c-8 0 -12.333 4.33301 -13 13c-9.33301 -3.33301 -16 -5.33301 -20 -6c4.66699 4 7 7.33301 7 10c0 4 -2.33301 7 -7 9
c-4.66699 -3.33301 -8.33398 -6.5 -11.001 -9.5zM111.01 520l1 -9.00098c2 3.33301 6 5 12 5c4 0 6.66699 0.666992 8 2l1 6c0 4.66699 -2.33301 8.33398 -7 11.001zM54.0098 519.999h3c6.66699 0 10 3.33301 10 10h-19zM685.01 523.499
c-1.33301 -2.33301 -2 -5.83301 -2 -10.5h11v15c-4.66699 -0.666992 -7.66699 -2.16699 -9 -4.5zM671.01 514.999l3 -18c1.33301 2 3.33301 4.33301 6 7s3.66699 5.66699 3 9l-21 14l-29 -21v-6l19 -9zM625.01 515.999c-6.66699 0 -10.333 -3.33301 -11 -10h18l-4 10h-3z
M599.011 501.999c-6 0 -10.667 -0.332031 -14 -0.999023v-9c2 -0.666992 6.66699 -2.33398 14 -5.00098v15zM97.0107 498c-5.33301 0 -9.33301 -2.33203 -12 -6.99902c4 -0.666992 8.33301 -2.33398 13 -5.00098l5 12h-6zM609.011 470.001h15l-6 14l-16 -1zM82.0107 470.001
h14v10h-7l-7 3v-13zM698.011 465.001c8.66699 2 12 6.33203 10 12.999c0 0.666992 -1.33301 1.33398 -4 2.00098s-4.66699 1 -6 1v-16zM339.011 452c0 -12 4.66992 -19.999 14.0029 -23.999c0 -2 0.166992 -4.33301 0.5 -7s0.166016 -6 -0.500977 -10v-4l-26 22l-7 36v5
c5.33301 2 10.166 3.66699 14.499 5s8.16602 2.66602 11.499 3.99902l4 -4l-11 -7v-16zM119.014 424.001h8c8 0 13.667 2.66699 17 8l-16 41l-38 -48l2 -16l21 15h6zM69.0137 463.001c-2 -2.66699 -3.5 -5.00195 -4.5 -7.00195s-1.83301 -3.33301 -2.5 -4l8 -13
c1.33301 1.33301 3 2.83301 5 4.5s3.66699 2.83398 5 3.50098c5.33301 2 8.33301 5.66699 9 11c-3.33301 0.666992 -10 2.33398 -20 5.00098zM64.5137 421.999c4.33301 -0.666992 7.16797 -1.66602 8.50098 -2.99902l6 6l-11 13c-5.33301 -4 -9.33301 -6.66699 -12 -8
c1.33301 -4.66699 4.16602 -7.33398 8.49902 -8.00098zM629.016 428l-0.000976562 -12c5.33301 -4 9.33301 -7.33301 12 -10l2 12c0 2 -1.33301 5.33301 -4 10c-1.33301 2.66699 -2.66602 4.66699 -3.99902 6zM688.015 364c0 4 -1 8.33398 -3 13.001
c-4.66699 -2.66699 -8.5 -5.33398 -11.5 -8.00098s-4.5 -5 -4.5 -7c0 -2.66699 3 -8 9 -16c6.66699 4.66699 10 10.667 10 18zM109.015 368.001l-4.99805 4c-2.66699 -6 -4.33398 -11.333 -5.00098 -16c1.33301 -1.33301 3.16602 -3.33301 5.49902 -6s5.5 -4 9.5 -4v26z
M64.0166 354.001l28.001 -5v8h-2h-7c-4.66699 0 -7.33398 2 -8.00098 6l3 3l-5 5l-9 -5v-12zM129.018 366.001l5 -8h10l-12 12c0 -0.666992 -1 -2 -3 -4zM624.018 346.001c6 9.33301 7.33203 15.001 3.99902 17.001c-5.33301 1.33301 -9.66602 2.66602 -12.999 3.99902
c-0.666992 -2 -2 -3.33301 -4 -4zM429.017 338.002c1.33301 -4.66699 3.00098 -7.33203 5.00098 -7.99902c0.666992 -0.666992 2.16699 -1.33398 4.5 -2.00098s4.16602 -1 5.49902 -1v10l3 8c-1.33301 0.666992 -2.5 1.5 -3.5 2.5l-2.5 2.5zM627.018 312.004
c1.33301 0.666992 3.50098 2 6.50098 4s6.16699 3.33301 9.5 4s7 0.666992 11 0c-4.66699 6 -8.33398 11 -11.001 15v14c-5.33301 -3.33301 -12 -8.33301 -20 -15l-6 -24l-8 -2l11 -12zM146.019 313.004v22c-3.33301 0 -5 -0.333008 -5 -1
c-2 -3.33301 -3.66699 -7.33301 -5 -12c0 -6 3.33301 -9 10 -9zM113.019 323.004c-2.66699 3.33301 -4.99902 6 -6.99902 8s-4 3 -6 3c-2.66699 0 -9 -4 -19 -12h-10c-4.66699 0 -8.33398 -0.333008 -11.001 -1c-2 0 -4.66699 -0.5 -8 -1.5s-6.33301 -1.16699 -9 -0.5v-21
h27c4 -14 12.333 -22.667 25 -26l3 36zM679.02 332.004l-6.50098 -0.00390625c-3 0 -5.33301 -0.5 -7 -1.5s-3.16699 -3.16699 -4.5 -6.5c2 -1.33301 3.33301 -3.66602 4 -6.99902c-0.666992 -2.66699 -2.16699 -6 -4.5 -10s-3.16602 -8 -2.49902 -12
c-1.33301 0.666992 -2.5 0.833984 -3.5 0.500977s-2.16699 -0.166016 -3.5 0.500977c-2 2 -4.33301 3 -7 3c-0.666992 1.33301 -1.66699 2.83301 -3 4.5l-5 6.5c-2.66699 -3.33301 -4.66699 -6.16602 -6 -8.49902s-2 -4.83301 -2 -7.5c0 -0.666992 0.666992 -5.66699 2 -15
l7 4c0 -2 -0.166992 -4.66699 -0.5 -8s0.166992 -6.33301 1.5 -9l10 4h14v18h10l7 13v31zM122.019 280c-5.33301 0 -9.66699 -3 -13 -9l12 -21h23v21c0 0.666992 -0.333008 1 -1 1l5 12l8 1l-3 18l-4 -8c-2.66699 2 -6.66699 4.33301 -12 7l-4 -5
c2 -2.66699 3 -5.66699 3 -9c0 -2 -1.33301 -5.66699 -4 -11c-2.66699 2 -6 3 -10 3zM617.018 251h-6v-21h11zM400.018 202l10 -1c10 0 16.333 5 19 15l-7 5v17l-17 -12v-14zM169.018 213c-5.33301 4 -12 6 -20 6l-13 -1c0 -2.66699 0.333008 -4.66699 1 -6h16
c1.33301 -4 2 -6.33301 2 -7h14v8zM129.018 183c2.66699 0 6.66699 1.66699 12 5l-26 28v-25c5.33301 -5.33301 10 -8 14 -8zM404.018 131l-7.49805 13c-3 5.33301 -6.33301 9.33301 -10 12s-8.83398 3.66699 -15.501 3c-0.666992 -1.33301 -2.33398 -4.5 -5.00098 -9.5
s-4 -10.5 -4 -16.5c0 -4 0.666992 -7.33301 2 -10h32c2 3.33301 4.66699 6 8 8zM606.02 93c0.666992 2 1 4.66699 1 8c0 5.33301 -2.66699 8.33301 -8 9l-7 -5zM194.02 81c0 2 -0.167969 3.66699 -0.500977 5s-1.16602 2 -2.49902 2l-9 -2l10 -17l2 3v9zM597.019 72
l0.000976562 -9.00098c0 -11.333 5 -17.666 15 -18.999c1.33301 2.66699 5.16602 6.5 11.499 11.5s9.5 10.167 9.5 15.5c0 2 -0.666992 5 -2 9zM248.02 32.999l-21 -0.000976562c-4 -6.66699 -6.66699 -12 -8 -16c1.33301 -0.666992 3 -1 5 -1
c2.66699 0 5.5 0.833008 8.5 2.5s5.16699 2.83398 6.5 3.50098l9 -3v14z" />
    <glyph glyph-name="uni10D8" unicode="&#x10d8;" horiz-adv-x="473" 
d="M84 0c-36 108 -54.0029 212.003 -54.0029 312.003v78l7 3c0 -6 2.66699 -9.66699 8 -11c0 1.33301 -0.166992 2.66602 -0.5 3.99902s-0.166016 2.66602 0.500977 3.99902c0 2 1.33301 5 4 9h-4v21l-15 -14v63c0 26 1.66699 47 5 63v-8h19
c-3.33301 4.66699 -5 8.66699 -5 12c0 4 1.66699 7.33301 5 10l-13 8v-16l-6 -1c4.66699 23.333 11.667 44.666 21 63.999l6 -3c1.33301 -0.666992 2.5 -1.83398 3.5 -3.50098s2.83301 -1.83398 5.5 -0.500977l-7 10v10l5 8h1v1c15.333 22 36.666 39.667 63.999 53l2 -4
c4.66699 2 11.667 4.33301 21 7v5c10.667 4 23.334 7 38.001 9l3 -6c2.66699 -0.666992 7 -1 13 -1l4 -10l-11 -11v-8c0 -10 1.66699 -18.333 5 -25c4.66699 3.33301 8.66699 5.66602 12 6.99902s7.33301 1 12 -1v-22c3.33301 -4 7.33301 -6 12 -6h10v2
c0 6 -1.5 11.333 -4.5 16s-4.83301 7.66699 -5.5 9c-4.66699 8 -7.33398 12.667 -8.00098 14s-0.833984 2.5 -0.500977 3.5s0.5 1.83301 0.5 2.5l14 1v8c-2.66699 0.666992 -4.66699 2.16699 -6 4.5s-2.33301 3.83301 -3 4.5c-1.33301 1.33301 -3.5 2.5 -6.5 3.5
s-5.5 2.16699 -7.5 3.5c3.33301 6 5.33301 11 6 15h12c10.667 0 18.334 -0.333008 23.001 -1l9 -9h10c0 2 -0.666992 4.33301 -2 7l10 -1l-5 -5c8.66699 -2.66699 14.334 -4.33398 17.001 -5.00098c0.666992 1.33301 1 3.66602 1 6.99902
c46.667 -12 81.334 -37.333 104.001 -76c-3.33301 3.33301 -7 6 -11 8c-1.33301 -2.66699 -2.66602 -6.66699 -3.99902 -12c0 0.666992 -0.666992 -3.66602 -2 -12.999l20 10l2 -4v-25l-7 -14c6.66699 -6.66699 14.667 -9.33398 24 -8.00098
c3.33301 -16.667 5.66602 -35.667 6.99902 -57c-1.33301 5.33301 -2 8.66602 -2 9.99902c0 6.66699 -3.66699 10.334 -11 11.001c0 -2.66699 -0.833008 -7.16699 -2.5 -13.5s-1.83398 -11.166 -0.500977 -14.499l14 2v-6l-5 -1c-1.33301 -0.666992 -3.66602 -1 -6.99902 -1
l2 -7c4.66699 0.666992 9 0.666992 13 0v-10v-70c-1.33301 -3.33301 -2.66602 -7.66602 -3.99902 -12.999l-12 -5l2 -17c1.33301 -2 3.16602 -4.16699 5.49902 -6.5s3.5 -4.16602 3.5 -5.49902c0.666992 -3.33301 1.66699 -6.83301 3 -10.5s2 -6.83398 2 -9.50098v-4
c0 -2.66699 -1 -5 -3 -7l3 -3v-6c0 -58 -6 -118.667 -18 -182l-2 1l-5 -5v-5c0 -5.33301 1 -10 3 -14c-6.66699 -32 -14.667 -64 -24 -96c-1.33301 0 -2.66602 0.166992 -3.99902 0.5s-3 0.166016 -5 -0.500977c-0.666992 0 -1.66699 -1 -3 -3l5 -7l4 2
c0 -1.33301 -0.333008 -2.33301 -1 -3h-56l-15 20l-16 -11c2.66699 -2 5 -4.33301 7 -7c-0.666992 0 -2.33398 -0.666992 -5.00098 -2h-55c4 9.33301 9.33301 24 16 44l12 -9v-9h15c-3.33301 14 -9.33301 24.667 -18 32c-2.66699 -1.33301 -4.66699 -2.66602 -6 -3.99902
c4.66699 16 8.33398 29.667 11.001 41l5 1v9c2 0.666992 5.33301 1 10 1c9.33301 0 18.666 -2.66699 27.999 -8l3 8l24 -19c-0.666992 5.33301 -2.16699 9.33301 -4.5 12s-5 4.83398 -8 6.50098s-5.16699 2.83398 -6.5 3.50098l-18 12l4 5l-8 8l-5 -10l4 -4
c-3.33301 0 -6.83301 0.166992 -10.5 0.5s-7.5 0.166016 -11.5 -0.500977c7.33301 31.333 12.666 64.666 15.999 99.999h10c2 4 3 7.66699 3 11c0 4 -1.33301 8.5 -4 13.5l-6 11.5c1.33301 24 2 42.667 2 56v160c2.66699 -2 8.33398 -4.66699 17.001 -8l7 21
c-4 5.33301 -7.33301 9.33301 -10 12c-2 2 -5 7.66699 -9 17c-2.66699 -1.33301 -4.66699 -2 -6 -2c-2 56.667 -23 85 -63 85c-54 0 -81 -33 -81 -99v-9c-4.66699 -6 -8.66699 -13.667 -12 -23l-1 -4c0 -3.33301 1.66699 -7.66602 5 -12.999s6 -10 8 -14v-123v-13l-1 4
c0 2 -1.66699 3.66699 -5 5c-2 -1.33301 -5 -2.66602 -9 -3.99902v-13l13 -7l2 2c0.666992 -43.333 5.33398 -87.666 14.001 -132.999c9.33301 -51.333 24.333 -102.333 45 -153h-35v5l-16 -2c1.33301 -1.33301 2 -2.33301 2 -3h-91zM255.997 675.003
c3.33301 0.666992 7.66699 1 13 1v9h-19zM196.998 679.003c-1.33301 0 -3.49902 0.666016 -6.49902 1.99902s-5.5 2 -7.5 2c-2.66699 0 -5.33398 -2.33301 -8.00098 -7c2 -12 3.66699 -21 5 -27l21 5c-2.66699 2.66699 -4 5 -4 7s0.666992 4.83301 2 8.5
s1.33301 6.83398 0 9.50098h-2zM267.999 674.002c-3.33301 -2 -5 -5.66699 -5 -11c0 -4.66699 1.5 -8 4.5 -10s9.16699 -3.33301 18.5 -4v28c-8.66699 0 -14.667 -1 -18 -3zM316.999 651.002c2 0 5 -1.66699 9 -5s8 -4 12 -2v18c-2 0.666992 -5 2 -9 4s-8 2.33301 -12 1v-16
zM150.499 614.502c-2.33301 -5.66699 -3.5 -11.835 -3.5 -18.502l13 7c3.33301 -0.666992 5.5 -2 6.5 -4s1.33301 -4.33301 1 -7s-0.166016 -5 0.500977 -7l17 -5v22l-6 4c3.33301 1.33301 7.66602 4.33301 12.999 9l-25 8l4 8
c-1.33301 0.666992 -2.83301 1.33398 -4.5 2.00098s-3.5 1.33398 -5.5 2.00098c-4.66699 -8 -8.16699 -14.833 -10.5 -20.5zM117.999 593.001l9 -4c4 6 5.33301 10.667 4 14c0 1.33301 -2.33301 4 -7 8c-6 -4 -8 -10 -6 -18zM87.999 569.501
c5.33301 1 9.00195 3.5 11.002 7.5c-0.666992 4 -2.33398 10 -5.00098 18l-5 1c-4 0 -10.333 -3 -19 -9v-4c0 -6.66699 2.66699 -12.667 8 -18c1.33301 2 4.66602 3.5 9.99902 4.5zM103.001 547.001l18 5.00098c-1.33301 1.33301 -2.5 4.16602 -3.5 8.49902
s-2.5 7.33301 -4.5 9s-5.33301 1.5 -10 -0.5v-22zM399.001 511.002l28 11l-7 8c-1.33301 0 -6.66602 -1.66699 -15.999 -5c-0.666992 -1.33301 -2.33398 -6 -5.00098 -14zM132.501 511.502c1 1 1.83301 4.5 2.5 10.5h-13v-13c6 0.666992 9.5 1.5 10.5 2.5zM367.001 512.502
c-0.666992 -3 -0.333008 -6.83301 1 -11.5l12 -4l6 13c-2.66699 2.66699 -6.66699 6 -12 10c-4 -2 -6.33301 -4.5 -7 -7.5zM132.002 476.502c-4 5.66699 -8 9.16699 -12 10.5c-4.66699 -4.66699 -7 -10.334 -7 -17.001c0 -1.33301 0.666992 -4.66602 2 -9.99902l20 -8l1 -19
c4.66699 3.33301 10 8 16 14c-6 6 -10.333 10 -13 12l4 7c-3.33301 1.33301 -7 4.83301 -11 10.5zM429.002 440.002c-6.66699 0 -11.667 -0.666992 -15 -2c4.66699 -6.66699 7.66699 -10 9 -10c3.33301 0 7.33301 4 12 12h-6zM104.002 409.002l-20.002 6.00098
c0.666992 -3.33301 2.83398 -6.33301 6.50098 -9s5.83398 -5.33398 6.50098 -8.00098zM152 367.003c-3.33301 2.66699 -5.66699 4.99902 -7 6.99902h-13v-9l3 -1c-6.66699 -3.33301 -11.667 -6.5 -15 -9.5s-5.33301 -7.83301 -6 -14.5h11
c-1.33301 -2 -1.33301 -4.66699 0 -8l17 5l-4 3c6 0 12.667 1 20 3c-2 3.33301 -4.33301 6.33301 -7 9s-5 5.66699 -7 9l5 -3l9 -2c-0.666992 4.66699 -2.66699 8.33398 -6 11.001zM47.999 367.002h-11.001c0.666992 -7.33301 1.83398 -12.5 3.50098 -15.5
s4.16699 -4.83301 7.5 -5.5v21zM397.998 298.002c2.66699 -2.66699 6.66699 -3.83203 12 -3.49902s9 0.166016 11 -0.500977v10l-12 16h-8zM396.998 227.004l11.001 -8c6 2.66699 9.66699 6 11 10s1.66602 8.5 0.999023 13.5s-0.666992 9.16699 0 12.5h-23v-28z
M334.999 227.004l-5 5l4 8h-10v-10c0 -4 0.666992 -7.33301 2 -10c2 2 5 4.33301 9 7zM357.999 52.0039l-27.002 0.000976562v21h-8v8l1 1l-1 4v7h-3c-0.666992 0 -1 0.666992 -1 2h-13c0 -2.66699 -0.166992 -5.33398 -0.5 -8.00098s-0.166016 -5.33398 0.500977 -8.00098
c0 -0.666992 0.666992 -1.66699 2 -3c2 -3.33301 6 -6 12 -8c2 -8 3 -15.333 3 -22c0.666992 -6.66699 3.33398 -12.667 8.00098 -18l11 10c2.66699 -3.33301 5.66699 -5 9 -5c2 0 4.33301 0.833008 7 2.5s4.66699 2.83398 6 3.50098zM152.997 32.0049
c5.33301 -8 12.332 -12.333 20.999 -13c0.666992 0 2.33398 1.33301 5.00098 4l-24 15zM144.996 33.0049l-11.998 -0.000976562l-8 4v-11c1.33301 0 3.16602 -0.166992 5.49902 -0.5s5.16602 -0.166016 8.49902 0.500977c0.666992 0 2.66699 2.33301 6 7zM185.998 19.0039
h11l10 -5v11h-21v-6z" />
    </font>
</defs>
</svg>
